<?xml version="1.0" encoding="UTF-8"?>
<svg width="80px" height="98px" viewBox="0 0 80 98" version="1.1" xmlns="http://www.w3.org/2000/svg" xmlns:xlink="http://www.w3.org/1999/xlink">
    <title>icon-links</title>
    <g id="NEw" stroke="none" stroke-width="1" fill="none" fill-rule="evenodd">
        <g id="Referral-program" transform="translate(-507.000000, -2877.000000)">
            <g id="icon-links" transform="translate(509.000000, 2879.000000)">
                <circle id="Oval" fill="#ADE7FF" cx="38.5" cy="39.5" r="35.5"></circle>
                <g id="Group-221" stroke="#265A6E" stroke-linecap="round" stroke-linejoin="round" stroke-width="4">
                    <line x1="72.0936" y1="91.586" x2="4.0976" y2="91.586" id="Stroke-729"></line>
                    <path d="M0.2968,79.582 L0.2968,75.302 C0.2968,57.83 10.7928,47.566 23.7368,47.566 C30.1288,47.566 30.1968,43.542 30.1968,43.542 L30.1968,39.994 C27.9448,37.594 26.1728,34.242 25.1208,30.322 C22.6048,28.474 21.9768,24.666 24.0608,21.99 L24.0608,14.038 C24.0608,5.834 28.6968,0.222 38.4408,0.222 C48.4408,0.222 52.8128,5.834 52.8128,14.038 L52.8128,21.986 C54.9008,24.666 54.2768,28.474 51.7528,30.326 C50.7048,34.242 48.9328,37.594 46.6848,39.994 L46.6848,43.542 C46.6848,43.542 45.9648,47.566 52.4568,47.566 C65.4008,47.566 75.8928,57.83 75.8928,75.302 L75.8928,79.582" id="Stroke-730"></path>
                    <path d="M62.0292,91.586 L13.8612,91.586 L12.2292,61.986 C12.1572,60.682 13.1932,59.59 14.4932,59.59 L61.6732,59.59 C62.9852,59.59 64.0212,60.698 63.9372,62.002 L62.0292,91.586 Z" id="Stroke-731"></path>
                    <path d="M41.4552,74.2148 C41.4552,76.0708 39.9512,77.5748 38.0952,77.5748 C36.2392,77.5748 34.7352,76.0708 34.7352,74.2148 C34.7352,72.3588 36.2392,70.8548 38.0952,70.8548 C39.9512,70.8548 41.4552,72.3588 41.4552,74.2148 Z" id="Stroke-732"></path>
                </g>
            </g>
        </g>
    </g>
</svg>