<?xml version="1.0" encoding="UTF-8"?>
<svg width="510px" height="312px" viewBox="0 0 510 312" version="1.1" xmlns="http://www.w3.org/2000/svg" xmlns:xlink="http://www.w3.org/1999/xlink">
    <title>icon-cert</title>
    <defs>
        <polygon id="path-1" points="269.94135 0.100101881 269.94135 9.24201795 0.287074064 9.24201795 0.287074064 0.100101881 269.94135 0.100101881"></polygon>
    </defs>
    <g id="NEw" stroke="none" stroke-width="1" fill="none" fill-rule="evenodd">
        <g id="Referral-program" transform="translate(-771.000000, -1981.000000)">
            <g id="icon-cert" transform="translate(773.000000, 1981.000000)">
                <path d="M2.55795385e-13,301.874313 C2.55795385e-13,304.398759 45.4271096,306.445497 101.464166,306.445497 C157.501222,306.445497 202.92788,304.398759 202.92788,301.874313 C202.92788,299.349867 157.501222,297.303581 101.464166,297.303581 C45.4271096,297.303581 2.55795385e-13,299.349867 2.55795385e-13,301.874313" id="Fill-1" fill="#E1E2E6"></path>
                <g id="Group-2" transform="translate(213.087039, 0.000000)">
                    <g id="Group-5" transform="translate(23.362081, 299.171382)">
                        <mask id="mask-2" fill="white">
                            <use xlink:href="#path-1"></use>
                        </mask>
                        <g id="Clip-4"></g>
                        <path d="M0.287074064,4.67083415 C0.287074064,7.19527988 60.6512532,9.24201795 135.11428,9.24201795 C209.577307,9.24201795 269.941486,7.19527988 269.941486,4.67083415 C269.941486,2.14638842 209.577307,0.100101881 135.11428,0.100101881 C60.6512532,0.100101881 0.287074064,2.14638842 0.287074064,4.67083415" id="Fill-3" fill="#E1E2E6" mask="url(#mask-2)"></path>
                    </g>
                    <path d="M6.55213904,162.133893 L215.918738,162.133893 C218.901543,162.133893 221.341198,159.696139 221.341198,156.715658 L221.341198,6.54703329 C221.341198,3.56700434 218.901543,1.12879884 215.918738,1.12879884 L6.55213904,1.12879884 C3.56933422,1.12879884 1.12967914,3.56700434 1.12967914,6.54703329 L1.12967914,156.715658 C1.12967914,159.696139 3.56933422,162.133893 6.55213904,162.133893" id="Fill-52" fill="#FEFEFE"></path>
                    <path d="M6.55213904,2.25759768 C4.18523529,2.25759768 2.25935829,4.18197395 2.25935829,6.54703329 L2.25935829,156.715658 C2.25935829,159.080718 4.18523529,161.005094 6.55213904,161.005094 L215.918738,161.005094 C218.285642,161.005094 220.211519,159.080718 220.211519,156.715658 L220.211519,6.54703329 C220.211519,4.18197395 218.285642,2.25759768 215.918738,2.25759768 L6.55213904,2.25759768 Z M215.918738,163.262692 L6.55213904,163.262692 C2.93942513,163.262692 -2.84217094e-13,160.325557 -2.84217094e-13,156.715658 L-2.84217094e-13,6.54703329 C-2.84217094e-13,2.93713459 2.93942513,2.84217094e-14 6.55213904,2.84217094e-14 L215.918738,2.84217094e-14 C219.531452,2.84217094e-14 222.470877,2.93713459 222.470877,6.54703329 L222.470877,156.715658 C222.470877,160.325557 219.531452,163.262692 215.918738,163.262692 L215.918738,163.262692 Z" id="Fill-54" fill="#2E394C"></path>
                    <path d="M77.6213385,302.448872 L78.3127021,302.614579 C79.7492021,302.959089 81.2064882,302.066435 81.5508144,300.631506 L106.561459,169.635303 C106.906237,168.199922 106.012887,166.743772 104.576387,166.399714 L103.885023,166.233555 C102.448523,165.889497 100.991689,166.782151 100.646911,168.21708 L75.6362663,299.213734 C75.2919401,300.648663 76.1848385,302.104362 77.6213385,302.448872" id="Fill-56" fill="#FEFEFE"></path>
                    <path d="M101.751014,168.458237 L76.7349471,299.477015 C76.6386984,299.877965 76.7055754,300.294266 76.9242813,300.650063 C77.1425353,301.006312 77.4836984,301.254648 77.8849604,301.351273 L78.5763241,301.516981 C78.9771342,301.613154 79.3942118,301.546329 79.7507385,301.327794 C80.1004872,301.113774 80.3467572,300.781455 80.4470727,300.389988 L105.46314,169.371661 C105.559388,168.970711 105.492059,168.553959 105.273805,168.198162 C105.055099,167.842364 104.714388,167.593577 104.313126,167.496952 L103.621763,167.331244 C102.795289,167.134381 101.960682,167.637826 101.751014,168.458237 M78.9409845,303.818376 C78.6441048,303.818376 78.3449658,303.783157 78.0494417,303.712269 L77.3580781,303.546561 C76.3698348,303.309513 75.5316128,302.700413 74.9979524,301.830335 C74.4692626,300.968384 74.3038775,299.956529 74.5316209,298.978086 L99.5485914,167.953889 C100.039324,165.909409 102.104829,164.644703 104.148645,165.136408 L104.840009,165.302115 C105.8278,165.538711 106.666474,166.148263 107.200134,167.018341 C107.728824,167.880292 107.894209,168.892147 107.666466,169.87059 L82.6494952,300.894335 C82.4122626,301.88226 81.8026877,302.719377 80.9319333,303.252622 C80.3214524,303.626028 79.6368668,303.818376 78.9409845,303.818376" id="Fill-58" fill="#2E394C"></path>
                    <path d="M165.806036,302.448872 L165.114672,302.614579 C163.678624,302.959089 162.221338,302.066435 161.877011,300.631506 L136.866367,169.635303 C136.521589,168.199922 137.414939,166.743772 138.851439,166.399714 L139.542803,166.233555 C140.978851,165.889497 142.435685,166.782151 142.780463,168.21708 L167.791108,299.213734 C168.135434,300.648663 167.242536,302.104362 165.806036,302.448872" id="Fill-60" fill="#FEFEFE"></path>
                    <path d="M162.980934,300.390123 C163.081249,300.781591 163.32752,301.113909 163.676816,301.327929 C164.032891,301.546465 164.449517,301.614193 164.851231,301.517116 L165.542594,301.351408 C165.943856,301.254783 166.28502,301.005996 166.503274,300.650199 C166.721528,300.294401 166.788856,299.877649 166.692608,299.477151 L166.680859,299.425226 L141.676541,168.458372 C141.466872,167.637058 140.634977,167.134517 139.806244,167.331379 L139.11488,167.497087 C138.713618,167.593712 138.372455,167.842048 138.154201,168.198297 C137.935495,168.554094 137.868618,168.970395 137.964867,169.371796 L137.976164,169.423269 L162.980934,300.390123 Z M164.486118,303.818511 C163.79114,303.818511 163.105651,303.626164 162.496076,303.252757 C161.625319,302.719513 161.015292,301.881944 160.778511,300.894471 L160.767215,300.842997 L135.761541,169.870725 C135.533798,168.892282 135.699183,167.879976 136.227872,167.018025 C136.761533,166.147947 137.599755,165.538847 138.587998,165.301799 L139.279362,165.136091 C141.324533,164.645741 143.388231,165.909093 143.878963,167.954025 L143.89026,168.005498 L168.895934,298.978673 C169.123225,299.957116 168.958292,300.96852 168.429602,301.830019 C167.895942,302.700097 167.057268,303.309649 166.069477,303.546245 L165.806036,302.449052 L166.069477,303.546245 L165.378113,303.711953 C165.082137,303.783293 164.782998,303.818511 164.486118,303.818511 L164.486118,303.818511 Z" id="Fill-62" fill="#2E394C"></path>
                    <path d="M204.046985,121.716257 C203.561675,121.716257 203.074557,121.692778 202.583825,121.644014 C197.513825,121.138312 193.181731,117.989866 189.707742,112.286723 C181.654033,99.0666825 187.287065,83.3384509 190.082795,77.1896579 C194.421667,67.6458894 201.037972,60.1204133 205.814255,59.2954871 L206.19925,61.5205754 C202.726164,62.1201933 196.517448,68.4942946 192.139263,78.1234003 C189.492651,83.9452932 184.145202,98.81338 191.637686,111.113224 C194.721258,116.175661 198.477667,118.962439 202.801175,119.396801 C211.719314,120.283586 220.425073,111.026532 220.512284,110.933519 L222.170653,112.465976 C221.805089,112.861959 213.503303,121.716257 204.046985,121.716257" id="Fill-64" fill="#2E394C"></path>
                    <path d="M278.071832,176.647311 C275.985992,176.647311 273.474941,176.310929 271.576629,175.006941 C270.333982,174.153569 269.615506,172.9593 269.498471,171.554171 C269.216503,168.161001 272.404909,164.313603 275.129244,161.683502 L275.450524,161.374211 C279.814249,157.170564 283.936674,153.199902 280.90823,141.097823 C277.807939,128.70587 256.040829,117.380405 255.82122,117.267525 L256.855102,115.260521 C257.788217,115.740035 279.752343,127.167091 283.100711,140.55013 C286.445466,153.919172 281.653367,158.535508 277.018519,162.99923 L276.699498,163.307166 C273.393605,166.498055 271.589733,169.436093 271.750599,171.367242 C271.811602,172.104573 272.163158,172.669876 272.856329,173.146229 C275.888388,175.22954 281.495211,174.072295 281.551244,174.059653 L282.023449,176.267132 C281.887888,176.29648 280.201955,176.647311 278.071832,176.647311" id="Fill-66" fill="#2E394C"></path>
                    <path d="M210.170207,218.722836 L268.617095,218.722836 C272.244721,218.722836 275.212614,215.757256 275.212614,212.132457 L258.220884,112.858663 C258.220884,109.233864 255.252991,106.267832 251.624913,106.267832 L224.49228,106.267832 C220.864654,106.267832 217.896761,109.233864 217.896761,112.858663 L203.574689,212.132457 C203.574689,215.757256 206.543034,218.722836 210.170207,218.722836" id="Fill-68" fill="#FEFEFE"></path>
                    <path d="M204.70491,212.209757 C204.746482,215.186174 207.182071,217.594128 210.170298,217.594128 L268.616734,217.594128 C271.600442,217.594128 274.033319,215.193399 274.082121,212.223755 L257.091295,112.954475 L257.091295,112.858753 C257.091295,109.847118 254.638988,107.396721 251.625004,107.396721 L224.49237,107.396721 C221.478386,107.396721 219.026079,109.847118 219.026079,112.858753 L219.014782,113.019494 L204.70491,212.209757 Z M268.616734,219.851726 L210.170298,219.851726 C205.910504,219.851726 202.4451,216.389022 202.4451,212.132548 L202.456397,211.971807 L216.767172,112.774319 C216.812811,108.556675 220.260592,105.139124 224.49237,105.139124 L251.625004,105.139124 C255.851359,105.139124 259.296429,108.548096 259.350202,112.758967 L276.342383,212.036825 L276.342383,212.132548 C276.342383,216.389022 272.876528,219.851726 268.616734,219.851726 L268.616734,219.851726 Z" id="Fill-70" fill="#2E394C"></path>
                    <polyline id="Fill-72" fill="#2E394C" points="242.482104 106.633111 245.033371 113.609991 240.46766 117.471386 240.46766 175.865505 232.813858 183.646993 226.234606 175.865505 235.633989 117.471386 230.799866 109.450593 235.633989 105.693951"></polyline>
                    <path d="M207.180534,311.813929 L204.931569,311.597651 L210.302516,255.782612 C210.31336,255.672441 210.339569,255.564528 210.382045,255.462033 L225.189427,219.394201 L227.279334,220.251636 L212.535665,256.165049 L207.180534,311.813929 Z" id="Fill-74" fill="#2E394C"></path>
                    <path d="M268.0786,311.813929 L262.723017,256.165049 L247.979348,220.251636 L250.069255,219.394201 L264.876637,255.462033 C264.919113,255.564528 264.945322,255.672441 264.956167,255.782612 L270.327565,311.597651 L268.0786,311.813929 Z" id="Fill-76" fill="#2E394C"></path>
                    <path d="M217.864814,71.3793239 C214.827332,88.0981893 222.501017,103.490942 235.004306,105.758924 C247.507594,108.026456 260.105324,96.3113297 263.142806,79.5915612 C266.180287,62.8722443 258.506602,47.4799433 246.003314,45.2124122 C233.500477,42.9444295 220.902295,54.6600069 217.864814,71.3793239" id="Fill-78" fill="#FAB77C"></path>
                    <path d="M242.882778,46.0607271 C232.017976,46.0607271 221.657915,56.8186315 218.976508,71.5810628 C217.550401,79.4289239 218.488939,87.208154 221.617698,93.4847271 C224.692233,99.6520324 229.518222,103.616825 235.205931,104.648096 C236.17881,104.824189 237.154401,104.910429 238.125022,104.910429 C248.989824,104.911784 259.349433,94.1525245 262.031292,79.3900932 C263.456947,71.5422321 262.518861,63.763002 259.38965,57.4859774 C256.315567,51.3191236 251.489578,47.3543305 245.801869,46.3230599 C244.82899,46.1465158 243.852947,46.0607271 242.882778,46.0607271 M238.101524,107.166221 C237.00438,107.166221 235.904072,107.069144 234.802409,106.869572 C228.395773,105.707812 222.995455,101.311367 219.595572,94.4916156 C216.250367,87.7815838 215.240885,79.5016185 216.7533,71.1778559 L217.864904,71.3792336 L216.7533,71.1778559 C219.896971,53.8733696 233.108343,41.7293001 246.205391,44.1015838 C252.611575,45.2633436 258.011893,49.6597893 261.412228,56.4790889 C264.756982,63.1895722 265.766915,71.4686344 264.2545,79.7933001 C261.375174,95.6429904 250.047655,107.164866 238.101524,107.166221" id="Fill-80" fill="#2E394C"></path>
                    <path d="M253.358338,85.2679745 L235.633672,87.8596967 C235.633672,87.8596967 238.011421,96.7153493 244.496231,95.6353146 C250.98059,94.5552799 253.358338,85.2679745 253.358338,85.2679745" id="Fill-82" fill="#2E394C"></path>
                    <path d="M76.4223422,161.905921 L162.252652,161.905921 C162.252652,161.905921 167.43788,170.414355 156.203898,170.414355 L80.743139,170.414355 C80.743139,170.414355 73.6568877,167.578361 76.4223422,161.905921" id="Fill-84" fill="#FEFEFE"></path>
                    <path d="M80.982134,169.285421 L156.203853,169.285421 C158.336687,169.285421 161.070059,168.949038 161.97561,167.347499 C162.71442,166.04035 162.090385,164.116876 161.575252,163.034584 L77.1701447,163.034584 C76.8289816,164.000836 76.8244628,164.894393 77.154781,165.750023 C77.922511,167.738063 80.3047783,168.969357 80.982134,169.285421 M156.203853,171.543018 L80.5248398,171.543018 L80.3228532,171.461745 C80.1597275,171.396726 76.3052623,169.822277 75.0467997,166.562758 C74.4159869,164.928709 74.5366366,163.195777 75.4069414,161.411823 L75.7164735,160.776986 L162.887487,160.776986 L163.217805,161.31881 C163.318572,161.484066 165.662883,165.399192 163.94803,168.448303 C162.793498,170.501814 160.188006,171.543018 156.203853,171.543018" id="Fill-86" fill="#2E394C"></path>
                    <path d="M16.6958896,127.276043 C16.6958896,136.760662 24.390812,144.449588 33.8832799,144.449588 C43.3757479,144.449588 51.0706703,136.760662 51.0706703,127.276043 C51.0706703,117.790972 43.3757479,110.102046 33.8832799,110.102046 C24.390812,110.102046 16.6958896,117.790972 16.6958896,127.276043" id="Fill-88" fill="#F8EFD7"></path>
                    <path d="M33.8833251,111.230799 C25.0289,111.230799 17.8256139,118.428472 17.8256139,127.275998 C17.8256139,136.123071 25.0289,143.320744 33.8833251,143.320744 C42.7377503,143.320744 49.9410364,136.123071 49.9410364,127.275998 C49.9410364,118.428472 42.7377503,111.230799 33.8833251,111.230799 M33.8833251,145.578342 C23.7830898,145.578342 15.5662556,137.368362 15.5662556,127.275998 C15.5662556,117.184085 23.7830898,108.973202 33.8833251,108.973202 C43.9835604,108.973202 52.2003947,117.184085 52.2003947,127.275998 C52.2003947,137.368362 43.9835604,145.578342 33.8833251,145.578342" id="Fill-90" fill="#2E394C"></path>
                    <path d="M30.1236174,123.519265 C30.1236174,125.890194 32.047235,127.812764 34.420465,127.812764 C36.7936949,127.812764 38.7173126,125.890194 38.7173126,123.519265 C38.7173126,121.147884 36.7936949,119.225314 34.420465,119.225314 C32.047235,119.225314 30.1236174,121.147884 30.1236174,123.519265" id="Fill-92" fill="#FEFEFE"></path>
                    <path d="M34.4203746,120.354203 C32.6743425,120.354203 31.2532061,121.774232 31.2532061,123.519355 C31.2532061,125.264027 32.6743425,126.684056 34.4203746,126.684056 C36.1664067,126.684056 37.587543,125.264027 37.587543,123.519355 C37.587543,121.774232 36.1664067,120.354203 34.4203746,120.354203 M34.4203746,128.941653 C31.4280805,128.941653 28.9938479,126.509318 28.9938479,123.519355 C28.9938479,120.529393 31.4280805,118.096605 34.4203746,118.096605 C37.4126687,118.096605 39.8469013,120.529393 39.8469013,123.519355 C39.8469013,126.509318 37.4126687,128.941653 34.4203746,128.941653" id="Fill-94" fill="#2E394C"></path>
                    <path d="M44.7595596,136.265436 C44.7595596,136.265436 34.5544901,127.677986 23.1411158,136.935942" id="Fill-96" fill="#F8EFD7"></path>
                    <path d="M23.8529944,137.812658 L22.4295987,136.059407 C34.4281468,126.326904 45.3779008,135.310788 45.4872537,135.401995 L44.0335826,137.130412 C43.6445211,136.806221 34.3797965,129.274423 23.8529944,137.812658" id="Fill-98" fill="#2E394C"></path>
                    <g id="Group" transform="translate(70.197313, 46.672130)" fill="#27A0C4">
                        <polygon id="Fill-100" points="1.31313904 66.3938258 -1.27897692e-13 64.5570443 45.0439225 32.4120139 56.7446872 36.2264509 75.2560615 17.784587 86.4285882 27.3536405 103.320455 5.6518055 105.103992 7.03797048 86.7570989 30.6086449 75.3717406 20.8567259 57.3596845 38.8014669 45.4284652 34.9120776"></polygon>
                        <path d="M103.654117,7.06221708 C100.341445,7.47580897 95.9650684,5.49950796 93.3514428,3.58551664 C98.7711914,3.7002026 104.34774,2.70911722 109.151135,0 C107.634654,5.26336324 108.340478,10.9023907 109.562339,16.1842663 C106.995707,13.8372677 104.192296,10.5863271 103.654117,7.06221708" id="Fill-102"></path>
                    </g>
                    <g id="Group-130" transform="translate(68.097375, 18.777749)">
                        <path d="M109.908291,14.4772967 L4.09937968,14.4772967 L109.908291,14.4772967 Z" id="Fill-104" fill="#FEFEFE"></path>
                        <polygon id="Fill-106" fill="#2E394C" points="4.09937968 14.9285904 109.908291 14.9285904 109.908291 14.0255514 4.09937968 14.0255514"></polygon>
                        <line x1="0.339581551" y1="32.1879699" x2="113.66809" y2="32.1879699" id="Fill-108" fill="#FEFEFE"></line>
                        <polygon id="Fill-109" fill="#2E394C" points="0.339355615 32.6394443 113.667864 32.6394443 113.667864 31.7364052 0.339355615 31.7364052"></polygon>
                        <line x1="4.0992893" y1="48.2883438" x2="109.908201" y2="48.2883438" id="Fill-110" fill="#FEFEFE"></line>
                        <polygon id="Fill-111" fill="#2E394C" points="4.09937968 48.7397279 109.908291 48.7397279 109.908291 47.8366889 4.09937968 47.8366889"></polygon>
                        <line x1="109.908291" y1="65.4623861" x2="4.09937968" y2="65.4623861" id="Fill-112" fill="#FEFEFE"></line>
                        <polygon id="Fill-113" fill="#2E394C" points="4.09937968 65.913725 109.908291 65.913725 109.908291 65.010686 4.09937968 65.010686"></polygon>
                        <line x1="0.339581551" y1="83.1730593" x2="113.66809" y2="83.1730593" id="Fill-114" fill="#FEFEFE"></line>
                        <polygon id="Fill-115" fill="#2E394C" points="0.339355615 83.6245789 113.667864 83.6245789 113.667864 82.7215398 0.339355615 82.7215398"></polygon>
                        <line x1="4.0992893" y1="99.2734333" x2="109.908201" y2="99.2734333" id="Fill-116" fill="#FEFEFE"></line>
                        <polygon id="Fill-117" fill="#2E394C" points="4.09937968 99.7248625 109.908291 99.7248625 109.908291 98.8218234 4.09937968 98.8218234"></polygon>
                        <line x1="99.4349457" y1="109.738663" x2="99.4349457" y2="4.0122026" id="Fill-118" fill="#FEFEFE"></line>
                        <polygon id="Fill-119" fill="#2E394C" points="98.9829385 109.738663 99.8866818 109.738663 99.8866818 4.0122026 98.9829385 4.0122026"></polygon>
                        <line x1="81.7104607" y1="0.255289146" x2="81.7104607" y2="113.495486" id="Fill-120" fill="#FEFEFE"></line>
                        <polygon id="Fill-121" fill="#2E394C" points="81.2587246 113.495305 82.1624679 113.495305 82.1624679 0.255108538 81.2587246 0.255108538"></polygon>
                        <line x1="65.5975307" y1="4.01206715" x2="65.5975307" y2="109.738527" id="Fill-122" fill="#FEFEFE"></line>
                        <polygon id="Fill-123" fill="#2E394C" points="65.1454332 109.738663 66.0491765 109.738663 66.0491765 4.0122026 65.1454332 4.0122026"></polygon>
                        <line x1="48.41005" y1="109.738663" x2="48.41005" y2="4.0122026" id="Fill-124" fill="#FEFEFE"></line>
                        <polygon id="Fill-125" fill="#2E394C" points="47.9580428 109.738663 48.8617861 109.738663 48.8617861 4.0122026 47.9580428 4.0122026"></polygon>
                        <line x1="30.685565" y1="0.255289146" x2="30.685565" y2="113.495486" id="Fill-126" fill="#FEFEFE"></line>
                        <polygon id="Fill-127" fill="#2E394C" points="30.2338289 113.495305 31.1375722 113.495305 31.1375722 0.255108538 30.2338289 0.255108538"></polygon>
                        <line x1="14.572635" y1="4.01206715" x2="14.572635" y2="109.738527" id="Fill-128" fill="#FEFEFE"></line>
                        <polygon id="Fill-129" fill="#2E394C" points="14.1209893 109.738663 15.0247326 109.738663 15.0247326 4.0122026 14.1209893 4.0122026"></polygon>
                    </g>
                    <path d="M16.6958896,79.4101407 C16.6958896,88.8947601 24.390812,96.5836863 33.8832799,96.5836863 C43.3757479,96.5836863 51.0706703,88.8947601 51.0706703,79.4101407 C51.0706703,69.9250698 43.3757479,62.2361436 33.8832799,62.2361436 C24.390812,62.2361436 16.6958896,69.9250698 16.6958896,79.4101407" id="Fill-131" fill="#FCF8F1"></path>
                    <path d="M33.8833251,63.3648521 C25.0289,63.3648521 17.8256139,70.562525 17.8256139,79.4100504 C17.8256139,88.2571242 25.0289,95.4547971 33.8833251,95.4547971 C42.7377503,95.4547971 49.9410364,88.2571242 49.9410364,79.4100504 C49.9410364,70.562525 42.7377503,63.3648521 33.8833251,63.3648521 M33.8833251,97.7123948 C23.7830898,97.7123948 15.5662556,89.5024151 15.5662556,79.4100504 C15.5662556,69.3181372 23.7830898,61.1072544 33.8833251,61.1072544 C43.9835604,61.1072544 52.2003947,69.3181372 52.2003947,79.4100504 C52.2003947,89.5024151 43.9835604,97.7123948 33.8833251,97.7123948" id="Fill-133" fill="#2E394C"></path>
                    <path d="M30.1236174,75.6533175 C30.1236174,78.0242466 32.047235,79.9468168 34.420465,79.9468168 C36.7936949,79.9468168 38.7173126,78.0242466 38.7173126,75.6533175 C38.7173126,73.2819369 36.7936949,71.3593667 34.420465,71.3593667 C32.047235,71.3593667 30.1236174,73.2819369 30.1236174,75.6533175" id="Fill-135" fill="#FEFEFE"></path>
                    <path d="M34.4203746,72.488301 C32.6743425,72.488301 31.2532061,73.90833 31.2532061,75.653453 C31.2532061,77.3981245 32.6743425,78.8181534 34.4203746,78.8181534 C36.1664067,78.8181534 37.587543,77.3981245 37.587543,75.653453 C37.587543,73.90833 36.1664067,72.488301 34.4203746,72.488301 M34.4203746,81.0757511 C31.4280805,81.0757511 28.9938479,78.6434153 28.9938479,75.653453 C28.9938479,72.6634906 31.4280805,70.2307033 34.4203746,70.2307033 C37.4126687,70.2307033 39.8469013,72.6634906 39.8469013,75.653453 C39.8469013,78.6434153 37.4126687,81.0757511 34.4203746,81.0757511" id="Fill-137" fill="#2E394C"></path>
                    <path d="M44.7595596,88.3994883 C44.7595596,88.3994883 34.5544901,79.8124897 23.1411158,89.0699948" id="Fill-139" fill="#F8EFD7"></path>
                    <path d="M23.8529944,89.9467554 L22.4295987,88.1935051 C34.4281468,78.461453 45.3779008,87.4444342 45.4872537,87.5360926 L44.0335826,89.2645094 C43.644973,88.9398669 34.3802484,81.4080695 23.8529944,89.9467554" id="Fill-141" fill="#2E394C"></path>
                    <path d="M16.6958896,33.255046 C16.6958896,42.7401169 24.390812,50.4290431 33.8832799,50.4290431 C43.3757479,50.4290431 51.0706703,42.7401169 51.0706703,33.255046 C51.0706703,23.7704266 43.3757479,16.0815004 33.8832799,16.0815004 C24.390812,16.0815004 16.6958896,23.7704266 16.6958896,33.255046" id="Fill-143" fill="#E4EBF7"></path>
                    <path d="M33.8833251,17.210209 C25.0289,17.210209 17.8256139,24.4078819 17.8256139,33.2549557 C17.8256139,42.102481 25.0289,49.300154 33.8833251,49.300154 C42.7377503,49.300154 49.9410364,42.102481 49.9410364,33.2549557 C49.9410364,24.4078819 42.7377503,17.210209 33.8833251,17.210209 M33.8833251,51.5577517 C23.7830898,51.5577517 15.5662556,43.3473204 15.5662556,33.2549557 C15.5662556,23.1630425 23.7830898,14.9526113 33.8833251,14.9526113 C43.9835604,14.9526113 52.2003947,23.1630425 52.2003947,33.2549557 C52.2003947,43.3473204 43.9835604,51.5577517 33.8833251,51.5577517" id="Fill-145" fill="#2E394C"></path>
                    <path d="M30.1236174,29.498268 C30.1236174,31.8696486 32.047235,33.7917673 34.420465,33.7917673 C36.7936949,33.7917673 38.7173126,31.8696486 38.7173126,29.498268 C38.7173126,27.1273389 36.7936949,25.2047687 34.420465,25.2047687 C32.047235,25.2047687 30.1236174,27.1273389 30.1236174,29.498268" id="Fill-147" fill="#FEFEFE"></path>
                    <path d="M34.4203746,26.3336579 C32.6743425,26.3336579 31.2532061,27.7536868 31.2532061,29.4983583 C31.2532061,31.2430298 32.6743425,32.6630588 34.4203746,32.6630588 C36.1664067,32.6630588 37.587543,31.2430298 37.587543,29.4983583 C37.587543,27.7536868 36.1664067,26.3336579 34.4203746,26.3336579 M34.4203746,34.9206564 C31.4280805,34.9206564 28.9938479,32.4883207 28.9938479,29.4983583 C28.9938479,26.5083959 31.4280805,24.0760602 34.4203746,24.0760602 C37.4126687,24.0760602 39.8469013,26.5083959 39.8469013,29.4983583 C39.8469013,32.4883207 37.4126687,34.9206564 34.4203746,34.9206564" id="Fill-149" fill="#2E394C"></path>
                    <path d="M44.7595596,42.2444388 C44.7595596,42.2444388 34.5544901,33.6574402 23.1411158,42.9153968" id="Fill-151" fill="#F8EFD7"></path>
                    <path d="M23.8529944,43.7921123 L22.4295987,42.0388619 C34.427243,32.3077129 45.3779008,41.289791 45.4872537,41.380998 L44.0335826,43.1094148 C43.6445211,42.7852237 34.3797965,35.2538779 23.8529944,43.7921123" id="Fill-153" fill="#2E394C"></path>
                </g>
                <polyline id="Fill-6" fill="#2E394C" points="89.6691406 136.399492 92.0279107 141.731937 90.3098947 145.197801 96.103793 199.274039 90.3098947 208.119307 83.8775016 197.721263 87.2764802 147.119469 84.2426139 139.598959 84.2249909 139.081969"></polyline>
                <path d="M178.842307,301.409158 L177.96432,301.409158 C176.721673,301.409158 175.704962,300.393239 175.704962,299.15156 L175.704962,203.858362 C175.704962,202.616683 176.721673,201.600764 177.96432,201.600764 L178.842307,201.600764 C180.084954,201.600764 181.101665,202.616683 181.101665,203.858362 L181.101665,299.15156 C181.101665,300.393239 180.084954,301.409158 178.842307,301.409158" id="Fill-8" fill="#E9F1F3"></path>
                <path d="M178.842307,301.409158 L177.96432,301.409158 C176.721673,301.409158 175.704962,300.393239 175.704962,299.15156 L175.704962,203.858362 C175.704962,202.616683 176.721673,201.600764 177.96432,201.600764 L178.842307,201.600764 C180.084954,201.600764 181.101665,202.616683 181.101665,203.858362 L181.101665,299.15156 C181.101665,300.393239 180.084954,301.409158 178.842307,301.409158 Z" id="Stroke-10" stroke="#2E394C" stroke-width="2.25935829"></path>
                <path d="M87.0025104,302.79013 L93.5591682,301.218391 C94.6870398,300.947931 95.3883447,299.804683 95.1176735,298.678142 L81.3075719,241.163132 C81.0369008,240.036139 79.8932136,239.335381 78.765342,239.605841 L72.2091361,241.17758 C71.0812644,241.448041 70.3795078,242.591288 70.6501789,243.718281 L84.4602805,301.232839 C84.7309516,302.359832 85.8750906,303.06059 87.0025104,302.79013" id="Fill-12" fill="#E9F1F3"></path>
                <path d="M87.0025104,302.79013 L93.5591682,301.218391 C94.6870398,300.947931 95.3883447,299.804683 95.1176735,298.678142 L81.3075719,241.163132 C81.0369008,240.036139 79.8932136,239.335381 78.765342,239.605841 L72.2091361,241.17758 C71.0812644,241.448041 70.3795078,242.591288 70.6501789,243.718281 L84.4602805,301.232839 C84.7309516,302.359832 85.8750906,303.06059 87.0025104,302.79013 Z" id="Stroke-14" stroke="#2E394C" stroke-width="2.25935829"></path>
                <path d="M48.2236078,172.815129 C48.2236078,172.815129 60.1525676,123.20442 71.1203965,126.799419 C82.0873217,130.394417 89.0145142,131.472646 89.2065596,140.820003 C89.399057,150.166909 90.1685944,218.83084 90.1685944,218.83084 L51.109712,218.83084 C51.109712,218.83084 38.4871291,203.327465 48.2236078,172.815129" id="Fill-16" fill="#27A0C4"></path>
                <path d="M48.2236078,172.815129 C48.2236078,172.815129 60.1525676,123.20442 71.1203965,126.799419 C82.0873217,130.394417 89.0145142,131.472646 89.2065596,140.820003 C89.399057,150.166909 90.1685944,218.83084 90.1685944,218.83084 L51.109712,218.83084 C51.109712,218.83084 38.4871291,203.327465 48.2236078,172.815129 Z" id="Stroke-18" stroke="#2E394C" stroke-width="2.25935829"></path>
                <path d="M29.0543535,302.79013 L22.4981476,301.218391 C21.3702759,300.947931 20.6689711,299.804683 20.9396422,298.678142 L34.7497439,241.163132 C35.0199631,240.036139 36.1641021,239.335381 37.2919738,239.605841 L43.8481797,241.17758 C44.9760513,241.448041 45.6773561,242.591288 45.406685,243.718281 L31.5970353,301.232839 C31.3263642,302.359832 30.1822251,303.06059 29.0543535,302.79013" id="Fill-20" fill="#E9F1F3"></path>
                <path d="M29.0543535,302.79013 L22.4981476,301.218391 C21.3702759,300.947931 20.6689711,299.804683 20.9396422,298.678142 L34.7497439,241.163132 C35.0199631,240.036139 36.1641021,239.335381 37.2919738,239.605841 L43.8481797,241.17758 C44.9760513,241.448041 45.6773561,242.591288 45.406685,243.718281 L31.5970353,301.232839 C31.3263642,302.359832 30.1822251,303.06059 29.0543535,302.79013 Z" id="Stroke-22" stroke="#2E394C" stroke-width="2.25935829"></path>
                <path d="M104.509871,247.144321 C104.509871,247.144321 105.684286,209.010335 77.5015021,209.596859 C49.3191706,210.183834 44.9156813,209.590086 44.9156813,209.590086 L29.0631198,168.235863 C29.0631198,168.235863 27.8891572,157.969212 16.1463684,157.969212 C4.40357968,157.969212 9.03743316e-05,162.956245 9.03743316e-05,162.956245 L15.8526519,228.957114 C15.8526519,228.957114 19.9628765,250.077392 47.5582267,249.784355 C75.1531251,249.490868 104.509871,247.144321 104.509871,247.144321" id="Fill-24" fill="#E9F1F3"></path>
                <path d="M104.509871,247.144321 C104.509871,247.144321 105.684286,209.010335 77.5015021,209.596859 C49.3191706,210.183834 44.9156813,209.590086 44.9156813,209.590086 L29.0631198,168.235863 C29.0631198,168.235863 27.8891572,157.969212 16.1463684,157.969212 C4.40357968,157.969212 9.03743316e-05,162.956245 9.03743316e-05,162.956245 L15.8526519,228.957114 C15.8526519,228.957114 19.9628765,250.077392 47.5582267,249.784355 C75.1531251,249.490868 104.509871,247.144321 104.509871,247.144321 Z" id="Stroke-26" stroke="#2E394C" stroke-width="2.25935829"></path>
                <path d="M100.691013,227.487373 C100.691013,227.487373 121.198757,220.477532 124.436417,227.487373 C127.674529,234.497213 147.24012,299.746302 147.24012,299.746302" id="Stroke-28" stroke="#2E394C" stroke-width="2.25935829"></path>
                <line x1="128.28302" y1="239.395749" x2="126.595279" y2="301.409248" id="Stroke-30" stroke="#2E394C" stroke-width="2.25935829"></line>
                <path d="M113.542469,301.409158 L112.664483,301.409158 C111.421836,301.409158 110.405124,300.393239 110.405124,299.15156 L110.405124,203.858362 C110.405124,202.616683 111.421836,201.600764 112.664483,201.600764 L113.542469,201.600764 C114.785116,201.600764 115.801828,202.616683 115.801828,203.858362 L115.801828,299.15156 C115.801828,300.393239 114.785116,301.409158 113.542469,301.409158" id="Fill-32" fill="#E9F1F3"></path>
                <path d="M113.542469,301.409158 L112.664483,301.409158 C111.421836,301.409158 110.405124,300.393239 110.405124,299.15156 L110.405124,203.858362 C110.405124,202.616683 111.421836,201.600764 112.664483,201.600764 L113.542469,201.600764 C114.785116,201.600764 115.801828,202.616683 115.801828,203.858362 L115.801828,299.15156 C115.801828,300.393239 114.785116,301.409158 113.542469,301.409158 Z" id="Stroke-34" stroke="#2E394C" stroke-width="2.25935829"></path>
                <path d="M106.76218,197.82597 L182.919726,197.82597 C182.919726,197.82597 187.520683,205.375377 177.552394,205.375377 L110.595859,205.375377 C110.595859,205.375377 104.308065,202.858607 106.76218,197.82597" id="Fill-36" fill="#E9F1F3"></path>
                <path d="M106.76218,197.82597 L182.919726,197.82597 C182.919726,197.82597 187.520683,205.375377 177.552394,205.375377 L110.595859,205.375377 C110.595859,205.375377 104.308065,202.858607 106.76218,197.82597 Z" id="Stroke-38" stroke="#2E394C" stroke-width="2.25935829"></path>
                <path d="M162.604932,186.448039 L184.298386,150.113811 C184.579902,149.641973 185.09594,149.359773 185.645867,149.377834 L191.439314,151.201973 C192.035784,151.221388 192.384629,151.881961 192.064252,152.385405 L167.093825,191.623356 C166.80553,192.07623 166.30576,192.349851 165.768937,192.349851 L128.02726,192.349851 C127.780087,192.349851 127.542402,192.249614 127.370239,192.071264 L121.73314,186.23718 L162.604932,186.448039 Z" id="Fill-40" fill="#F1F1F1"></path>
                <path d="M162.604932,186.448039 L184.298386,150.113811 C184.579902,149.641973 185.09594,149.359773 185.645867,149.377834 L191.439314,151.201973 C192.035784,151.221388 192.384629,151.881961 192.064252,152.385405 L167.093825,191.623356 C166.80553,192.07623 166.30576,192.349851 165.768937,192.349851 L128.02726,192.349851 C127.780087,192.349851 127.542402,192.249614 127.370239,192.071264 L121.73314,186.23718 L162.604932,186.448039 Z" id="Stroke-42" stroke="#2E394C" stroke-width="2.25935829"></path>
                <path d="M63.6397516,102.497147 C60.635257,119.037211 68.2262489,134.264256 80.5953318,136.507856 C92.9644147,138.751457 105.427939,127.161854 108.432433,110.621338 C111.436928,94.0812747 103.845936,78.8542298 91.4768532,76.6106292 C79.1073184,74.3670287 66.6442463,85.9566321 63.6397516,102.497147" id="Fill-44" fill="#FAB77C"></path>
                <path d="M63.6397516,102.497147 C60.635257,119.037211 68.2262489,134.264256 80.5953318,136.507856 C92.9644147,138.751457 105.427939,127.161854 108.432433,110.621338 C111.436928,94.0812747 103.845936,78.8542298 91.4768532,76.6106292 C79.1073184,74.3670287 66.6442463,85.9566321 63.6397516,102.497147 Z" id="Stroke-46" stroke="#2E394C" stroke-width="2.25935829"></path>
                <path d="M90.9749142,125.737174 C90.9749142,125.737174 83.4720372,125.197608 83.3432537,117.98955" id="Stroke-48" stroke="#2E394C" stroke-width="2.25935829" stroke-linecap="round"></path>
                <path d="M69.0304449,154.250362 C69.0304449,154.250362 81.9824422,193.407942 116.161563,177.949268 C150.340231,162.491045 159.335188,171.47809 159.335188,171.47809" id="Stroke-50" stroke="#2E394C" stroke-width="2.25935829"></path>
            </g>
        </g>
    </g>
</svg>