<?xml version="1.0" encoding="UTF-8"?>
<svg width="110px" height="97px" viewBox="0 0 110 97" version="1.1" xmlns="http://www.w3.org/2000/svg" xmlns:xlink="http://www.w3.org/1999/xlink">
    <title>icon-comission</title>
    <g id="NEw" stroke="none" stroke-width="1" fill="none" fill-rule="evenodd">
        <g id="Referral-program" transform="translate(-301.000000, -2643.000000)">
            <g id="icon-comission" transform="translate(303.000000, 2645.000000)">
                <circle id="Oval" fill="#ADE7FF" cx="72.5" cy="46.5" r="35.5"></circle>
                <g id="Group-68" stroke="#265A6E" stroke-linecap="round" stroke-linejoin="round" stroke-width="4">
                    <path d="M66.6972,79.5076 L83.8212,71.7916 C90.0372,68.9916 93.9412,77.9956 88.0612,80.6436 C62.0532,92.3596 64.1012,92.4276 53.7612,92.4276 C47.7652,92.4276 38.8852,91.4916 27.5212,86.4676 C23.9652,84.8996 17.1372,87.4356 8.8492,89.5276 C6.2492,90.1876 3.5892,88.6596 2.8692,86.0916 C2.3532,84.2476 0.2812,77.8756 0.6252,76.1756 C1.0492,74.0716 2.7092,72.5716 4.7052,72.2556 C11.2332,71.2236 31.0292,67.3356 41.5812,70.3956 L63.5572,76.7676 C69.8252,78.5876 67.0492,87.9916 60.7812,86.1716 L37.6932,79.4756" id="Stroke-2458"></path>
                    <path d="M84.8536,63.832 C85.0896,62.984 85.2256,62.08 85.2576,61.108 C85.7496,45.008 64.0576,16.428 64.0576,16.428 C63.8136,13.308 71.6976,0.536 71.6976,0.536 L36.6016,0.536 C36.6016,0.536 44.4896,13.308 44.2416,16.428 C44.2416,16.428 22.5536,44.96 23.0456,61.064 C23.0616,61.52 23.1016,61.964 23.1616,62.392" id="Stroke-2459"></path>
                    <path d="M26.8048,23.0956 C26.8048,23.0956 30.1968,26.3836 34.6328,21.7796 C39.0648,17.1796 38.0808,16.4196 44.2408,16.5236 L64.0568,16.5236 C64.0568,16.5236 71.1888,15.0636 73.6528,19.3356 C76.1208,23.6076 75.2168,26.8956 78.6648,28.7836" id="Stroke-2460"></path>
                    <path d="M46.6932,56.328 C48.7652,58.132 51.9612,59.488 54.2692,59.488 C57.9572,59.488 60.9492,56.872 60.9492,53.644 C60.9492,50.416 57.7572,48.82 54.2692,47.8 C50.6532,46.664 47.5852,45.184 47.5852,41.956 C47.5852,38.728 50.5772,36.112 54.2692,36.112 C56.7532,36.112 58.9212,37.3 60.0732,39.06" id="Stroke-2461"></path>
                    <line x1="54.2676" y1="31.7676" x2="54.2676" y2="63.8316" id="Stroke-2462"></line>
                </g>
            </g>
        </g>
    </g>
</svg>