<?xml version="1.0" encoding="UTF-8"?>
<svg width="97px" height="104px" viewBox="0 0 97 104" version="1.1" xmlns="http://www.w3.org/2000/svg" xmlns:xlink="http://www.w3.org/1999/xlink">
    <title>icon-paid</title>
    <g id="NEw" stroke="none" stroke-width="1" fill="none" fill-rule="evenodd">
        <g id="Referral-program" transform="translate(-654.000000, -2636.000000)">
            <g id="icon-paid" transform="translate(656.000000, 2638.000000)">
                <circle id="Oval" fill="#ADE7FF" cx="46.5" cy="66.5" r="35.5"></circle>
                <g id="Group-88" stroke="#265A6E" stroke-linecap="round" stroke-linejoin="round" stroke-width="4">
                    <polygon id="Stroke-1917" points="0.976 92.576 80.976 92.576 80.976 48.576 0.976 48.576"></polygon>
                    <polyline id="Stroke-1918" points="84.9764 40.578 92.9764 40.578 92.9764 84.578 87.1444 84.578"></polyline>
                    <polyline id="Stroke-1919" points="16.9764 42.6404 16.9764 40.5764 50.6924 40.5764"></polyline>
                    <polyline id="Stroke-1920" points="8.9764 42.6404 8.9684 32.4724 28.6724 32.4724"></polyline>
                    <path d="M33.754,78.1052 C35.754,79.7332 38.842,80.9572 41.074,80.9572 C44.638,80.9572 47.53,78.5932 47.53,75.6812 C47.53,72.7692 44.442,71.3252 41.074,70.4052 C37.582,69.3812 34.614,68.0412 34.614,65.1292 C34.614,62.2132 37.506,59.8532 41.074,59.8532 C43.474,59.8532 45.57,60.9252 46.682,62.5132" id="Stroke-1921"></path>
                    <line x1="41.0724" y1="56.9704" x2="41.0724" y2="83.8384" id="Stroke-1922"></line>
                    <path d="M84.0216,29.2284 C82.5336,37.9084 74.2936,43.7444 65.6136,42.2564 C56.9336,40.7724 51.0976,32.5284 52.5856,23.8484 C54.0696,15.1684 62.3136,9.3324 70.9936,10.8204 C79.6736,12.3084 85.5096,20.5484 84.0216,29.2284 Z" id="Stroke-1923"></path>
                    <path d="M62.8828,31.4548 C64.0508,32.8868 66.0188,34.1468 67.5468,34.4068 C69.9908,34.8268 72.2748,33.4348 72.6388,31.2908 C73.0068,29.1548 71.0668,27.7348 68.8708,26.6628 C66.6028,25.4988 64.7388,24.1708 65.1068,22.0308 C65.4708,19.8908 67.7508,18.4948 70.1988,18.9148 C71.8468,19.1988 73.1468,20.2308 73.7148,21.5268" id="Stroke-1924"></path>
                    <line x1="70.5604" y1="16.7988" x2="70.1964" y2="18.9148" id="Stroke-1925"></line>
                    <line x1="67.5468" y1="34.408" x2="67.1828" y2="36.524" id="Stroke-1926"></line>
                    <path d="M52.758,30.1092 C49.566,32.1052 45.658,32.9852 41.654,32.3132 C32.97,30.8532 27.114,22.6252 28.578,13.9412 C30.038,5.2532 38.266,-0.6028 46.95,0.8612 C53.466,1.9572 58.386,6.8612 59.822,12.9052" id="Stroke-1927"></path>
                    <path d="M38.8964,21.5176 C40.0684,22.9456 42.0364,24.2016 43.5684,24.4576 C46.0164,24.8696 48.2924,23.4696 48.6524,21.3296 C49.0124,19.1896 47.0724,17.7736 44.8724,16.7096 C42.6004,15.5536 40.7324,14.2296 41.0924,12.0896 C41.4524,9.9456 43.7284,8.5456 46.1764,8.9576 C47.8244,9.2376 49.1324,10.2656 49.7004,11.5616" id="Stroke-1928"></path>
                    <line x1="46.5332" y1="6.8416" x2="46.1772" y2="8.9576" id="Stroke-1929"></line>
                    <line x1="43.5684" y1="24.4588" x2="43.2124" y2="26.5748" id="Stroke-1930"></line>
                    <path d="M0.9764,80.664 C7.7924,80.664 13.3164,85.996 13.3164,92.58" id="Stroke-1931"></path>
                    <path d="M68.252,92.578 C68.252,85.998 73.776,80.662 80.592,80.662" id="Stroke-1932"></path>
                    <path d="M80.5916,60.736 C73.7756,60.736 68.2516,55.4 68.2516,48.82" id="Stroke-1933"></path>
                    <path d="M13.3164,48.82 C13.3164,55.4 7.7924,60.736 0.9764,60.736" id="Stroke-1934"></path>
                </g>
            </g>
        </g>
    </g>
</svg>