<?xml version="1.0" encoding="UTF-8"?>
<svg width="72px" height="97px" viewBox="0 0 72 97" version="1.1" xmlns="http://www.w3.org/2000/svg" xmlns:xlink="http://www.w3.org/1999/xlink">
    <title>icon-join</title>
    <g id="NEw" stroke="none" stroke-width="1" fill="none" fill-rule="evenodd">
        <g id="Referral-program" transform="translate(-1012.000000, -2645.000000)">
            <g id="icon-join" transform="translate(1012.000000, 2647.000000)">
                <circle id="Oval" fill="#ADE7FF" cx="35.5" cy="48.5" r="35.5"></circle>
                <g id="Group-95" transform="translate(2.000000, 0.000000)" stroke="#265A6E" stroke-linecap="round" stroke-linejoin="round" stroke-width="4">
                    <path d="M26.3008,34.8768 C26.3008,37.9128 24.2768,40.3728 21.7768,40.3728 C19.2768,40.3728 17.2528,37.9128 17.2528,34.8768 C17.2528,31.8408 19.2768,29.3808 21.7768,29.3808 C24.2768,29.3808 26.3008,31.8408 26.3008,34.8768 Z" id="Stroke-2175"></path>
                    <path d="M50.748,58.1972 C50.748,61.2332 48.724,63.6932 46.224,63.6932 C43.724,63.6932 41.7,61.2332 41.7,58.1972 C41.7,55.1612 43.724,52.7012 46.224,52.7012 C48.724,52.7012 50.748,55.1612 50.748,58.1972 Z" id="Stroke-2176"></path>
                    <line x1="46.2228" y1="29.908" x2="21.7628" y2="63.692" id="Stroke-2177"></line>
                    <path d="M62,0.5368 L43.8,0.5368 C42.872,5.1008 38.836,8.5368 34,8.5368 C29.164,8.5368 25.128,5.1008 24.2,0.5368 L6,0.5368 C2.684,0.5368 0,3.2208 0,6.5368 L0,86.5368 C0,89.8488 2.684,92.5368 6,92.5368 L24.2,92.5368 C25.128,87.9728 29.164,84.5368 34,84.5368 C38.836,84.5368 42.872,87.9728 43.8,92.5368 L62,92.5368 C65.316,92.5368 68,89.8488 68,86.5368 L68,6.5368 C68,3.2208 65.316,0.5368 62,0.5368 Z" id="Stroke-2178"></path>
                </g>
            </g>
        </g>
    </g>
</svg>