<?xml version="1.0" encoding="UTF-8"?>
<svg width="277px" height="284px" viewBox="0 0 277 284" version="1.1" xmlns="http://www.w3.org/2000/svg" xmlns:xlink="http://www.w3.org/1999/xlink">
    <!-- Generator: Sketch 55 (78076) - https://sketchapp.com -->
    <title>enroll-2</title>
    <desc>Created with Sketch.</desc>
    <defs>
        <polygon id="path-1" points="0 175.711475 266.954204 175.711475 266.954204 0.0735737705 0 0.0735737705"></polygon>
        <path d="M10.0902382,2.92533635 C7.86219058,4.55867389 4.87083858,5.04438588 2.11439806,3.95019016 C1.44032819,3.68259355 0.82063905,3.33650067 0.261642718,2.92654003 L0.261642718,0.0413167213 L10.0902382,0.0413167213 L10.0902382,2.92533635 L10.0902382,2.92533635 Z" id="path-3"></path>
        <path d="M0.261642718,2.92654003 C0.82063905,3.33650067 1.44032819,3.68259355 2.11439806,3.95019016 C4.87083858,5.04438588 7.86219058,4.55867389 10.0902382,2.92533635 L10.0902382,0.0413167213 L0.261642718,0.0413167213 L0.261642718,2.92654003 L0.261642718,2.92654003 Z" id="path-5"></path>
        <polygon id="path-7" points="0.109305825 0.0113101639 7.36237379 0.0113101639 7.36237379 9.5626282 0.109305825 9.5626282"></polygon>
        <path d="M10.0477544,3.05583416 C7.81965237,4.68911922 4.82840736,5.17476271 2.07205825,4.08060328 C1.39803967,3.81299951 0.778400576,3.46694361 0.219446926,3.05705097 L0.219446926,0.172047213 L10.0477544,0.172047213 L10.0477544,3.05583416 L10.0477544,3.05583416 Z" id="path-9"></path>
        <path d="M0.219446926,3.05705097 C0.778400576,3.46694361 1.39803967,3.81299951 2.07205825,4.08060328 C4.82840736,5.17476271 7.81965237,4.68911922 10.0477544,3.05583416 L10.0477544,0.172047213 L0.219446926,0.172047213 L0.219446926,3.05705097 L0.219446926,3.05705097 Z" id="path-11"></path>
        <polygon id="path-13" points="0.067138835 0.142040656 7.3202068 0.142040656 7.3202068 9.69335869 0.067138835 9.69335869"></polygon>
    </defs>
    <g id="Page-1" stroke="none" stroke-width="1" fill="none" fill-rule="evenodd">
        <g id="enroll-2">
            <rect id="Rectangle" fill="#FFFFFF" x="0" y="0" width="277" height="284"></rect>
            <g transform="translate(4.000000, 73.000000)">
                <g id="Group-68" transform="translate(0.000000, 0.214951)">
                    <g id="Group-4" transform="translate(175.695793, 105.311475)">
                        <path d="M66.790122,69.6787751 L52.372122,7.71725377 C52.372122,3.57288656 48.9869537,0.181857049 44.8497498,0.181857049 L13.9051123,0.181857049 C9.76733236,0.181857049 6.38274013,3.57288656 6.38274013,7.71725377 L0.113856634,69.6787751" id="Fill-1" fill="#27A0C4"></path>
                        <path d="M66.790122,69.6787751 L52.372122,7.71725377 C52.372122,3.57288656 48.9869537,0.181857049 44.8497498,0.181857049 L13.9051123,0.181857049 C9.76733236,0.181857049 6.38274013,3.57288656 6.38274013,7.71725377 L0.113856634,69.6787751" id="Stroke-3" stroke="#2E394C" stroke-width="1.44"></path>
                    </g>
                    <path d="M177.530172,85.1193705 C177.530172,104.694898 189.580887,120.564039 204.446192,120.564039 C219.311784,120.564039 231.362211,104.694898 231.362211,85.1193705 C231.362211,65.5435541 219.311784,49.6747016 204.446192,49.6747016 C189.580887,49.6747016 177.530172,65.5435541 177.530172,85.1193705" id="Fill-5" fill="#FAB77C"></path>
                    <path d="M177.530172,85.1193705 C177.530172,104.694898 189.580887,120.564039 204.446192,120.564039 C219.311784,120.564039 231.362211,104.694898 231.362211,85.1193705 C231.362211,65.5435541 219.311784,49.6747016 204.446192,49.6747016 C189.580887,49.6747016 177.530172,65.5435541 177.530172,85.1193705 Z" id="Stroke-7" stroke="#2E394C" stroke-width="1.44"></path>
                    <path d="M33.134988,174.99025 L266.954117,174.99025" id="Stroke-9" stroke="#2E394C" stroke-width="1.44"></path>
                    <path d="M222.384012,134.84139 C222.384012,134.84139 227.274692,163.994203 210.515041,159.874649 C194.44262,155.923593 190.560031,155.809626 190.560031,155.809626 C190.560031,155.809626 186.130769,154.46337 184.242472,161.559056" id="Stroke-11" stroke="#2E394C" stroke-width="1.44" stroke-linecap="round"></path>
                    <path d="M179.029923,134.939171 C179.029923,134.939171 156.197823,169.967499 135.687787,164.563145 C135.687787,164.563145 133.29314,159.834227 128.722169,159.609178 C124.15091,159.384129 120.740395,161.260692 120.522648,163.962725" id="Stroke-13" stroke="#2E394C" stroke-width="1.44" stroke-linecap="round" stroke-linejoin="round"></path>
                    <g id="Group-18" transform="translate(166.766990, 166.478689)">
                        <polyline id="Fill-15" fill="#FEFEFE" points="32.1552968 6.95652984 32.1552968 2.95353967 15.2300314 0.206208525 0.106944013 0.834038033 0.106944013 6.79957246"></polyline>
                        <polyline id="Stroke-17" stroke="#2E394C" stroke-width="1.44" points="32.1552968 6.95652984 32.1552968 2.95353967 15.2300314 0.206208525 0.106944013 0.834038033 0.106944013 6.79957246"></polyline>
                    </g>
                    <g id="Group-22" transform="translate(111.754045, 168.209836)">
                        <path d="M22.1359994,1.78478426 C22.1359994,1.78478426 9.60226472,-2.06701902 0.117572168,1.78478426" id="Fill-19" fill="#FEFEFE"></path>
                        <path d="M22.1359994,1.78478426 C22.1359994,1.78478426 9.60226472,-2.06701902 0.117572168,1.78478426" id="Stroke-21" stroke="#2E394C" stroke-width="1.44" stroke-linecap="round"></path>
                    </g>
                    <path d="M202.552969,104.219179 C202.552969,104.219179 210.28416,105.056189 211.747043,97.730261" id="Stroke-23" stroke="#2E394C" stroke-width="1.44" stroke-linecap="round"></path>
                    <g id="Group-28" transform="translate(60.197411, 161.285246)">
                        <path d="M18.2107825,12.4771016 C18.2107825,12.4771016 11.785501,6.87799344 13.9796822,0.127383607 L0.266769579,0.127383607 L0.266769579,12.4771016" id="Fill-25" fill="#D2DCE1"></path>
                        <path d="M18.2107825,12.4771016 C18.2107825,12.4771016 11.785501,6.87799344 13.9796822,0.127383607 L0.266769579,0.127383607 L0.266769579,12.4771016" id="Stroke-27" stroke="#2E394C" stroke-width="1.44" stroke-linecap="round"></path>
                    </g>
                    <path d="M20.9807851,160.001629 L113.155694,160.001629 C115.056665,160.001629 116.612005,158.443885 116.612005,156.539334 L116.612005,82.7728289 C116.612005,80.8685666 115.056665,79.3105338 113.155694,79.3105338 L20.9807851,79.3105338 C19.0795262,79.3105338 17.5244744,80.8685666 17.5244744,82.7728289 L17.5244744,156.539334 C17.5244744,158.443885 19.0795262,160.001629 20.9807851,160.001629" id="Fill-29" fill="#D2DCE1"></path>
                    <path d="M20.9807851,160.001629 L113.155694,160.001629 C115.056665,160.001629 116.612005,158.443885 116.612005,156.539334 L116.612005,82.7728289 C116.612005,80.8685666 115.056665,79.3105338 113.155694,79.3105338 L20.9807851,79.3105338 C19.0795262,79.3105338 17.5244744,80.8685666 17.5244744,82.7728289 L17.5244744,156.539334 C17.5244744,158.443885 19.0795262,160.001629 20.9807851,160.001629 Z" id="Stroke-31" stroke="#2E394C" stroke-width="1.44" stroke-linecap="round"></path>
                    <mask id="mask-2" fill="white">
                        <use xlink:href="#path-1"></use>
                    </mask>
                    <g id="Clip-34"></g>
                    <polygon id="Fill-33" fill="#FEFEFE" mask="url(#mask-2)" points="25.5692104 150.896341 110.194385 150.896341 110.194385 87.0031475 25.5692104 87.0031475"></polygon>
                    <polygon id="Stroke-35" stroke="#2E394C" stroke-width="1.44" stroke-linecap="round" mask="url(#mask-2)" points="25.5692104 150.896341 110.194385 150.896341 110.194385 87.0031475 25.5692104 87.0031475"></polygon>
                    <path d="M34.4265825,100.024031 L35.04411,100.024031 C35.5297217,100.024031 35.867,99.98912 36.0568091,99.9195856 C36.2463301,99.8497626 36.3955275,99.7346413 36.5044013,99.5745102 C36.6129871,99.4140905 36.6671359,99.220202 36.6671359,98.9922675 C36.6671359,98.5972774 36.5147702,98.3090413 36.2091748,98.1275593 C35.9873948,97.9931069 35.5758058,97.9255921 34.9746958,97.9255921 L34.4265825,97.9255921 L34.4265825,100.024031 Z M32.4844239,96.0282544 L34.5443851,96.0282544 C35.6590453,96.0282544 36.4626375,96.1318348 36.9551618,96.3378413 C37.4476861,96.5438479 37.836233,96.8773823 38.1205146,97.3381561 C38.4050841,97.7995069 38.5473689,98.351743 38.5473689,98.9957298 C38.5473689,99.7089626 38.3610162,100.302169 37.9885987,100.774772 C37.6164693,101.247087 37.1109838,101.576005 36.4730065,101.761238 C36.0985728,101.867992 35.4165275,101.921081 34.4265825,101.921081 L34.4265825,106.250392 L32.4844239,106.250392 L32.4844239,96.0282544 Z" id="Fill-36" fill="#0689BA" mask="url(#mask-2)"></path>
                    <polygon id="Fill-37" fill="#0689BA" mask="url(#mask-2)" points="40.0169346 96.028341 41.9095528 96.028341 44.2748214 103.158072 46.6616919 96.028341 48.5531579 96.028341 50.2648958 106.250479 48.386967 106.250479 47.2927566 99.794741 45.1244977 106.250479 43.4130479 106.250479 41.2643748 99.794741 40.143954 106.250479 38.2501838 106.250479"></polygon>
                    <polygon id="Fill-38" fill="#0689BA" mask="url(#mask-2)" points="52.5750362 95.8826649 53.5459715 95.8826649 53.5459715 98.6897207 55.086334 98.6897207 55.086334 99.5307698 53.5459715 99.5307698 53.5459715 106.250508 52.5750362 106.250508 52.5750362 99.5307698 51.2498291 99.5307698 51.2498291 98.6897207 52.5750362 98.6897207"></polygon>
                    <path d="M56.1753599,98.6898649 L57.167033,98.6898649 L57.167033,99.7946256 C57.4634117,99.359242 57.7753437,99.0337862 58.1036932,98.8182584 C58.4320427,98.603019 58.7742175,98.4953993 59.1305055,98.4953993 C59.3983696,98.4953993 59.6855314,98.5810911 59.9905508,98.7524748 L59.4842013,99.5724616 C59.280567,99.4844616 59.1097676,99.4406059 58.9709392,99.4406059 C58.64691,99.4406059 58.334978,99.5736157 58.034279,99.8399239 C57.7335799,100.106232 57.5045994,100.519976 57.3476252,101.080291 C57.2272304,101.511058 57.167033,102.382114 57.167033,103.69317 L57.167033,106.250363 L56.1753599,106.250363 L56.1753599,98.6898649 Z" id="Fill-39" fill="#0689BA" mask="url(#mask-2)"></path>
                    <path d="M64.4544049,99.4334505 C63.9140683,99.4334505 63.4152074,99.5664603 62.9578223,99.83248 C62.5004372,100.098788 62.1366605,100.472716 61.8664922,100.953687 C61.5960359,101.434946 61.4609518,101.943614 61.4609518,102.480847 C61.4609518,103.012598 61.5974761,103.521844 61.8696605,104.007719 C62.142421,104.493595 62.5085019,104.87185 62.9681913,105.142487 C63.4278806,105.413123 63.9206929,105.548152 64.4477803,105.548152 C64.978612,105.548152 65.4820812,105.414277 65.958188,105.145949 C66.4337188,104.877332 66.7997997,104.51408 67.0561427,104.055903 C67.3124858,103.598014 67.4406573,103.082132 67.4406573,102.508257 C67.4406573,101.634028 67.1532074,100.902618 66.5780197,100.314893 C66.002832,99.727457 65.2951524,99.4334505 64.4544049,99.4334505 L64.4544049,99.4334505 Z M68.3358417,98.6899226 L68.3358417,106.250421 L67.3781557,106.250421 L67.3781557,104.950618 C66.9711751,105.44688 66.514654,105.819654 66.0083045,106.069805 C65.501955,106.319667 64.9480812,106.444887 64.3469712,106.444887 C63.2786832,106.444887 62.3665052,106.056821 61.6101492,105.280978 C60.8540812,104.504847 60.4759032,103.561083 60.4759032,102.44911 C60.4759032,101.360795 60.8578256,100.429437 61.6205181,99.655903 C62.3837867,98.88208 63.3017252,98.495457 64.3746217,98.495457 C64.9944534,98.495457 65.5549518,98.6273128 66.0566929,98.8913128 C66.558722,99.1556013 66.9991136,99.551457 67.3781557,100.079746 L67.3781557,98.6899226 L68.3358417,98.6899226 Z" id="Fill-40" fill="#0689BA" mask="url(#mask-2)"></path>
                    <path d="M70.3750939,106.250334 L71.3463172,106.250334 L71.3463172,98.6898361 L70.3750939,98.6898361 L70.3750939,106.250334 Z M70.8572492,95.5766557 C71.078165,95.5766557 71.26711,95.6557115 71.4235081,95.8129574 C71.5799061,95.9704918 71.6585372,96.1606295 71.6585372,96.3827934 C71.6585372,96.6006295 71.5799061,96.7881705 71.4235081,96.9457049 C71.26711,97.1032393 71.078165,97.1820066 70.8572492,97.1820066 C70.6406537,97.1820066 70.454301,97.1032393 70.2976149,96.9457049 C70.1412168,96.7881705 70.0631618,96.6006295 70.0631618,96.3827934 C70.0631618,96.1606295 70.1412168,95.9704918 70.2976149,95.8129574 C70.454301,95.6557115 70.6406537,95.5766557 70.8572492,95.5766557 L70.8572492,95.5766557 Z" id="Fill-41" fill="#0689BA" mask="url(#mask-2)"></path>
                    <path d="M73.3649466,98.6898649 L74.3361699,98.6898649 L74.3361699,100.044776 C74.7247168,99.5260092 75.1547395,99.1382321 75.6265259,98.8808682 C76.0980243,98.6237928 76.6112864,98.4953993 77.1663123,98.4953993 C77.730267,98.4953993 78.231144,98.6387961 78.6680793,98.925878 C79.1053026,99.2132485 79.4278916,99.60016 79.6358463,100.086612 C79.843801,100.573065 79.9480663,101.330442 79.9480663,102.359032 L79.9480663,106.250363 L78.976843,106.250363 L78.976843,102.643806 C78.976843,101.773039 78.9405518,101.191373 78.8685453,100.899675 C78.7562152,100.399373 78.5404838,100.022849 78.2213511,99.7703895 C77.9022184,99.5179305 77.486021,99.3918452 76.9724709,99.3918452 C76.3848981,99.3918452 75.8586748,99.5860223 75.394089,99.9755305 C74.9292152,100.36475 74.6227557,100.846586 74.4749984,101.42075 C74.382254,101.796121 74.3361699,102.481655 74.3361699,103.47793 L74.3361699,106.250363 L73.3649466,106.250363 L73.3649466,98.6898649 Z" id="Fill-42" fill="#0689BA" mask="url(#mask-2)"></path>
                    <path d="M81.8834563,106.250334 L82.8546796,106.250334 L82.8546796,98.6898361 L81.8834563,98.6898361 L81.8834563,106.250334 Z M82.3653236,95.5766557 C82.5865275,95.5766557 82.7751845,95.6557115 82.9318706,95.8129574 C83.0882686,95.9704918 83.1668997,96.1606295 83.1668997,96.3827934 C83.1668997,96.6006295 83.0882686,96.7881705 82.9318706,96.9457049 C82.7751845,97.1032393 82.5865275,97.1820066 82.3653236,97.1820066 C82.1493042,97.1820066 81.9626634,97.1032393 81.8059773,96.9457049 C81.6495793,96.7881705 81.5715243,96.6006295 81.5715243,96.3827934 C81.5715243,96.1606295 81.6495793,95.9704918 81.8059773,95.8129574 C81.9626634,95.6557115 82.1493042,95.5766557 82.3653236,95.5766557 L82.3653236,95.5766557 Z" id="Fill-43" fill="#0689BA" mask="url(#mask-2)"></path>
                    <path d="M84.8733091,98.6898649 L85.8442443,98.6898649 L85.8442443,100.044776 C86.2327913,99.5260092 86.6628139,99.1382321 87.1346003,98.8808682 C87.6060987,98.6237928 88.1196489,98.4953993 88.6743867,98.4953993 C89.2386294,98.4953993 89.7395065,98.6387961 90.1764417,98.925878 C90.613377,99.2132485 90.935966,99.60016 91.1439207,100.086612 C91.3521634,100.573065 91.4561408,101.330442 91.4561408,102.359032 L91.4561408,106.250363 L90.4849175,106.250363 L90.4849175,102.643806 C90.4849175,101.773039 90.4489142,101.191373 90.3769078,100.899675 C90.2645777,100.399373 90.0485583,100.022849 89.7294256,99.7703895 C89.4105809,99.5179305 88.9943835,99.3918452 88.4805453,99.3918452 C87.8932605,99.3918452 87.3670372,99.5860223 86.9021634,99.9755305 C86.4375777,100.36475 86.1308301,100.846586 85.9830728,101.42075 C85.8903285,101.796121 85.8442443,102.481655 85.8442443,103.47793 L85.8442443,106.250363 L84.8733091,106.250363 L84.8733091,98.6898649 Z" id="Fill-44" fill="#0689BA" mask="url(#mask-2)"></path>
                    <path d="M97.179388,99.4334505 C96.6289706,99.4334505 96.1177246,99.5664603 95.6462262,99.833057 C95.1744398,100.099654 94.8043265,100.467523 94.5361744,100.938106 C94.2680223,101.408113 94.1340903,101.916493 94.1340903,102.463247 C94.1340903,103.292467 94.4114592,103.978001 94.9661971,104.520139 C95.521223,105.061988 96.2404236,105.332913 97.123799,105.332913 C98.0161032,105.332913 98.7341518,105.064585 99.2776566,104.526775 C99.8211615,103.989542 100.09277,103.283234 100.09277,102.40785 C100.09277,101.837726 99.9680547,101.329346 99.7180482,100.882132 C99.4683298,100.435496 99.114634,100.082054 98.6569608,99.8226702 C98.1989997,99.5632866 97.7064754,99.4334505 97.179388,99.4334505 L97.179388,99.4334505 Z M100.044094,98.6899226 L101.015317,98.6899226 L101.015317,104.714605 C101.015317,105.77551 100.922861,106.551352 100.73766,107.042421 C100.483621,107.737477 100.041789,108.27269 99.4130288,108.647772 C98.7839803,109.022854 98.0276243,109.210683 97.1445369,109.210683 C96.4970547,109.210683 95.9155304,109.118644 95.3999641,108.935431 C94.8841097,108.751641 94.464456,108.505241 94.1407149,108.196519 C93.8169738,107.88751 93.518867,107.435391 93.2461065,106.841031 L94.3005693,106.841031 C94.587443,107.341044 94.9578443,107.711798 95.4114851,107.952716 C95.8654139,108.193634 96.4282165,108.313949 97.0996049,108.313949 C97.7614883,108.313949 98.3205466,108.190749 98.7767796,107.943772 C99.2330126,107.696795 99.5581939,107.386054 99.7526113,107.012126 C99.9470288,106.638198 100.044094,106.034316 100.044094,105.200769 L100.044094,104.812126 C99.6785887,105.275208 99.2318605,105.63067 98.7039091,105.878513 C98.1762456,106.126355 97.6163233,106.250421 97.023566,106.250421 C96.3291356,106.250421 95.6764689,106.077595 95.065278,105.732808 C94.4540871,105.387444 93.9820126,104.922919 93.6487667,104.339234 C93.3155207,103.755549 93.1490417,103.114159 93.1490417,102.414487 C93.1490417,101.714814 93.3221453,101.063037 93.6695045,100.45829 C94.0171518,99.8538308 94.4970029,99.3757456 95.1104981,99.0231685 C95.7237052,98.671457 96.3708994,98.495457 97.0515045,98.495457 C97.6163233,98.495457 98.1428346,98.6123095 98.6310385,98.846303 C99.1195304,99.0800079 99.5904528,99.4657652 100.044094,100.003287 L100.044094,98.6899226 Z" id="Fill-45" fill="#0689BA" mask="url(#mask-2)"></path>
                    <path d="M103.088988,97.2650151 L103.039448,96.4730151 C103.034839,96.3691462 103.034839,96.2401757 103.029655,96.096779 L103.014677,96.096779 C102.980402,96.2156511 102.940655,96.3740511 102.901483,96.4978282 L102.659253,97.2453954 L102.382172,97.2453954 L102.139943,96.4776315 C102.115461,96.3740511 102.076001,96.2156511 102.046334,96.096779 L102.031357,96.096779 C102.031357,96.2205561 102.026749,96.349238 102.021276,96.4730151 L101.972312,97.2650151 L101.714817,97.2650151 L101.813897,95.9184708 L102.213965,95.9184708 L102.44669,96.5768839 C102.476069,96.6813298 102.501127,96.7800052 102.53569,96.918497 L102.540587,96.918497 C102.57515,96.79472 102.604817,96.6813298 102.634195,96.5817889 L102.86692,95.9184708 L103.252299,95.9184708 L103.3557,97.2650151 L103.088988,97.2650151 Z M101.636185,95.9184708 L101.636185,96.1412118 L101.206163,96.1412118 L101.206163,97.2650151 L100.939163,97.2650151 L100.939163,96.1412118 L100.50914,96.1412118 L100.50914,95.9184708 L101.636185,95.9184708 Z" id="Fill-46" fill="#0689BA" mask="url(#mask-2)"></path>
                    <polygon id="Fill-47" fill="#F8F8F9" mask="url(#mask-2)" points="116.782315 35.0707698 116.782315 61.8195961 102.931438 61.8195961 102.81738 69.4095239 90.9118294 61.8195961 29.55281 61.8195961 29.55281 34.7580092"></polygon>
                    <polygon id="Stroke-48" stroke="#2E394C" stroke-width="1.44" mask="url(#mask-2)" points="116.782315 35.0707698 116.782315 61.8195961 102.931438 61.8195961 102.81738 69.4095239 90.9118294 61.8195961 29.55281 61.8195961 29.55281 34.7580092"></polygon>
                    <g id="Group-51" mask="url(#mask-2)">
                        <g transform="translate(61.925566, 45.009836)">
                            <path d="M0.190327508,0.40935 L39.19969,0.40935" id="Fill-49" stroke="none" fill="#F8F8F9" fill-rule="evenodd"></path>
                            <path d="M0.190327508,0.40935 L39.19969,0.40935" id="Stroke-50" stroke="#2E394C" stroke-width="1.44" fill="none"></path>
                        </g>
                    </g>
                    <g id="Group-54" mask="url(#mask-2)">
                        <g transform="translate(61.925566, 52.222951)">
                            <path d="M0.190327508,0.47135 L19.6948647,0.47135" id="Fill-52" stroke="none" fill="#F8F8F9" fill-rule="evenodd"></path>
                            <path d="M0.190327508,0.47135 L19.6948647,0.47135" id="Stroke-53" stroke="#2E394C" stroke-width="1.44" fill="none"></path>
                        </g>
                    </g>
                    <path d="M53.4008641,128.427921 C53.4008641,135.175934 58.861835,140.646361 65.5981845,140.646361 C72.334246,140.646361 77.7952168,135.175934 77.7952168,128.427921 C77.7952168,121.679908 72.334246,116.209482 65.5981845,116.209482 C58.861835,116.209482 53.4008641,121.679908 53.4008641,128.427921" id="Fill-55" fill="#FEFEFE" mask="url(#mask-2)"></path>
                    <g id="Group" mask="url(#mask-2)">
                        <g transform="translate(53.400864, 116.209482)">
                            <path d="M7.10542736e-14,12.2184393 C7.10542736e-14,18.9664525 5.46097087,24.4368787 12.1973204,24.4368787 C18.9333819,24.4368787 24.3943528,18.9664525 24.3943528,12.2184393 C24.3943528,5.47042623 18.9333819,7.81597009e-14 12.1973204,7.81597009e-14 C5.46097087,7.81597009e-14 7.10542736e-14,5.47042623 7.10542736e-14,12.2184393 Z" id="Stroke-56" stroke="#2E394C" stroke-width="1.44" fill="none" stroke-linecap="round"></path>
                            <path d="M17.8297531,11.6408131 L10.575533,5.96928525 C9.87534207,5.42166557 8.85313819,5.92167869 8.85313819,6.81148852 L8.85371424,18.1562754 C8.85371424,19.0460852 9.87620615,19.5458098 10.5761091,18.9981902 L17.8300411,13.3249311 C18.3767142,12.8973377 18.3767142,12.0684066 17.8297531,11.6408131" id="Fill-57" stroke="none" fill="#51B748" fill-rule="evenodd"></path>
                        </g>
                    </g>
                    <polygon id="Fill-58" fill="#F8F8F9" mask="url(#mask-2)" points="0.719978317 1.11024262 0.719978317 27.8587803 14.5711434 27.8587803 14.6852016 35.4489967 26.5907518 27.8587803 87.9494832 27.8587803 87.9494832 0.797481967"></polygon>
                    <polygon id="Stroke-59" stroke="#2E394C" stroke-width="1.44" mask="url(#mask-2)" points="0.719978317 1.11024262 0.719978317 27.8587803 14.5711434 27.8587803 14.6852016 35.4489967 26.5907518 27.8587803 87.9494832 27.8587803 87.9494832 0.797481967"></polygon>
                    <g id="Group-62" mask="url(#mask-2)">
                        <g transform="translate(33.122977, 11.252459)">
                            <path d="M0.159940777,0.0568 L39.1693032,0.0568" id="Fill-60" stroke="none" fill="#F8F8F9" fill-rule="evenodd"></path>
                            <path d="M0.159940777,0.0568 L39.1693032,0.0568" id="Stroke-61" stroke="#2E394C" stroke-width="1.44" fill="none"></path>
                        </g>
                    </g>
                    <g id="Group-65" mask="url(#mask-2)">
                        <g transform="translate(33.122977, 18.465574)">
                            <path d="M0.159940777,0.1193 L19.664478,0.1193" id="Fill-63" stroke="none" fill="#F8F8F9" fill-rule="evenodd"></path>
                            <path d="M0.159940777,0.1193 L19.664478,0.1193" id="Stroke-64" stroke="#2E394C" stroke-width="1.44" fill="none"></path>
                        </g>
                    </g>
                    <path d="M6.69032298,10.1224236 C4.81527443,14.8617285 7.13071456,20.2265548 11.8618278,22.1045613 C16.5929411,23.9828564 21.9484945,21.6634072 23.823255,16.9241023 C25.6983036,12.1845089 23.3828634,6.82025967 18.6517502,4.94196459 C13.9209249,3.06366951 8.56537152,5.38283016 6.69032298,10.1224236" id="Fill-66" fill="#F8F8F9" mask="url(#mask-2)"></path>
                    <path d="M6.69032298,10.1224236 C4.81527443,14.8617285 7.13071456,20.2265548 11.8618278,22.1045613 C16.5929411,23.9828564 21.9484945,21.6634072 23.823255,16.9241023 C25.6983036,12.1845089 23.3828634,6.82025967 18.6517502,4.94196459 C13.9209249,3.06366951 8.56537152,5.38283016 6.69032298,10.1224236 Z" id="Stroke-67" stroke="#2E394C" stroke-width="1.44" mask="url(#mask-2)"></path>
                </g>
                <g id="Group-80" transform="translate(10.080906, 8.005115)">
                    <g id="Group-71" transform="translate(0.000000, 9.521311)">
                        <mask id="mask-4" fill="white">
                            <use xlink:href="#path-3"></use>
                        </mask>
                        <g id="Clip-70"></g>
                        <path d="M1.27549385,18.0345757 L9.07638706,18.0345757 C9.63400518,18.0345757 10.0902382,17.5778413 10.0902382,17.0192577 L9.24545825,1.05663475 C9.24545825,0.498339672 8.78922524,0.0413167213 8.23189515,0.0413167213 L2.11998576,0.0413167213 C1.56265566,0.0413167213 1.10642265,0.498339672 1.10642265,1.05663475 L0.261642718,17.0192577 C0.261642718,17.5778413 0.717875728,18.0345757 1.27549385,18.0345757" id="Fill-69" fill="#BEBBB7" mask="url(#mask-4)"></path>
                    </g>
                    <g id="Group-74" transform="translate(0.000000, 9.521311)">
                        <mask id="mask-6" fill="white">
                            <use xlink:href="#path-5"></use>
                        </mask>
                        <g id="Clip-73"></g>
                        <path d="M1.27549385,18.0345757 L9.07638706,18.0345757 C9.63400518,18.0345757 10.0902382,17.5778413 10.0902382,17.0192577 L9.24545825,1.05663475 C9.24545825,0.498339672 8.78922524,0.0413167213 8.23189515,0.0413167213 L2.11998576,0.0413167213 C1.56265566,0.0413167213 1.10642265,0.498339672 1.10642265,1.05663475 L0.261642718,17.0192577 C0.261642718,17.5778413 0.717875728,18.0345757 1.27549385,18.0345757 Z" id="Stroke-72" stroke="#2E394C" stroke-width="0.864" mask="url(#mask-6)"></path>
                    </g>
                    <g id="Group-77" transform="translate(1.440129, 0.000000)">
                        <mask id="mask-8" fill="white">
                            <use xlink:href="#path-7"></use>
                        </mask>
                        <g id="Clip-76"></g>
                        <path d="M0.109305825,4.78696918 C0.109305825,7.42466098 1.73290777,9.5626282 3.73583981,9.5626282 C5.73877184,9.5626282 7.36237379,7.42466098 7.36237379,4.78696918 C7.36237379,2.1495659 5.73877184,0.0113101639 3.73583981,0.0113101639 C1.73290777,0.0113101639 0.109305825,2.1495659 0.109305825,4.78696918" id="Fill-75" fill="#FAB77C" mask="url(#mask-8)"></path>
                    </g>
                    <path d="M1.54943528,4.78696918 C1.54943528,7.42466098 3.17303722,9.5626282 5.17596926,9.5626282 C7.17890129,9.5626282 8.80250324,7.42466098 8.80250324,4.78696918 C8.80250324,2.1495659 7.17890129,0.0113101639 5.17596926,0.0113101639 C3.17303722,0.0113101639 1.54943528,2.1495659 1.54943528,4.78696918 Z" id="Stroke-78" stroke="#2E394C" stroke-width="0.864"></path>
                </g>
                <g id="Group-85" transform="translate(35.427184, 39.165770)">
                    <path d="M0.887609385,5.92499672 C-0.987439159,10.6645902 1.32771294,16.0291279 6.05911424,17.9071344 C10.7902275,19.7854295 16.1457809,17.4662689 18.0205414,12.7266754 C19.89559,7.98737049 17.5801498,2.62283279 12.8490366,0.744537705 C8.1179233,-1.13375738 2.76265793,1.1856918 0.887609385,5.92499672" id="Fill-81" fill="#F8F8F9"></path>
                    <path d="M0.887609385,5.92499672 C-0.987439159,10.6645902 1.32771294,16.0291279 6.05911424,17.9071344 C10.7902275,19.7854295 16.1457809,17.4662689 18.0205414,12.7266754 C19.89559,7.98737049 17.5801498,2.62283279 12.8490366,0.744537705 C8.1179233,-1.13375738 2.76265793,1.1856918 0.887609385,5.92499672 Z" id="Stroke-83" stroke="#2E394C" stroke-width="1.44"></path>
                </g>
                <g id="Group-97" transform="translate(39.747573, 42.628066)">
                    <g id="Group-88" transform="translate(0.000000, 9.521311)">
                        <mask id="mask-10" fill="white">
                            <use xlink:href="#path-9"></use>
                        </mask>
                        <g id="Clip-87"></g>
                        <path d="M1.23301003,18.1653062 L9.03419126,18.1653062 C9.59180939,18.1653062 10.0477544,17.7082833 10.0477544,17.1499882 L9.20326246,1.18707672 C9.20326246,0.628781639 8.74702945,0.172047213 8.18941133,0.172047213 L2.07778997,0.172047213 C1.52017184,0.172047213 1.06422686,0.628781639 1.06422686,1.18707672 L0.219446926,17.1499882 C0.219446926,17.7082833 0.675679935,18.1653062 1.23301003,18.1653062" id="Fill-86" fill="#ED356A" mask="url(#mask-10)"></path>
                    </g>
                    <g id="Group-91" transform="translate(0.000000, 9.521311)">
                        <mask id="mask-12" fill="white">
                            <use xlink:href="#path-11"></use>
                        </mask>
                        <g id="Clip-90"></g>
                        <path d="M1.23301003,18.1653062 L9.03419126,18.1653062 C9.59180939,18.1653062 10.0477544,17.7082833 10.0477544,17.1499882 L9.20326246,1.18707672 C9.20326246,0.628781639 8.74702945,0.172047213 8.18941133,0.172047213 L2.07778997,0.172047213 C1.52017184,0.172047213 1.06422686,0.628781639 1.06422686,1.18707672 L0.219446926,17.1499882 C0.219446926,17.7082833 0.675679935,18.1653062 1.23301003,18.1653062 Z" id="Stroke-89" stroke="#2E394C" stroke-width="0.864" mask="url(#mask-12)"></path>
                    </g>
                    <g id="Group-94" transform="translate(1.440129, 0.000000)">
                        <mask id="mask-14" fill="white">
                            <use xlink:href="#path-13"></use>
                        </mask>
                        <g id="Clip-93"></g>
                        <path d="M0.067138835,4.91769967 C0.067138835,7.55539148 1.69074078,9.69335869 3.69367282,9.69335869 C5.69631683,9.69335869 7.3202068,7.55539148 7.3202068,4.91769967 C7.3202068,2.28000787 5.69631683,0.142040656 3.69367282,0.142040656 C1.69074078,0.142040656 0.067138835,2.28000787 0.067138835,4.91769967" id="Fill-92" fill="#FAB77C" mask="url(#mask-14)"></path>
                    </g>
                    <path d="M1.50726828,4.91769967 C1.50726828,7.55539148 3.13087023,9.69335869 5.13380227,9.69335869 C7.13644628,9.69335869 8.76033625,7.55539148 8.76033625,4.91769967 C8.76033625,2.28000787 7.13644628,0.142040656 5.13380227,0.142040656 C3.13087023,0.142040656 1.50726828,2.28000787 1.50726828,4.91769967 Z" id="Stroke-95" stroke="#2E394C" stroke-width="0.864"></path>
                </g>
            </g>
        </g>
    </g>
</svg>