<svg width="59" height="59" viewBox="0 0 59 59" fill="none" xmlns="http://www.w3.org/2000/svg">
<rect width="59" height="59" fill="white"/>
<ellipse cx="31.1105" cy="30" rx="17.8697" ry="18" fill="#00B6FF" fill-opacity="0.171465"/>
<path d="M11.0813 34.2528V40.571" stroke="#265A6E" stroke-width="2" stroke-linecap="round" stroke-linejoin="round"/>
<path fill-rule="evenodd" clip-rule="evenodd" d="M13.4369 45.0271C13.4369 45.6895 12.906 46.2261 12.2512 46.2261H9.91198C9.25755 46.2261 8.72607 45.6895 8.72607 45.0271L9.28579 41.7698C9.28579 41.1074 9.81646 40.571 10.4713 40.571H11.6923C12.3467 40.571 12.8776 41.1074 12.8776 41.7698L13.4369 45.0271V45.0271Z" fill="#FFBC00" stroke="#265A6E" stroke-width="2" stroke-linecap="round" stroke-linejoin="round"/>
<path fill-rule="evenodd" clip-rule="evenodd" d="M14.6676 15.7969H46.8045L53 30.0189H7L14.6676 15.7969Z" stroke="#265A6E" stroke-width="2" stroke-linecap="round" stroke-linejoin="round"/>
<path d="M20.5953 30.0189L17.9387 41.7859C17.9387 44.6331 23.3704 46.2262 30.07 46.2262C36.7701 46.2262 42.2014 44.6331 42.2014 41.7859L39.5444 30.0189" stroke="#265A6E" stroke-width="2" stroke-linecap="round" stroke-linejoin="round"/>
<path d="M11.3616 21.9292H29.3771" stroke="#265A6E" stroke-width="2" stroke-linecap="round" stroke-linejoin="round"/>
</svg>
