<svg width="59" height="59" viewBox="0 0 59 59" fill="none" xmlns="http://www.w3.org/2000/svg">
<rect width="59" height="59" fill="white"/>
<ellipse cx="29.847" cy="30.7709" rx="17.847" ry="17.7709" fill="#00B6FF" fill-opacity="0.171465"/>
<path d="M47.0903 51.9866H12.9106" stroke="#265A6E" stroke-width="2" stroke-linecap="round" stroke-linejoin="round"/>
<path d="M11 45.9446V43.7904C11 34.9961 16.276 29.8299 22.7826 29.8299C25.9957 29.8299 26.0299 27.8045 26.0299 27.8045V26.0186C24.8979 24.8106 24.0071 23.1234 23.4783 21.1504C22.2136 20.2202 21.8979 18.3035 22.9455 16.9566V12.9541C22.9455 8.82471 25.2759 6 30.1739 6C35.2006 6 37.3983 8.82471 37.3983 12.9541V16.9546C38.4479 18.3035 38.1342 20.2202 36.8655 21.1524C36.3387 23.1234 35.448 24.8106 34.318 26.0186V27.8045C34.318 27.8045 33.956 29.8299 37.2194 29.8299C43.726 29.8299 49 34.9961 49 43.7904V45.9446" stroke="#265A6E" stroke-width="2" stroke-linecap="round" stroke-linejoin="round"/>
<path fill-rule="evenodd" clip-rule="evenodd" d="M42.0312 51.9867H17.8185L16.9981 37.0879C16.9619 36.4316 17.4827 35.882 18.1362 35.882H41.8522C42.5117 35.882 43.0325 36.4397 42.9903 37.096L42.0312 51.9867Z" stroke="#265A6E" stroke-width="2" stroke-linecap="round" stroke-linejoin="round"/>
<path fill-rule="evenodd" clip-rule="evenodd" d="M32.9963 43.2432C32.9963 44.9003 31.6552 46.2432 30.0002 46.2432C28.3452 46.2432 27.0042 44.9003 27.0042 43.2432C27.0042 41.586 28.3452 40.2432 30.0002 40.2432C31.6552 40.2432 32.9963 41.586 32.9963 43.2432Z" fill="#FFBC00" stroke="#265A6E" stroke-width="2" stroke-linecap="round" stroke-linejoin="round"/>
</svg>
