<?xml version="1.0" encoding="UTF-8"?>
<svg width="530px" height="319px" viewBox="0 0 530 319" version="1.1" xmlns="http://www.w3.org/2000/svg" xmlns:xlink="http://www.w3.org/1999/xlink">
    <title>icon-earn</title>
    <defs>
        <rect id="path-1" x="0" y="0" width="502" height="291"></rect>
        <filter x="-4.7%" y="-6.4%" width="109.4%" height="116.2%" filterUnits="objectBoundingBox" id="filter-2">
            <feOffset dx="0" dy="5" in="SourceAlpha" result="shadowOffsetOuter1"></feOffset>
            <feGaussianBlur stdDeviation="7" in="shadowOffsetOuter1" result="shadowBlurOuter1"></feGaussianBlur>
            <feColorMatrix values="0 0 0 0 0   0 0 0 0 0   0 0 0 0 0  0 0 0 0.157424607 0" type="matrix" in="shadowBlurOuter1"></feColorMatrix>
        </filter>
        <rect id="path-3" x="0" y="0" width="502" height="40"></rect>
        <filter x="-1.4%" y="-12.5%" width="102.8%" height="135.0%" filterUnits="objectBoundingBox" id="filter-4">
            <feOffset dx="0" dy="2" in="SourceAlpha" result="shadowOffsetOuter1"></feOffset>
            <feGaussianBlur stdDeviation="2" in="shadowOffsetOuter1" result="shadowBlurOuter1"></feGaussianBlur>
            <feColorMatrix values="0 0 0 0 0   0 0 0 0 0   0 0 0 0 0  0 0 0 0.157424607 0" type="matrix" in="shadowBlurOuter1"></feColorMatrix>
        </filter>
        <circle id="path-5" cx="117" cy="117" r="117"></circle>
        <circle id="path-7" cx="117" cy="117" r="117"></circle>
        <filter x="-5.8%" y="-4.9%" width="111.5%" height="111.5%" filterUnits="objectBoundingBox" id="filter-8">
            <feMorphology radius="2" operator="dilate" in="SourceAlpha" result="shadowSpreadOuter1"></feMorphology>
            <feOffset dx="0" dy="2" in="shadowSpreadOuter1" result="shadowOffsetOuter1"></feOffset>
            <feGaussianBlur stdDeviation="3.5" in="shadowOffsetOuter1" result="shadowBlurOuter1"></feGaussianBlur>
            <feComposite in="shadowBlurOuter1" in2="SourceAlpha" operator="out" result="shadowBlurOuter1"></feComposite>
            <feColorMatrix values="0 0 0 0 0   0 0 0 0 0   0 0 0 0 0  0 0 0 0.196268575 0" type="matrix" in="shadowBlurOuter1"></feColorMatrix>
        </filter>
    </defs>
    <g id="NEw" stroke="none" stroke-width="1" fill="none" fill-rule="evenodd">
        <g id="Referral-program" transform="translate(-719.000000, -877.000000)">
            <g id="icon-earn" transform="translate(733.000000, 886.000000)">
                <g id="Group-12">
                    <g id="Rectangle">
                        <use fill="black" fill-opacity="1" filter="url(#filter-2)" xlink:href="#path-1"></use>
                        <use fill="#F5F7F8" fill-rule="evenodd" xlink:href="#path-1"></use>
                    </g>
                    <g id="Rectangle">
                        <use fill="black" fill-opacity="1" filter="url(#filter-4)" xlink:href="#path-3"></use>
                        <use fill="#FFFFFF" fill-rule="evenodd" xlink:href="#path-3"></use>
                    </g>
                    <rect id="Rectangle" fill="#D8D8D8" x="25" y="20" width="55" height="6"></rect>
                    <rect id="Rectangle" fill="#D8D8D8" x="103" y="20" width="55" height="6"></rect>
                    <rect id="Rectangle" fill="#128BBA" x="25" y="38" width="55" height="2"></rect>
                    <rect id="Rectangle" stroke="#D9D9D9" fill="#FFFFFF" x="25" y="64" width="449" height="195"></rect>
                    <path d="M65.213,111 L65.213,108.447 L58.037,108.447 L58.037,104.054 L63.534,104.054 L63.534,101.501 L58.037,101.501 L58.037,97.223 L64.845,97.223 L64.845,94.67 L55.07,94.67 L55.07,111 L65.213,111 Z M70.825,111.276 C73.493,111.276 74.413,109.206 74.39,109.206 L74.436,109.206 C74.436,109.206 74.39,109.574 74.39,110.034 L74.39,111 L77.081,111 L77.081,103.663 C77.081,100.696 75.287,98.994 72.205,98.994 C69.422,98.994 67.605,100.443 67.605,100.443 L68.709,102.536 L68.7378689,102.515516 C68.9564432,102.362893 70.38432,101.409 71.929,101.409 C73.217,101.409 74.183,101.938 74.183,103.479 L74.183,103.64 L73.792,103.64 C71.883,103.64 66.846,103.893 66.846,107.619 C66.846,109.965 68.732,111.276 70.825,111.276 Z M71.561,108.999 C70.365,108.999 69.79,108.263 69.79,107.481 C69.79,105.848 72.205,105.641 73.7,105.641 L74.206,105.641 L74.206,105.917 C74.206,107.343 73.102,108.999 71.561,108.999 Z M83.038,111 L83.038,106.354 C83.038,105.664 83.107,105.02 83.291,104.445 C83.843,102.697 85.246,101.984 86.488,101.984 C86.879,101.984 87.178,102.03 87.178,102.03 L87.178,99.155 C87.178,99.155 86.925,99.109 86.649,99.109 C84.855,99.109 83.452,100.443 82.923,102.122 L82.877,102.122 L82.881784,102.07784 C82.89356,101.96376 82.923,101.6436 82.923,101.294 L82.923,99.27 L80.117,99.27 L80.117,111 L83.038,111 Z M92.077,111 L92.077,105.618 C92.077,105.066 92.123,104.537 92.284,104.054 C92.721,102.651 93.871,101.662 95.435,101.662 C96.93,101.662 97.298,102.628 97.298,104.054 L97.298,111 L100.196,111 L100.196,103.456 C100.196,100.351 98.724,98.994 96.125,98.994 C93.756,98.994 92.468,100.443 91.962,101.432 L91.916,101.432 C91.916,101.432 91.962,101.064 91.962,100.627 L91.962,99.27 L89.156,99.27 L89.156,111 L92.077,111 Z M119.355,111 L119.355,108.447 L111.719,108.447 C111.788,105.365 119.102,104.468 119.102,99.224 C119.102,96.142 116.664,94.394 113.789,94.394 C109.879,94.394 108.384,97.66 108.384,97.66 L110.592,99.132 C110.592,99.132 111.627,97.2 113.536,97.2 C114.916,97.2 116.02,98.051 116.02,99.477 C116.02,102.72 108.384,103.663 108.384,109.551 C108.384,110.011 108.453,110.471 108.522,111 L119.355,111 Z M127.796,111.276 C132.258,111.276 133.73,107.504 133.73,102.812 C133.73,98.12 132.258,94.394 127.796,94.394 C123.334,94.394 121.885,98.12 121.885,102.812 C121.885,107.504 123.334,111.276 127.796,111.276 Z M127.796,108.562 C125.565,108.562 124.921,106.032 124.921,102.812 C124.921,99.638 125.565,97.131 127.796,97.131 C130.027,97.131 130.671,99.638 130.671,102.812 C130.671,106.032 130.027,108.562 127.796,108.562 Z M139.664,101.662 C141.734,101.662 143.436,100.052 143.436,98.028 C143.436,96.05 141.734,94.394 139.664,94.394 C137.594,94.394 135.915,96.05 135.915,98.028 C135.915,100.052 137.594,101.662 139.664,101.662 Z M139.181,111 L151.716,94.67 L149.025,94.67 L136.49,111 L139.181,111 Z M139.664,99.546 C138.813,99.546 138.146,98.879 138.146,98.028 C138.146,97.2 138.813,96.51 139.664,96.51 C140.515,96.51 141.205,97.2 141.205,98.028 C141.205,98.879 140.515,99.546 139.664,99.546 Z M148.588,111.276 C150.658,111.276 152.337,109.666 152.337,107.665 C152.337,105.687 150.658,104.031 148.588,104.031 C146.495,104.031 144.839,105.687 144.839,107.665 C144.839,109.666 146.495,111.276 148.588,111.276 Z M148.588,109.16 C147.737,109.16 147.07,108.493 147.07,107.642 C147.07,106.814 147.737,106.124 148.588,106.124 C149.439,106.124 150.129,106.814 150.129,107.642 C150.129,108.493 149.439,109.16 148.588,109.16 Z M55.899,134 L55.899,128.787 L57.316,128.787 L57.316,127.474 L55.899,127.474 L55.899,127.214 C55.899,126.252 56.705,126.135 57.173,126.135 C57.368,126.135 57.511,126.161 57.511,126.161 L57.511,124.757 C57.511,124.757 57.29,124.718 56.952,124.718 C56.029,124.718 54.248,125.004 54.248,127.175 L54.248,127.474 L53.429,127.474 L53.429,128.787 L54.248,128.787 L54.248,134 L55.899,134 Z M61.58,134.156 C63.595,134.156 65.22,132.726 65.22,130.685 C65.22,128.657 63.595,127.214 61.567,127.214 C59.552,127.214 57.927,128.657 57.927,130.685 C57.927,132.726 59.552,134.156 61.58,134.156 Z M61.58,132.752 C60.501,132.752 59.604,131.92 59.604,130.685 C59.604,129.463 60.501,128.618 61.58,128.618 C62.646,128.618 63.543,129.463 63.543,130.685 C63.543,131.92 62.646,132.752 61.58,132.752 Z M68.197,134 L68.197,131.374 C68.197,130.984 68.236,130.62 68.34,130.295 C68.652,129.307 69.445,128.904 70.147,128.904 C70.368,128.904 70.537,128.93 70.537,128.93 L70.537,127.305 C70.537,127.305 70.394,127.279 70.238,127.279 C69.224,127.279 68.431,128.033 68.132,128.982 L68.106,128.982 C68.106,128.982 68.132,128.761 68.132,128.514 L68.132,127.37 L66.546,127.37 L66.546,134 L68.197,134 Z M77.908,134.156 C79.559,134.156 80.573,133.207 80.573,133.207 L79.936,132.024 C79.936,132.024 79.091,132.752 78.025,132.752 C77.037,132.752 76.14,132.154 76.036,130.997 L80.612,130.997 C80.612,130.997 80.651,130.555 80.651,130.36 C80.651,128.605 79.624,127.214 77.713,127.214 C75.737,127.214 74.346,128.644 74.346,130.685 C74.346,132.57 75.711,134.156 77.908,134.156 Z M78.987,129.866 L76.088,129.866 C76.244,129.008 76.829,128.488 77.674,128.488 C78.402,128.488 78.961,128.969 78.987,129.866 Z M85.461,134 L87.84,127.37 L86.098,127.37 L84.72,131.478 C84.59,131.868 84.499,132.479 84.486,132.479 L84.46,132.479 C84.447,132.479 84.356,131.868 84.226,131.478 L82.848,127.37 L81.106,127.37 L83.511,134 L85.461,134 Z M91.857,134.156 C93.508,134.156 94.522,133.207 94.522,133.207 L93.885,132.024 C93.885,132.024 93.04,132.752 91.974,132.752 C90.986,132.752 90.089,132.154 89.985,130.997 L94.561,130.997 C94.561,130.997 94.6,130.555 94.6,130.36 C94.6,128.605 93.573,127.214 91.662,127.214 C89.686,127.214 88.295,128.644 88.295,130.685 C88.295,132.57 89.66,134.156 91.857,134.156 Z M92.936,129.866 L90.037,129.866 C90.193,129.008 90.778,128.488 91.623,128.488 C92.351,128.488 92.91,128.969 92.936,129.866 Z M97.616,134 L97.616,131.374 C97.616,130.984 97.655,130.62 97.759,130.295 C98.071,129.307 98.864,128.904 99.566,128.904 C99.787,128.904 99.956,128.93 99.956,128.93 L99.956,127.305 C99.956,127.305 99.813,127.279 99.657,127.279 C98.643,127.279 97.85,128.033 97.551,128.982 L97.525,128.982 C97.525,128.982 97.551,128.761 97.551,128.514 L97.551,127.37 L95.965,127.37 L95.965,134 L97.616,134 Z M101.841,136.73 C102.842,136.73 103.765,136.21 104.233,135.001 L107.197,127.37 L105.39,127.37 L104.09,131.218 C103.973,131.569 103.869,132.089 103.869,132.089 L103.843,132.089 C103.843,132.089 103.726,131.543 103.596,131.192 L102.205,127.37 L100.346,127.37 L103.141,133.896 L102.894,134.481 C102.647,135.066 102.205,135.339 101.75,135.339 C101.373,135.339 101.009,135.066 101.009,135.066 L100.463,136.301 C100.463,136.301 101.048,136.73 101.841,136.73 Z M113.307,134.156 C114.88,134.156 115.842,133.272 115.842,132.167 C115.842,130.035 112.618,130.152 112.618,129.216 C112.618,128.8 113.034,128.618 113.463,128.618 C114.477,128.618 115.088,129.19 115.088,129.19 L115.699,127.968 C115.699,127.968 114.971,127.214 113.476,127.214 C112.046,127.214 110.941,127.929 110.941,129.164 C110.941,131.296 114.165,131.166 114.165,132.154 C114.165,132.544 113.762,132.752 113.294,132.752 C112.215,132.752 111.487,132.024 111.487,132.024 L110.733,133.181 C110.733,133.181 111.656,134.156 113.307,134.156 Z M120.21,134.065 C120.522,134.065 120.717,134.026 120.717,134.026 L120.717,132.583 C120.717,132.583 120.6,132.609 120.418,132.609 C119.963,132.609 119.105,132.453 119.105,131.361 L119.105,128.787 L120.613,128.787 L120.613,127.474 L119.105,127.474 L119.105,125.563 L117.493,125.563 L117.493,127.474 L116.596,127.474 L116.596,128.787 L117.454,128.787 L117.454,131.569 C117.454,133.792 119.287,134.065 120.21,134.065 Z M124.279,134.156 C125.41,134.156 126.255,133.467 126.58,132.778 L126.606,132.778 C126.606,132.778 126.58,132.986 126.58,133.246 L126.58,134 L128.166,134 L128.166,127.37 L126.515,127.37 L126.515,130.412 C126.515,131.595 125.852,132.648 124.656,132.648 C123.837,132.648 123.629,132.102 123.629,131.296 L123.629,127.37 L121.978,127.37 L121.978,131.634 C121.978,133.441 122.862,134.156 124.279,134.156 Z M132.469,134.156 C133.99,134.156 134.549,133.025 134.549,133.025 L134.575,133.025 C134.575,133.025 134.549,133.207 134.549,133.454 L134.549,134 L136.109,134 L136.109,124.77 L134.458,124.77 L134.458,127.682 C134.458,127.89 134.471,128.059 134.471,128.059 L134.445,128.059 C134.445,128.059 133.99,127.214 132.534,127.214 C130.779,127.214 129.531,128.579 129.531,130.685 C129.531,132.739 130.675,134.156 132.469,134.156 Z M132.846,132.765 C131.871,132.765 131.195,131.946 131.195,130.685 C131.195,129.372 131.949,128.631 132.859,128.631 C133.964,128.631 134.51,129.645 134.51,130.672 C134.51,132.141 133.704,132.765 132.846,132.765 Z M141.023,134.156 C142.674,134.156 143.688,133.207 143.688,133.207 L143.051,132.024 C143.051,132.024 142.206,132.752 141.14,132.752 C140.152,132.752 139.255,132.154 139.151,130.997 L143.727,130.997 C143.727,130.997 143.766,130.555 143.766,130.36 C143.766,128.605 142.739,127.214 140.828,127.214 C138.852,127.214 137.461,128.644 137.461,130.685 C137.461,132.57 138.826,134.156 141.023,134.156 Z M142.102,129.866 L139.203,129.866 C139.359,129.008 139.944,128.488 140.789,128.488 C141.517,128.488 142.076,128.969 142.102,129.866 Z M146.782,134 L146.782,130.958 C146.782,130.646 146.808,130.347 146.899,130.074 C147.146,129.281 147.796,128.722 148.68,128.722 C149.525,128.722 149.733,129.268 149.733,130.074 L149.733,134 L151.371,134 L151.371,129.736 C151.371,127.981 150.539,127.214 149.07,127.214 C147.731,127.214 147.003,128.033 146.717,128.592 L146.691,128.592 L146.695062,128.555641 C146.702375,128.485563 146.717,128.32225 146.717,128.137 L146.717,127.37 L145.131,127.37 L145.131,134 L146.782,134 Z M156.142,134.065 C156.454,134.065 156.649,134.026 156.649,134.026 L156.649,132.583 C156.649,132.583 156.532,132.609 156.35,132.609 C155.895,132.609 155.037,132.453 155.037,131.361 L155.037,128.787 L156.545,128.787 L156.545,127.474 L155.037,127.474 L155.037,125.563 L153.425,125.563 L153.425,127.474 L152.528,127.474 L152.528,128.787 L153.386,128.787 L153.386,131.569 C153.386,133.792 155.219,134.065 156.142,134.065 Z M162.811,134 L162.811,131.374 C162.811,130.984 162.85,130.62 162.954,130.295 C163.266,129.307 164.059,128.904 164.761,128.904 C164.982,128.904 165.151,128.93 165.151,128.93 L165.151,127.305 C165.151,127.305 165.008,127.279 164.852,127.279 C163.838,127.279 163.045,128.033 162.746,128.982 L162.72,128.982 C162.72,128.982 162.746,128.761 162.746,128.514 L162.746,127.37 L161.16,127.37 L161.16,134 L162.811,134 Z M169.363,134.156 C171.014,134.156 172.028,133.207 172.028,133.207 L171.391,132.024 C171.391,132.024 170.546,132.752 169.48,132.752 C168.492,132.752 167.595,132.154 167.491,130.997 L172.067,130.997 C172.067,130.997 172.106,130.555 172.106,130.36 C172.106,128.605 171.079,127.214 169.168,127.214 C167.192,127.214 165.801,128.644 165.801,130.685 C165.801,132.57 167.166,134.156 169.363,134.156 Z M170.442,129.866 L167.543,129.866 C167.699,129.008 168.284,128.488 169.129,128.488 C169.857,128.488 170.416,128.969 170.442,129.866 Z M175.46,134 L175.46,128.787 L176.877,128.787 L176.877,127.474 L175.46,127.474 L175.46,127.214 C175.46,126.252 176.266,126.135 176.734,126.135 C176.929,126.135 177.072,126.161 177.072,126.161 L177.072,124.757 C177.072,124.757 176.851,124.718 176.513,124.718 C175.59,124.718 173.809,125.004 173.809,127.175 L173.809,127.474 L172.99,127.474 L172.99,128.787 L173.809,128.787 L173.809,134 L175.46,134 Z M181.076,134.156 C182.727,134.156 183.741,133.207 183.741,133.207 L183.104,132.024 C183.104,132.024 182.259,132.752 181.193,132.752 C180.205,132.752 179.308,132.154 179.204,130.997 L183.78,130.997 C183.78,130.997 183.819,130.555 183.819,130.36 C183.819,128.605 182.792,127.214 180.881,127.214 C178.905,127.214 177.514,128.644 177.514,130.685 C177.514,132.57 178.879,134.156 181.076,134.156 Z M182.155,129.866 L179.256,129.866 C179.412,129.008 179.997,128.488 180.842,128.488 C181.57,128.488 182.129,128.969 182.155,129.866 Z M186.835,134 L186.835,131.374 C186.835,130.984 186.874,130.62 186.978,130.295 C187.29,129.307 188.083,128.904 188.785,128.904 C189.006,128.904 189.175,128.93 189.175,128.93 L189.175,127.305 C189.175,127.305 189.032,127.279 188.876,127.279 C187.862,127.279 187.069,128.033 186.77,128.982 L186.744,128.982 C186.744,128.982 186.77,128.761 186.77,128.514 L186.77,127.37 L185.184,127.37 L185.184,134 L186.835,134 Z M191.944,134 L191.944,131.374 C191.944,130.984 191.983,130.62 192.087,130.295 C192.399,129.307 193.192,128.904 193.894,128.904 C194.115,128.904 194.284,128.93 194.284,128.93 L194.284,127.305 C194.284,127.305 194.141,127.279 193.985,127.279 C192.971,127.279 192.178,128.033 191.879,128.982 L191.853,128.982 C191.853,128.982 191.879,128.761 191.879,128.514 L191.879,127.37 L190.293,127.37 L190.293,134 L191.944,134 Z M198.496,134.156 C200.147,134.156 201.161,133.207 201.161,133.207 L200.524,132.024 C200.524,132.024 199.679,132.752 198.613,132.752 C197.625,132.752 196.728,132.154 196.624,130.997 L201.2,130.997 C201.2,130.997 201.239,130.555 201.239,130.36 C201.239,128.605 200.212,127.214 198.301,127.214 C196.325,127.214 194.934,128.644 194.934,130.685 C194.934,132.57 196.299,134.156 198.496,134.156 Z M199.575,129.866 L196.676,129.866 C196.832,129.008 197.417,128.488 198.262,128.488 C198.99,128.488 199.549,128.969 199.575,129.866 Z M205.087,134.156 C206.608,134.156 207.167,133.025 207.167,133.025 L207.193,133.025 C207.193,133.025 207.167,133.207 207.167,133.454 L207.167,134 L208.727,134 L208.727,124.77 L207.076,124.77 L207.076,127.682 C207.076,127.89 207.089,128.059 207.089,128.059 L207.063,128.059 C207.063,128.059 206.608,127.214 205.152,127.214 C203.397,127.214 202.149,128.579 202.149,130.685 C202.149,132.739 203.293,134.156 205.087,134.156 Z M205.464,132.765 C204.489,132.765 203.813,131.946 203.813,130.685 C203.813,129.372 204.567,128.631 205.477,128.631 C206.582,128.631 207.128,129.645 207.128,130.672 C207.128,132.141 206.322,132.765 205.464,132.765 Z M217.242,134.156 C218.997,134.156 220.284,132.791 220.284,130.685 C220.284,128.631 219.14,127.214 217.346,127.214 C215.942,127.214 215.357,128.176 215.357,128.176 L215.331,128.176 C215.331,128.176 215.357,127.942 215.357,127.617 L215.357,124.77 L213.706,124.77 L213.706,134 L215.266,134 L215.266,133.623 C215.266,133.363 215.24,133.168 215.24,133.168 L215.266,133.168 C215.266,133.168 215.864,134.156 217.242,134.156 Z M216.956,132.765 C215.851,132.765 215.305,131.751 215.305,130.724 C215.305,129.255 216.111,128.631 216.969,128.631 C217.944,128.631 218.62,129.45 218.62,130.711 C218.62,132.024 217.866,132.765 216.956,132.765 Z M222.13,136.73 C223.131,136.73 224.054,136.21 224.522,135.001 L227.486,127.37 L225.679,127.37 L224.379,131.218 C224.262,131.569 224.158,132.089 224.158,132.089 L224.132,132.089 C224.132,132.089 224.015,131.543 223.885,131.192 L222.494,127.37 L220.635,127.37 L223.43,133.896 L223.183,134.481 C222.936,135.066 222.494,135.339 222.039,135.339 C221.662,135.339 221.298,135.066 221.298,135.066 L220.752,136.301 C220.752,136.301 221.337,136.73 222.13,136.73 Z M54.391,151.73 C55.392,151.73 56.315,151.21 56.783,150.001 L59.747,142.37 L57.94,142.37 L56.64,146.218 C56.523,146.569 56.419,147.089 56.419,147.089 L56.393,147.089 C56.393,147.089 56.276,146.543 56.146,146.192 L54.755,142.37 L52.896,142.37 L55.691,148.896 L55.444,149.481 C55.197,150.066 54.755,150.339 54.3,150.339 C53.923,150.339 53.559,150.066 53.559,150.066 L53.013,151.301 C53.013,151.301 53.598,151.73 54.391,151.73 Z M63.842,149.156 C65.857,149.156 67.482,147.726 67.482,145.685 C67.482,143.657 65.857,142.214 63.829,142.214 C61.814,142.214 60.189,143.657 60.189,145.685 C60.189,147.726 61.814,149.156 63.842,149.156 Z M63.842,147.752 C62.763,147.752 61.866,146.92 61.866,145.685 C61.866,144.463 62.763,143.618 63.842,143.618 C64.908,143.618 65.805,144.463 65.805,145.685 C65.805,146.92 64.908,147.752 63.842,147.752 Z M71.018,149.156 C72.149,149.156 72.994,148.467 73.319,147.778 L73.345,147.778 C73.345,147.778 73.319,147.986 73.319,148.246 L73.319,149 L74.905,149 L74.905,142.37 L73.254,142.37 L73.254,145.412 C73.254,146.595 72.591,147.648 71.395,147.648 C70.576,147.648 70.368,147.102 70.368,146.296 L70.368,142.37 L68.717,142.37 L68.717,146.634 C68.717,148.441 69.601,149.156 71.018,149.156 Z M78.376,149 L78.376,146.374 C78.376,145.984 78.415,145.62 78.519,145.295 C78.831,144.307 79.624,143.904 80.326,143.904 C80.547,143.904 80.716,143.93 80.716,143.93 L80.716,142.305 C80.716,142.305 80.573,142.279 80.417,142.279 C79.403,142.279 78.61,143.033 78.311,143.982 L78.285,143.982 C78.285,143.982 78.311,143.761 78.311,143.514 L78.311,142.37 L76.725,142.37 L76.725,149 L78.376,149 Z M88.113,149.156 C89.894,149.156 90.843,148.077 90.843,148.077 L90.206,146.907 C90.206,146.907 89.374,147.752 88.256,147.752 C86.995,147.752 86.189,146.79 86.189,145.672 C86.189,144.541 86.982,143.618 88.204,143.618 C89.244,143.618 89.933,144.333 89.933,144.333 L90.661,143.202 C90.661,143.202 89.842,142.214 88.113,142.214 C85.916,142.214 84.512,143.8 84.512,145.685 C84.512,147.609 85.916,149.156 88.113,149.156 Z M93.729,149 L93.729,145.958 C93.729,145.646 93.755,145.36 93.833,145.1 C94.08,144.294 94.756,143.722 95.627,143.722 C96.472,143.722 96.68,144.268 96.68,145.074 L96.68,149 L98.318,149 L98.318,144.736 C98.318,142.981 97.486,142.214 96.017,142.214 C94.86,142.214 94.054,142.89 93.729,143.527 L93.703,143.527 C93.703,143.527 93.729,143.293 93.729,142.968 L93.729,139.77 L92.078,139.77 L92.078,149 L93.729,149 Z M101.737,149.156 C103.245,149.156 103.765,147.986 103.752,147.986 L103.778,147.986 C103.778,147.986 103.752,148.194 103.752,148.454 L103.752,149 L105.273,149 L105.273,144.853 C105.273,143.176 104.259,142.214 102.517,142.214 C100.944,142.214 99.917,143.033 99.917,143.033 L100.541,144.216 C100.541,144.216 101.412,143.579 102.361,143.579 C103.089,143.579 103.635,143.878 103.635,144.749 L103.635,144.84 L103.414,144.84 C102.335,144.84 99.488,144.983 99.488,147.089 C99.488,148.415 100.554,149.156 101.737,149.156 Z M102.153,147.869 C101.477,147.869 101.152,147.453 101.152,147.011 C101.152,146.088 102.517,145.971 103.362,145.971 L103.648,145.971 L103.648,146.127 C103.648,146.933 103.024,147.869 102.153,147.869 Z M108.64,151.6 L108.64,148.818 C108.64,148.48 108.614,148.246 108.614,148.246 L108.64,148.246 C108.64,148.246 109.225,149.156 110.538,149.156 C112.28,149.156 113.567,147.791 113.567,145.685 C113.567,143.631 112.423,142.214 110.629,142.214 C109.069,142.214 108.497,143.306 108.497,143.306 L108.471,143.306 C108.471,143.306 108.497,143.098 108.497,142.851 L108.497,142.37 L106.989,142.37 L106.989,151.6 L108.64,151.6 Z M110.239,147.765 C109.147,147.765 108.588,146.751 108.588,145.724 C108.588,144.255 109.394,143.631 110.252,143.631 C111.227,143.631 111.903,144.45 111.903,145.711 C111.903,147.024 111.149,147.765 110.239,147.765 Z M117.974,149.065 C118.286,149.065 118.481,149.026 118.481,149.026 L118.481,147.583 C118.481,147.583 118.364,147.609 118.182,147.609 C117.727,147.609 116.869,147.453 116.869,146.361 L116.869,143.787 L118.377,143.787 L118.377,142.474 L116.869,142.474 L116.869,140.563 L115.257,140.563 L115.257,142.474 L114.36,142.474 L114.36,143.787 L115.218,143.787 L115.218,146.569 C115.218,148.792 117.051,149.065 117.974,149.065 Z M122.927,149.156 C124.578,149.156 125.592,148.207 125.592,148.207 L124.955,147.024 C124.955,147.024 124.11,147.752 123.044,147.752 C122.056,147.752 121.159,147.154 121.055,145.997 L125.631,145.997 C125.631,145.997 125.67,145.555 125.67,145.36 C125.67,143.605 124.643,142.214 122.732,142.214 C120.756,142.214 119.365,143.644 119.365,145.685 C119.365,147.57 120.73,149.156 122.927,149.156 Z M124.006,144.866 L121.107,144.866 C121.263,144.008 121.848,143.488 122.693,143.488 C123.421,143.488 123.98,143.969 124.006,144.866 Z M128.686,149 L128.686,146.374 C128.686,145.984 128.725,145.62 128.829,145.295 C129.141,144.307 129.934,143.904 130.636,143.904 C130.857,143.904 131.026,143.93 131.026,143.93 L131.026,142.305 C131.026,142.305 130.883,142.279 130.727,142.279 C129.713,142.279 128.92,143.033 128.621,143.982 L128.595,143.982 C128.595,143.982 128.621,143.761 128.621,143.514 L128.621,142.37 L127.035,142.37 L127.035,149 L128.686,149 Z" id="Earn20%foreverystudentreferredbyyourchapter" fill="#1C576F" fill-rule="nonzero"></path>
                    <path d="M53,171 L248,171 L248,194 L53,194 L53,171 Z" id="Rectangle" stroke="#979797" fill="#FFFFFF" stroke-dasharray="4,4"></path>
                    <rect id="Rectangle" fill="#D8D8D8" x="61" y="180" width="144" height="6"></rect>
                </g>
                <g id="Group-11" transform="translate(273.000000, 30.000000)">
                    <g id="Group-10">
                        <mask id="mask-6" fill="white">
                            <use xlink:href="#path-5"></use>
                        </mask>
                        <use id="Mask" fill="#F5F7F8" xlink:href="#path-5"></use>
                        <g mask="url(#mask-6)">
                            <g transform="translate(-158.000000, 13.000000)">
                                <rect id="Rectangle" stroke="#D9D9D9" stroke-width="1" fill="#FFFFFF" fill-rule="evenodd" x="0" y="0" width="382" height="280"></rect>
                                <circle id="Oval" stroke="none" fill="#FFE4B1" fill-rule="evenodd" cx="273.5" cy="63.5" r="35.5"></circle>
                                <g id="Group-58" stroke="none" stroke-width="1" fill="none" fill-rule="evenodd" transform="translate(238.000000, 28.000000)" stroke-linecap="round" stroke-linejoin="round">
                                    <line x1="45.6068" y1="35.3018" x2="45.6068" y2="44.2718" id="Stroke-4718" stroke="#000000" stroke-width="3"></line>
                                    <line x1="54.6068" y1="33.4193" x2="54.6068" y2="42.4193" id="Stroke-4719" stroke="#000000" stroke-width="3"></line>
                                    <line x1="36.6068" y1="36.0575" x2="36.6068" y2="45.0575" id="Stroke-4720" stroke="#000000" stroke-width="3"></line>
                                    <line x1="27.6068" y1="36.0662" x2="27.6068" y2="45.0662" id="Stroke-4721" stroke="#000000" stroke-width="3"></line>
                                    <line x1="18.6068" y1="35.3003" x2="18.6068" y2="44.3003" id="Stroke-4722" stroke="#000000" stroke-width="3"></line>
                                    <line x1="9.6068" y1="33.4823" x2="9.6068" y2="42.4823" id="Stroke-4723" stroke="#000000" stroke-width="3"></line>
                                    <path d="M8.3678,21.2012 C3.4718,22.7882 0.4988,24.8702 0.4988,27.1532 C0.4988,32.1242 14.6048,36.1532 31.9988,36.1532 C49.3958,36.1532 63.4988,32.1242 63.4988,27.1532 C63.4988,26.0792 62.8418,25.0502 61.6388,24.0962" id="Stroke-4724" stroke="#000000" stroke-width="3"></path>
                                    <path d="M0.5,27.1526 L0.5,36.1526 C0.5,41.1236 14.603,45.1526 32,45.1526 C49.397,45.1526 63.5,41.1236 63.5,36.1526 L63.5,27.1526" id="Stroke-4725" stroke="#000000" stroke-width="3"></path>
                                    <line x1="51.6068" y1="53.3018" x2="51.6068" y2="62.2718" id="Stroke-4726" stroke="#000000" stroke-width="3"></line>
                                    <line x1="60.6068" y1="51.4193" x2="60.6068" y2="60.4193" id="Stroke-4727" stroke="#000000" stroke-width="3"></line>
                                    <line x1="42.6068" y1="54.0575" x2="42.6068" y2="63.0575" id="Stroke-4728" stroke="#000000" stroke-width="3"></line>
                                    <line x1="33.6068" y1="54.0662" x2="33.6068" y2="63.0662" id="Stroke-4729" stroke="#000000" stroke-width="3"></line>
                                    <line x1="24.6068" y1="53.3003" x2="24.6068" y2="62.3003" id="Stroke-4730" stroke="#000000" stroke-width="3"></line>
                                    <line x1="15.6068" y1="51.4823" x2="15.6068" y2="60.4823" id="Stroke-4731" stroke="#000000" stroke-width="3"></line>
                                    <path d="M8.3648,42.0956 C7.1588,43.0496 6.4988,44.0786 6.4988,45.1526 C6.4988,50.1236 20.6048,54.1526 37.9988,54.1526 C55.3958,54.1526 69.4988,50.1236 69.4988,45.1526 C69.4988,42.8696 66.5288,40.7876 61.6328,39.2006" id="Stroke-4732" stroke="#000000" stroke-width="3"></path>
                                    <path d="M6.5,45.1526 L6.5,54.1526 C6.5,59.1236 20.603,63.1526 38,63.1526 C55.397,63.1526 69.5,59.1236 69.5,54.1526 L69.5,45.1526" id="Stroke-4733" stroke="#000000" stroke-width="3"></path>
                                    <line x1="51.6068" y1="17.3018" x2="51.6068" y2="26.2718" id="Stroke-4734" stroke="#000000" stroke-width="3"></line>
                                    <line x1="60.6068" y1="15.4193" x2="60.6068" y2="24.4193" id="Stroke-4735" stroke="#000000" stroke-width="3"></line>
                                    <line x1="42.6068" y1="18.0575" x2="42.6068" y2="27.0575" id="Stroke-4736" stroke="#000000" stroke-width="3"></line>
                                    <line x1="33.6068" y1="18.0662" x2="33.6068" y2="27.0662" id="Stroke-4737" stroke="#000000" stroke-width="3"></line>
                                    <line x1="24.6068" y1="17.3003" x2="24.6068" y2="26.3003" id="Stroke-4738" stroke="#000000" stroke-width="3"></line>
                                    <line x1="15.6068" y1="15.4823" x2="15.6068" y2="24.4823" id="Stroke-4739" stroke="#000000" stroke-width="3"></line>
                                    <path d="M6.5,9.1526 C6.5,14.1236 20.603,18.1526 38,18.1526 C55.397,18.1526 69.5,14.1236 69.5,9.1526 C69.5,4.1816 55.397,0.1526 38,0.1526 C20.603,0.1526 6.5,4.1816 6.5,9.1526 Z" id="Stroke-4740" stroke="#000000" stroke-width="3"></path>
                                    <path d="M6.5,9.1526 L6.5,18.1526 C6.5,23.1236 20.603,27.1526 38,27.1526 C55.397,27.1526 69.5,23.1236 69.5,18.1526 L69.5,9.1526" id="Stroke-4741" stroke="#000000" stroke-width="3"></path>
                                </g>
                                <path d="M217.442667,131 L217.442667,126.312 L221.218667,119.56 L218.034667,119.56 L216.754667,122.312 C216.386667,123.096 216.066667,123.96 216.066667,123.96 L216.034667,123.96 C216.034667,123.96 215.714667,123.096 215.346667,122.312 L214.050667,119.56 L210.866667,119.56 L214.642667,126.312 L214.642667,131 L217.442667,131 Z M228.331556,131.192 C231.787556,131.192 234.315556,128.568 234.315556,125.208 C234.315556,121.928 231.787556,119.368 228.331556,119.368 C224.875556,119.368 222.347556,121.928 222.347556,125.208 C222.347556,128.568 224.875556,131.192 228.331556,131.192 Z M228.331556,128.632 C226.619556,128.632 225.243556,127.16 225.243556,125.208 C225.243556,123.336 226.619556,121.928 228.331556,121.928 C230.043556,121.928 231.419556,123.336 231.419556,125.208 C231.419556,127.16 230.043556,128.632 228.331556,128.632 Z M241.748444,131.192 C244.628444,131.192 246.516444,129.368 246.516444,126.792 L246.516444,119.56 L243.716444,119.56 L243.716444,126.792 C243.716444,127.992 242.932444,128.632 241.732444,128.632 C240.532444,128.632 239.748444,127.992 239.748444,126.792 L239.748444,119.56 L236.948444,119.56 L236.948444,126.792 C236.948444,129.368 238.836444,131.192 241.748444,131.192 Z M255.453333,131 L259.485333,119.56 L256.493333,119.56 L254.445333,126.072 C254.221333,126.792 254.013333,127.912 254.013333,127.912 L253.981333,127.912 L253.973009,127.86797 C253.932171,127.654007 253.74698,126.707294 253.549333,126.072 L251.533333,119.56 L248.493333,119.56 L252.541333,131 L255.453333,131 Z M269.014222,131 L269.014222,128.6 L264.422222,128.6 L264.422222,126.44 L267.910222,126.44 L267.910222,124.04 L264.422222,124.04 L264.422222,121.96 L268.790222,121.96 L268.790222,119.56 L261.622222,119.56 L261.622222,131 L269.014222,131 Z M283.864,131 L283.864,128.6 L279.272,128.6 L279.272,126.44 L282.76,126.44 L282.76,124.04 L279.272,124.04 L279.272,121.96 L283.64,121.96 L283.64,119.56 L276.472,119.56 L276.472,131 L283.864,131 Z M288.240889,131 L288.928889,128.6 L292.496889,128.6 L293.200889,131 L296.080889,131 L292.192889,119.56 L289.248889,119.56 L285.360889,131 L288.240889,131 Z M291.840889,126.36 L289.584889,126.36 L290.240889,124.136 C290.448889,123.416 290.704889,122.168 290.704889,122.168 L290.736889,122.168 C290.736889,122.168 290.992889,123.416 291.200889,124.136 L291.840889,126.36 Z M301.049778,131 L301.049778,127.144 L302.361778,127.144 L304.393778,131 L307.513778,131 L305.289778,127 C305.017778,126.52 304.857778,126.312 304.857778,126.312 L304.857778,126.28 C305.993778,125.704 306.569778,124.376 306.569778,123.16 C306.569778,121.496 305.753778,120.328 304.457778,119.832 C303.961778,119.64 303.401778,119.56 302.233778,119.56 L298.249778,119.56 L298.249778,131 L301.049778,131 Z M302.265778,124.744 L301.049778,124.744 L301.049778,121.96 L301.993778,121.96 C303.401778,121.96 303.721778,122.472 303.721778,123.336 C303.721778,124.248 303.161778,124.744 302.265778,124.744 Z M312.850667,131 L312.850667,125.672 C312.850667,124.952 312.722667,123.72 312.722667,123.72 L312.754667,123.72 C312.754667,123.72 313.266667,124.92 313.714667,125.672 L316.898667,131 L319.714667,131 L319.714667,119.56 L316.914667,119.56 L316.914667,124.904 C316.914667,125.624 317.042667,126.856 317.042667,126.856 L317.010667,126.856 C317.010667,126.856 316.498667,125.656 316.050667,124.904 L312.882667,119.56 L310.050667,119.56 L310.050667,131 L312.850667,131 Z M330.683556,131 L330.683556,128.6 L326.091556,128.6 L326.091556,126.44 L329.579556,126.44 L329.579556,124.04 L326.091556,124.04 L326.091556,121.96 L330.459556,121.96 L330.459556,119.56 L323.291556,119.56 L323.291556,131 L330.683556,131 Z M337.652444,131 C341.252444,131 343.556444,128.856 343.556444,125.256 C343.556444,121.656 341.252444,119.56 337.652444,119.56 L333.588444,119.56 L333.588444,131 L337.652444,131 Z M337.540444,128.6 L336.388444,128.6 L336.388444,121.96 L337.540444,121.96 C339.428444,121.96 340.660444,123.08 340.660444,125.256 C340.660444,127.448 339.476444,128.6 337.540444,128.6 Z M247.0535,159.277 L247.0535,157.184 C249.9975,156.724 251.6535,154.608 251.6535,152.17 C251.6535,147.087 244.1785,147.225 244.1785,145.27 C244.1785,144.35 245.0985,143.982 245.9265,143.982 C247.9045,143.982 249.5605,145.431 249.5605,145.431 L251.2625,142.142 L251.242481,142.121856 C251.06231,141.944435 249.665983,140.647793 247.0535,140.348 L247.0535,138.255 L244.5465,138.255 L244.5465,140.417 C241.9935,140.9 240.1535,142.74 240.1535,145.316 C240.1535,150.261 247.6285,150.422 247.6285,152.262 C247.6285,153.251 246.7315,153.573 245.9035,153.573 C243.8335,153.573 241.9705,151.871 241.9705,151.871 L239.8545,154.93 C239.8545,154.93 241.5105,156.747 244.5465,157.184 L244.5465,159.277 L247.0535,159.277 Z M265.2465,157 L265.2465,153.55 L258.2545,153.55 C258.3695,151.434 264.9935,150.445 264.9935,145.316 C264.9935,141.82 262.0725,140.279 259.3815,140.279 C255.1035,140.279 253.5855,143.821 253.5855,143.821 L256.5755,145.822 C256.5755,145.822 257.4495,144.074 259.0135,144.074 C259.8645,144.074 260.7845,144.557 260.7845,145.707 C260.7845,148.076 253.6775,149.157 253.6775,155.229 C253.6775,155.781 253.7465,156.356 253.8615,157 L265.2465,157 Z M269.4555,159.553 L272.0545,153.182 L268.2595,153.182 L266.5345,159.553 L269.4555,159.553 Z M280.2425,157.276 C284.9115,157.276 286.4295,153.458 286.4295,148.743 C286.4295,144.028 284.9115,140.279 280.2425,140.279 C275.5735,140.279 274.0555,144.028 274.0555,148.743 C274.0555,153.458 275.5735,157.276 280.2425,157.276 Z M280.2425,153.596 C278.6555,153.596 278.1955,151.434 278.1955,148.743 C278.1955,146.075 278.6555,143.959 280.2425,143.959 C281.8295,143.959 282.2895,146.075 282.2895,148.743 C282.2895,151.434 281.8295,153.596 280.2425,153.596 Z M294.9625,157.276 C299.6315,157.276 301.1495,153.458 301.1495,148.743 C301.1495,144.028 299.6315,140.279 294.9625,140.279 C290.2935,140.279 288.7755,144.028 288.7755,148.743 C288.7755,153.458 290.2935,157.276 294.9625,157.276 Z M294.9625,153.596 C293.3755,153.596 292.9155,151.434 292.9155,148.743 C292.9155,146.075 293.3755,143.959 294.9625,143.959 C296.5495,143.959 297.0095,146.075 297.0095,148.743 C297.0095,151.434 296.5495,153.596 294.9625,153.596 Z M309.6825,157.276 C314.3515,157.276 315.8695,153.458 315.8695,148.743 C315.8695,144.028 314.3515,140.279 309.6825,140.279 C305.0135,140.279 303.4955,144.028 303.4955,148.743 C303.4955,153.458 305.0135,157.276 309.6825,157.276 Z M309.6825,153.596 C308.0955,153.596 307.6355,151.434 307.6355,148.743 C307.6355,146.075 308.0955,143.959 309.6825,143.959 C311.2695,143.959 311.7295,146.075 311.7295,148.743 C311.7295,151.434 311.2695,153.596 309.6825,153.596 Z" id="YOUVEEARNED$2,000" stroke="none" fill="#1C576F" fill-rule="nonzero"></path>
                            </g>
                        </g>
                    </g>
                    <g id="Oval">
                        <use fill="black" fill-opacity="1" filter="url(#filter-8)" xlink:href="#path-7"></use>
                        <use stroke="#F5F7F8" stroke-width="4" fill-opacity="0" fill="#D8D8D8" fill-rule="evenodd" xlink:href="#path-7"></use>
                    </g>
                </g>
            </g>
        </g>
    </g>
</svg>