<svg width="40" height="35" viewBox="0 0 40 35" fill="none" xmlns="http://www.w3.org/2000/svg">
<g clip-path="url(#clip0_6503_789)">
<path d="M18.9568 13.4019L23.3916 20.3745L23.4583 20.4797L26.4313 25.1517L26.4511 25.1836L26.8017 25.7342C28.7772 28.8375 27.8388 32.9393 24.7078 34.8972L24.5522 34.9951L29.4093 34.8679L34.7331 34.7283C35.1924 34.7161 35.6344 34.6378 36.0517 34.5105C36.5776 34.3515 37.0666 34.1092 37.4987 33.7959C37.5653 33.7592 37.632 33.7249 37.6962 33.6858C38.6568 33.0862 39.3309 32.21 39.6939 31.231C40.1729 29.9315 40.0939 28.4484 39.3679 27.161C39.3556 27.1415 39.3457 27.1194 39.3334 27.0999C39.3013 27.046 39.2741 26.9897 39.2395 26.9359L39.1877 26.8551L27.3598 8.26481L27.3079 8.18405C27.2734 8.13021 27.2338 8.08126 27.1968 8.02987C27.1845 8.01029 27.1696 7.99071 27.1548 7.97113C26.2955 6.76702 24.9794 6.05728 23.5892 5.92757C22.5422 5.82967 21.4532 6.05728 20.4952 6.65689C18.1888 8.09839 17.4974 11.1209 18.9519 13.4092L18.9568 13.4019Z" fill="#0F8242"/>
<path d="M12.6599 26.4146L16.9442 19.3515L17.0084 19.2438L19.8801 14.5105L19.8999 14.4787L20.2382 13.9207C22.1445 10.7758 26.2632 9.76016 29.4363 11.6495L29.5943 11.7425L27.2929 7.50123L24.7693 2.85121C24.552 2.44984 24.2829 2.09497 23.9792 1.7817C23.5989 1.38767 23.1618 1.06462 22.6852 0.822328C22.621 0.780723 22.5618 0.73667 22.4976 0.697512C21.5247 0.117482 20.4333 -0.0856502 19.3863 0.0342715C17.9985 0.193351 16.6997 0.932461 15.8675 2.1537C15.8552 2.17328 15.8404 2.19286 15.828 2.21244C15.7935 2.26628 15.754 2.31523 15.7219 2.36907L15.6725 2.45228L4.2446 21.2873L4.19522 21.3705C4.16312 21.4244 4.13595 21.4831 4.10632 21.537C4.09398 21.559 4.0841 21.5786 4.07175 21.6006C3.37294 22.9026 3.32603 24.3882 3.8347 25.6755C4.21744 26.6471 4.91131 27.5086 5.88421 28.0862C8.22263 29.4787 11.2549 28.7298 12.6624 26.4121L12.6599 26.4146Z" fill="#05BFE0"/>
<path d="M25.083 25.2105H12.5983C8.89685 25.2105 5.89666 22.2369 5.89666 18.5683V18.3848L3.41503 22.5257L0.69387 27.0656C0.459288 27.4572 0.288907 27.8684 0.175319 28.2869C0.0321007 28.8131 -0.0222236 29.3515 0.0123464 29.8826C0.00987715 29.9584 0 30.0319 0 30.1077C0 31.2335 0.387678 32.2663 1.02969 33.0911C1.8816 34.1875 3.19032 34.9119 4.67683 34.9878C4.70152 34.9878 4.72375 34.9902 4.74844 34.9902C4.81264 34.9902 4.87438 35 4.93858 35H25.083C25.1472 35 25.209 34.9927 25.2732 34.9902C25.2979 34.9902 25.3201 34.9902 25.3448 34.9878C26.8288 34.9095 28.14 34.1851 28.9919 33.0886C29.6339 32.2614 30.0216 31.2286 30.0216 30.1053C30.0216 27.4009 27.8116 25.2105 25.083 25.2105Z" fill="#4F17A8"/>
</g>
<defs>
<clipPath id="clip0_6503_789">
<rect width="40" height="35" fill="white"/>
</clipPath>
</defs>
</svg>
