<?xml version="1.0" encoding="UTF-8"?>
<svg width="20px" height="38px" viewBox="0 0 20 38" version="1.1" xmlns="http://www.w3.org/2000/svg" xmlns:xlink="http://www.w3.org/1999/xlink">
    <!-- Generator: Sketch 60 (88103) - https://sketch.com -->
    <title>Shape</title>
    <desc>Created with Sketch.</desc>
    <g id="Page-1" stroke="none" stroke-width="1" fill="none" fill-rule="evenodd">
        <g id="Flash" transform="translate(-143.000000, -664.000000)" fill="#075879" fill-rule="nonzero">
            <g id="Group-7" transform="translate(143.000000, 664.000000)">
                <path d="M13.2183908,18.3408163 L17.7777778,15.1612245 C18.1226054,14.9285714 18.3141762,14.5408163 18.3141762,14.1142857 L18.3141762,1.24081633 C18.3141762,0.542857143 17.7394636,0 17.0881226,0 L2.91187739,0 C2.22222222,0 1.68582375,0.581632653 1.68582375,1.24081633 L1.68582375,14.0755102 C1.68582375,14.5020408 1.87739464,14.8897959 2.22222222,15.122449 L6.7816092,18.3020408 C2.83524904,19.6591837 0,23.4204082 0,27.8795918 C0,33.4632653 4.48275862,38 10,38 C15.5172414,38 20,33.4632653 20,27.8795918 C20,23.4591837 17.164751,19.6979592 13.2183908,18.3408163 Z M10.4819277,18 L9,16.875969 L9,3 L12,3 L12,16.875969 L10.4819277,18 Z M16,13.7770701 L14,15 L14,3 L16,3 L16,13.7770701 Z M4,3 L6,3 L6,15 L4,13.7770701 L4,3 Z M10.5,35 C6.36734694,35 3,31.6326531 3,27.5 C3,23.3673469 6.36734694,20 10.5,20 C14.6326531,20 18,23.3673469 18,27.5 C18,31.6326531 14.6326531,35 10.5,35 Z" id="Shape"></path>
            </g>
        </g>
    </g>
</svg>