<svg width="32" height="32" viewBox="0 0 32 32" fill="none" xmlns="http://www.w3.org/2000/svg">
<circle cx="16" cy="16" r="16" fill="#86C342"/>
<path d="M12.656 21C12.656 20.52 12.6933 20.088 12.768 19.704C12.8427 19.3093 12.976 18.9466 13.168 18.616C13.36 18.2853 13.616 17.976 13.936 17.688C14.256 17.4 14.6667 17.1173 15.168 16.84C15.5947 16.6053 15.9733 16.4026 16.304 16.232C16.6453 16.0506 16.928 15.8853 17.152 15.736C17.3867 15.5866 17.5627 15.4373 17.68 15.288C17.7973 15.128 17.856 14.9466 17.856 14.744C17.856 14.424 17.728 14.152 17.472 13.928C17.216 13.6933 16.848 13.576 16.368 13.576C16.112 13.576 15.8773 13.6133 15.664 13.688C15.4507 13.752 15.248 13.8426 15.056 13.96C14.8747 14.0773 14.704 14.2106 14.544 14.36C14.3947 14.4986 14.256 14.648 14.128 14.808L12.752 13.224C12.8907 13.0746 13.088 12.9146 13.344 12.744C13.6 12.5626 13.8987 12.3973 14.24 12.248C14.592 12.088 14.976 11.96 15.392 11.864C15.8187 11.7573 16.272 11.704 16.752 11.704C17.296 11.704 17.7813 11.7733 18.208 11.912C18.6347 12.04 18.992 12.2266 19.28 12.472C19.5787 12.7066 19.8027 12.9946 19.952 13.336C20.112 13.6666 20.192 14.0293 20.192 14.424C20.192 14.7973 20.1227 15.128 19.984 15.416C19.8453 15.704 19.6693 15.96 19.456 16.184C19.2427 16.408 19.008 16.6053 18.752 16.776C18.5067 16.936 18.2667 17.08 18.032 17.208C17.84 17.3146 17.632 17.432 17.408 17.56C17.1947 17.688 16.9813 17.832 16.768 17.992C16.5547 18.1413 16.3573 18.3066 16.176 18.488C16.0053 18.6693 15.872 18.8613 15.776 19.064H20.368V21H12.656Z" fill="white"/>
</svg>
