<svg width="109" height="42" viewBox="0 0 109 42" fill="none" xmlns="http://www.w3.org/2000/svg">
<path fill-rule="evenodd" clip-rule="evenodd" d="M87 12L84.0912 13.5293C83.3576 13.9149 82.5001 13.292 82.6402 12.4751L83.1958 9.23607L80.8425 6.94219C80.249 6.36365 80.5765 5.35568 81.3967 5.2365L84.6489 4.76393L86.1033 1.81698C86.4701 1.07374 87.5299 1.07374 87.8967 1.81699L89.3511 4.76393L92.6033 5.2365C93.4235 5.35568 93.751 6.36365 93.1575 6.94219L90.8042 9.23607L91.3598 12.4751C91.4999 13.292 90.6424 13.9149 89.9088 13.5293L87 12Z" fill="#FFBC00"/>
<path fill-rule="evenodd" clip-rule="evenodd" d="M71 12L68.0912 13.5293C67.3576 13.9149 66.5001 13.292 66.6402 12.4751L67.1958 9.23607L64.8425 6.94219C64.249 6.36365 64.5765 5.35568 65.3967 5.2365L68.6489 4.76393L70.1033 1.81698C70.4701 1.07374 71.5299 1.07374 71.8967 1.81699L73.3511 4.76393L76.6033 5.2365C77.4235 5.35568 77.751 6.36365 77.1575 6.94219L74.8042 9.23607L75.3598 12.4751C75.4999 13.292 74.6424 13.9149 73.9088 13.5293L71 12Z" fill="#FFBC00"/>
<path fill-rule="evenodd" clip-rule="evenodd" d="M55 12L52.0912 13.5293C51.3576 13.9149 50.5001 13.292 50.6402 12.4751L51.1958 9.23607L48.8425 6.94219C48.249 6.36365 48.5765 5.35568 49.3967 5.2365L52.6489 4.76393L54.1033 1.81698C54.4701 1.07374 55.5299 1.07374 55.8967 1.81699L57.3511 4.76393L60.6033 5.2365C61.4235 5.35568 61.751 6.36365 61.1575 6.94219L58.8042 9.23607L59.3598 12.4751C59.4999 13.292 58.6424 13.9149 57.9088 13.5293L55 12Z" fill="#FFBC00"/>
<path fill-rule="evenodd" clip-rule="evenodd" d="M39 12L36.0912 13.5293C35.3576 13.9149 34.5001 13.292 34.6402 12.4751L35.1958 9.23607L32.8425 6.94219C32.249 6.36365 32.5765 5.35568 33.3967 5.2365L36.6489 4.76393L38.1033 1.81698C38.4701 1.07374 39.5299 1.07374 39.8967 1.81699L41.3511 4.76393L44.6033 5.2365C45.4235 5.35568 45.751 6.36365 45.1575 6.94219L42.8042 9.23607L43.3598 12.4751C43.4999 13.292 42.6424 13.9149 41.9088 13.5293L39 12Z" fill="#FFBC00"/>
<path fill-rule="evenodd" clip-rule="evenodd" d="M23 12L20.0912 13.5293C19.3576 13.9149 18.5001 13.292 18.6402 12.4751L19.1958 9.23607L16.8425 6.94219C16.249 6.36365 16.5765 5.35568 17.3967 5.2365L20.6489 4.76393L22.1033 1.81698C22.4701 1.07374 23.5299 1.07374 23.8967 1.81699L25.3511 4.76393L28.6033 5.2365C29.4235 5.35568 29.751 6.36365 29.1575 6.94219L26.8042 9.23607L27.3598 12.4751C27.4999 13.292 26.6424 13.9149 25.9088 13.5293L23 12Z" fill="#FFBC00"/>
<rect x="0.5" y="22.5" width="108" height="19" rx="2.5" fill="white" stroke="#FFB30F"/>
<path d="M89.0371 28.5664H90.6938L91.5024 32.5874C91.5259 32.7046 91.5435 32.8203 91.5552 32.9346C91.5698 33.0459 91.5786 33.1279 91.5815 33.1807L91.5859 33.2642H91.6035C91.6064 33.0767 91.6416 32.8511 91.709 32.5874L92.7021 28.5664H93.9678L94.9302 32.5874C94.9595 32.7046 94.9829 32.8203 95.0005 32.9346C95.021 33.0459 95.0327 33.1279 95.0356 33.1807L95.04 33.2642H95.0576C95.0605 33.0767 95.0884 32.8511 95.1411 32.5874L96.02 28.5664H97.6504L96.02 35H94.2666L93.458 31.7524C93.4287 31.6294 93.4023 31.5049 93.3789 31.3789C93.3584 31.2529 93.3452 31.1577 93.3394 31.0933L93.3306 30.9966H93.313C93.2954 31.2251 93.2529 31.4771 93.1855 31.7524L92.377 35H90.6016L89.0371 28.5664Z" fill="#FFB30F"/>
<path d="M89.0371 28.5664H90.6938L91.5024 32.5874C91.5259 32.7046 91.5435 32.8203 91.5552 32.9346C91.5698 33.0459 91.5786 33.1279 91.5815 33.1807L91.5859 33.2642H91.6035C91.6064 33.0767 91.6416 32.8511 91.709 32.5874L92.7021 28.5664H93.9678L94.9302 32.5874C94.9595 32.7046 94.9829 32.8203 95.0005 32.9346C95.021 33.0459 95.0327 33.1279 95.0356 33.1807L95.04 33.2642H95.0576C95.0605 33.0767 95.0884 32.8511 95.1411 32.5874L96.02 28.5664H97.6504L96.02 35H94.2666L93.458 31.7524C93.4287 31.6294 93.4023 31.5049 93.3789 31.3789C93.3584 31.2529 93.3452 31.1577 93.3394 31.0933L93.3306 30.9966H93.313C93.2954 31.2251 93.2529 31.4771 93.1855 31.7524L92.377 35H90.6016L89.0371 28.5664Z" fill="black" fill-opacity="0.33"/>
<path d="M83.593 35V28.5664H87.6272V29.9155H85.1663V31.0845H87.1306V32.4336H85.1663V33.6509H87.7502V35H83.593Z" fill="#FFB30F"/>
<path d="M83.593 35V28.5664H87.6272V29.9155H85.1663V31.0845H87.1306V32.4336H85.1663V33.6509H87.7502V35H83.593Z" fill="black" fill-opacity="0.33"/>
<path d="M79.7881 35V28.5664H81.3613V35H79.7881Z" fill="#FFB30F"/>
<path d="M79.7881 35V28.5664H81.3613V35H79.7881Z" fill="black" fill-opacity="0.33"/>
<path d="M72.186 28.5664H73.8955L75.0293 32.2271C75.0674 32.3472 75.1055 32.4937 75.1436 32.6665C75.1846 32.8394 75.2153 32.9814 75.2358 33.0928L75.271 33.2642H75.2886C75.3677 32.8423 75.4497 32.4966 75.5347 32.2271L76.686 28.5664H78.3691L76.1016 35H74.4624L72.186 28.5664Z" fill="#FFB30F"/>
<path d="M72.186 28.5664H73.8955L75.0293 32.2271C75.0674 32.3472 75.1055 32.4937 75.1436 32.6665C75.1846 32.8394 75.2153 32.9814 75.2358 33.0928L75.271 33.2642H75.2886C75.3677 32.8423 75.4497 32.4966 75.5347 32.2271L76.686 28.5664H78.3691L76.1016 35H74.4624L72.186 28.5664Z" fill="black" fill-opacity="0.33"/>
<path d="M66.9836 35V28.5664H71.0178V29.9155H68.5569V31.0845H70.5212V32.4336H68.5569V33.6509H71.1409V35H66.9836Z" fill="#FFB30F"/>
<path d="M66.9836 35V28.5664H71.0178V29.9155H68.5569V31.0845H70.5212V32.4336H68.5569V33.6509H71.1409V35H66.9836Z" fill="black" fill-opacity="0.33"/>
<path d="M60.1025 35V28.5664H62.3438C62.9268 28.5664 63.3442 28.6162 63.5962 28.7158C63.9683 28.8564 64.2583 29.0894 64.4663 29.4146C64.6772 29.7368 64.7827 30.1279 64.7827 30.5879C64.7827 30.9512 64.6978 31.2969 64.5278 31.625C64.3608 31.9502 64.125 32.1904 63.8203 32.3457V32.3633C63.8789 32.4424 63.9595 32.5713 64.062 32.75L65.3145 35H63.5566L62.4141 32.8291H61.6758V35H60.1025ZM61.6758 31.48H62.3613C62.6162 31.48 62.8154 31.4126 62.959 31.2778C63.1055 31.1401 63.1787 30.9438 63.1787 30.689C63.1787 30.4253 63.1099 30.2305 62.9722 30.1045C62.8374 29.9785 62.5825 29.9155 62.2075 29.9155H61.6758V31.48Z" fill="#FFB30F"/>
<path d="M60.1025 35V28.5664H62.3438C62.9268 28.5664 63.3442 28.6162 63.5962 28.7158C63.9683 28.8564 64.2583 29.0894 64.4663 29.4146C64.6772 29.7368 64.7827 30.1279 64.7827 30.5879C64.7827 30.9512 64.6978 31.2969 64.5278 31.625C64.3608 31.9502 64.125 32.1904 63.8203 32.3457V32.3633C63.8789 32.4424 63.9595 32.5713 64.062 32.75L65.3145 35H63.5566L62.4141 32.8291H61.6758V35H60.1025ZM61.6758 31.48H62.3613C62.6162 31.48 62.8154 31.4126 62.959 31.2778C63.1055 31.1401 63.1787 30.9438 63.1787 30.689C63.1787 30.4253 63.1099 30.2305 62.9722 30.1045C62.8374 29.9785 62.5825 29.9155 62.2075 29.9155H61.6758V31.48Z" fill="black" fill-opacity="0.33"/>
<path d="M49.8911 35V28.5664H52.1763C53.1987 28.5664 54.0073 28.8491 54.6021 29.4146C55.1997 29.98 55.4985 30.7651 55.4985 31.77C55.4985 32.7749 55.1997 33.5645 54.6021 34.1387C54.0044 34.7129 53.1958 35 52.1763 35H49.8911ZM51.4644 33.6509H52.1147C52.6685 33.6509 53.0991 33.4897 53.4067 33.1675C53.7144 32.8452 53.8682 32.3794 53.8682 31.77C53.8682 31.1694 53.7114 30.7109 53.3979 30.3945C53.0874 30.0752 52.6597 29.9155 52.1147 29.9155H51.4644V33.6509Z" fill="#FFB30F"/>
<path d="M49.8911 35V28.5664H52.1763C53.1987 28.5664 54.0073 28.8491 54.6021 29.4146C55.1997 29.98 55.4985 30.7651 55.4985 31.77C55.4985 32.7749 55.1997 33.5645 54.6021 34.1387C54.0044 34.7129 53.1958 35 52.1763 35H49.8911ZM51.4644 33.6509H52.1147C52.6685 33.6509 53.0991 33.4897 53.4067 33.1675C53.7144 32.8452 53.8682 32.3794 53.8682 31.77C53.8682 31.1694 53.7114 30.7109 53.3979 30.3945C53.0874 30.0752 52.6597 29.9155 52.1147 29.9155H51.4644V33.6509Z" fill="black" fill-opacity="0.33"/>
<path d="M43.8801 35V28.5664H47.9143V29.9155H45.4534V31.0845H47.4177V32.4336H45.4534V33.6509H48.0374V35H43.8801Z" fill="#FFB30F"/>
<path d="M43.8801 35V28.5664H47.9143V29.9155H45.4534V31.0845H47.4177V32.4336H45.4534V33.6509H48.0374V35H43.8801Z" fill="black" fill-opacity="0.33"/>
<path d="M40.0752 35V28.5664H41.6484V35H40.0752Z" fill="#FFB30F"/>
<path d="M40.0752 35V28.5664H41.6484V35H40.0752Z" fill="black" fill-opacity="0.33"/>
<path d="M34.4158 35V28.5664H38.3577V29.9155H35.989V31.2646H37.9534V32.6138H35.989V35H34.4158Z" fill="#FFB30F"/>
<path d="M34.4158 35V28.5664H38.3577V29.9155H35.989V31.2646H37.9534V32.6138H35.989V35H34.4158Z" fill="black" fill-opacity="0.33"/>
<path d="M30.6108 35V28.5664H32.1841V35H30.6108Z" fill="#FFB30F"/>
<path d="M30.6108 35V28.5664H32.1841V35H30.6108Z" fill="black" fill-opacity="0.33"/>
<path d="M23.7295 35V28.5664H25.9707C26.5537 28.5664 26.9712 28.6162 27.2231 28.7158C27.5952 28.8564 27.8853 29.0894 28.0933 29.4146C28.3042 29.7368 28.4097 30.1279 28.4097 30.5879C28.4097 30.9512 28.3247 31.2969 28.1548 31.625C27.9878 31.9502 27.752 32.1904 27.4473 32.3457V32.3633C27.5059 32.4424 27.5864 32.5713 27.689 32.75L28.9414 35H27.1836L26.041 32.8291H25.3027V35H23.7295ZM25.3027 31.48H25.9883C26.2432 31.48 26.4424 31.4126 26.5859 31.2778C26.7324 31.1401 26.8057 30.9438 26.8057 30.689C26.8057 30.4253 26.7368 30.2305 26.5991 30.1045C26.4644 29.9785 26.2095 29.9155 25.8345 29.9155H25.3027V31.48Z" fill="#FFB30F"/>
<path d="M23.7295 35V28.5664H25.9707C26.5537 28.5664 26.9712 28.6162 27.2231 28.7158C27.5952 28.8564 27.8853 29.0894 28.0933 29.4146C28.3042 29.7368 28.4097 30.1279 28.4097 30.5879C28.4097 30.9512 28.3247 31.2969 28.1548 31.625C27.9878 31.9502 27.752 32.1904 27.4473 32.3457V32.3633C27.5059 32.4424 27.5864 32.5713 27.689 32.75L28.9414 35H27.1836L26.041 32.8291H25.3027V35H23.7295ZM25.3027 31.48H25.9883C26.2432 31.48 26.4424 31.4126 26.5859 31.2778C26.7324 31.1401 26.8057 30.9438 26.8057 30.689C26.8057 30.4253 26.7368 30.2305 26.5991 30.1045C26.4644 29.9785 26.2095 29.9155 25.8345 29.9155H25.3027V31.48Z" fill="black" fill-opacity="0.33"/>
<path d="M17.7185 35V28.5664H21.7527V29.9155H19.2917V31.0845H21.2561V32.4336H19.2917V33.6509H21.8757V35H17.7185Z" fill="#FFB30F"/>
<path d="M17.7185 35V28.5664H21.7527V29.9155H19.2917V31.0845H21.2561V32.4336H19.2917V33.6509H21.8757V35H17.7185Z" fill="black" fill-opacity="0.33"/>
<path d="M10.1167 28.5664H11.8262L12.96 32.2271C12.998 32.3472 13.0361 32.4937 13.0742 32.6665C13.1152 32.8394 13.146 32.9814 13.1665 33.0928L13.2017 33.2642H13.2192C13.2983 32.8423 13.3804 32.4966 13.4653 32.2271L14.6167 28.5664H16.2998L14.0322 35H12.3931L10.1167 28.5664Z" fill="#FFB30F"/>
<path d="M10.1167 28.5664H11.8262L12.96 32.2271C12.998 32.3472 13.0361 32.4937 13.0742 32.6665C13.1152 32.8394 13.146 32.9814 13.1665 33.0928L13.2017 33.2642H13.2192C13.2983 32.8423 13.3804 32.4966 13.4653 32.2271L14.6167 28.5664H16.2998L14.0322 35H12.3931L10.1167 28.5664Z" fill="black" fill-opacity="0.33"/>
</svg>
