<?xml version="1.0" encoding="UTF-8"?>
<svg width="307px" height="288px" viewBox="0 0 307 288" version="1.1" xmlns="http://www.w3.org/2000/svg" xmlns:xlink="http://www.w3.org/1999/xlink">
    <!-- Generator: Sketch 55 (78076) - https://sketchapp.com -->
    <title>Page 1</title>
    <desc>Created with Sketch.</desc>
    <defs>
        <polygon id="path-1" points="76.0156404 7.89482201 0.393869725 7.89482201 0.393869725 0.136673301 76.0156404 0.136673301 76.0156404 7.89482201"></polygon>
    </defs>
    <g id="Page-1" stroke="none" stroke-width="1" fill="none" fill-rule="evenodd">
        <g id="live-courses" transform="translate(-253.000000, -1308.000000)">
            <g id="Page-1" transform="translate(254.000000, 1309.000000)">
                <path d="M10.0062,256.151447 C10.0062,258.293731 48.8162642,260.030591 96.6912275,260.030591 C144.566191,260.030591 183.376255,258.293731 183.376255,256.151447 C183.376255,254.009164 144.566191,252.272303 96.6912275,252.272303 C48.8162642,252.272303 10.0062,254.009164 10.0062,256.151447" id="Fill-1" fill="#E1E2E6"></path>
                <path d="M46.063855,256.870712 L41.2052862,255.713424 C40.037433,255.435248 39.3112679,254.259384 39.5915339,253.100702 L51.2115798,205.028667 C51.4923138,203.869521 52.6765431,203.14877 53.8443963,203.426947 L58.7029651,204.58377 C59.8708183,204.861947 60.5969835,206.037811 60.3167174,207.196956 L48.6966716,255.268992 C48.4164055,256.427673 47.2317083,257.148889 46.063855,256.870712" id="Fill-3" fill="#E9F1F3"></path>
                <path d="M46.063855,256.870712 L41.2052862,255.713424 C40.037433,255.435248 39.3112679,254.259384 39.5915339,253.100702 L51.2115798,205.028667 C51.4923138,203.869521 52.6765431,203.14877 53.8443963,203.426947 L58.7029651,204.58377 C59.8708183,204.861947 60.5969835,206.037811 60.3167174,207.196956 L48.6966716,255.268992 C48.4164055,256.427673 47.2317083,257.148889 46.063855,256.870712 Z" id="Stroke-5" stroke="#2E394C" stroke-width="2.3328"></path>
                <path d="M141.860196,256.870712 L146.718765,255.713424 C147.886618,255.435248 148.612783,254.259384 148.332517,253.100702 L136.712472,205.028667 C136.431738,203.869521 135.247508,203.14877 134.079655,203.426947 L129.221086,204.58377 C128.053233,204.861947 127.327068,206.037811 127.607334,207.196956 L139.22738,255.268992 C139.507646,256.427673 140.692343,257.148889 141.860196,256.870712" id="Fill-7" fill="#E9F1F3"></path>
                <path d="M141.860196,256.870712 L146.718765,255.713424 C147.886618,255.435248 148.612783,254.259384 148.332517,253.100702 L136.712472,205.028667 C136.431738,203.869521 135.247508,203.14877 134.079655,203.426947 L129.221086,204.58377 C128.053233,204.861947 127.327068,206.037811 127.607334,207.196956 L139.22738,255.268992 C139.507646,256.427673 140.692343,257.148889 141.860196,256.870712 Z" id="Stroke-9" stroke="#2E394C" stroke-width="2.3328"></path>
                <path d="M24.9343211,144.676979 C24.9343211,144.676979 -7.12034862,29.8667618 57.940211,15.4540676 C150.197339,-4.98330453 168.539092,30.3971081 168.539092,30.3971081 C168.539092,30.3971081 180.142294,42.5402731 174.329697,83.7549592 C165.870248,143.736102 156.27944,198.760225 156.27944,198.760225 L37.6740275,198.760225 L24.9343211,144.676979 Z" id="Fill-11" fill="#ECF3F8"></path>
                <path d="M24.9343211,144.676979 C24.9343211,144.676979 -7.12034862,29.8667618 57.940211,15.4540676 C150.197339,-4.98330453 168.539092,30.3971081 168.539092,30.3971081 C168.539092,30.3971081 180.142294,42.5402731 174.329697,83.7549592 C165.870248,143.736102 156.27944,198.760225 156.27944,198.760225 L37.6740275,198.760225 L24.9343211,144.676979 Z" id="Stroke-13" stroke="#2E394C" stroke-width="2.3328"></path>
                <g id="Group" transform="translate(210.605889, 110.163696)">
                    <path d="M0.41704544,145.987751 C0.41704544,148.130034 21.4926785,149.866895 47.4905133,149.866895 C73.489284,149.866895 94.564917,148.130034 94.564917,145.987751 C94.564917,143.845468 73.489284,142.108607 47.4905133,142.108607 C21.4926785,142.108607 0.41704544,143.845468 0.41704544,145.987751" id="Fill-15" fill="#E1E2E6"></path>
                    <path d="M70.1518253,146.870253 L73.893073,146.870253 C75.0941464,146.870253 76.0762473,145.894546 76.0762473,144.702892 L76.0762473,102.47674 C76.0762473,101.285086 75.0941464,100.309379 73.893073,100.309379 L70.1518253,100.309379 C68.9512198,100.309379 67.9686509,101.285086 67.9686509,102.47674 L67.9686509,144.702892 C67.9686509,145.894546 68.9512198,146.870253 70.1518253,146.870253" id="Fill-29" fill="#E9F1F3"></path>
                    <path d="M70.1518253,146.870253 L73.893073,146.870253 C75.0941464,146.870253 76.0762473,145.894546 76.0762473,144.702892 L76.0762473,102.47674 C76.0762473,101.285086 75.0941464,100.309379 73.893073,100.309379 L70.1518253,100.309379 C68.9512198,100.309379 67.9686509,101.285086 67.9686509,102.47674 L67.9686509,144.702892 C67.9686509,145.894546 68.9512198,146.870253 70.1518253,146.870253 Z" id="Stroke-31" stroke="#2E394C" stroke-width="2.3328"></path>
                    <path d="M22.4599473,146.870253 L26.201195,146.870253 C27.4022684,146.870253 28.3843693,145.894546 28.3843693,144.702892 L28.3843693,102.47674 C28.3843693,101.285086 27.4022684,100.309379 26.201195,100.309379 L22.4599473,100.309379 C21.2593418,100.309379 20.276773,101.285086 20.276773,102.47674 L20.276773,144.702892 C20.276773,145.894546 21.2593418,146.870253 22.4599473,146.870253" id="Fill-33" fill="#E9F1F3"></path>
                    <path d="M22.4599473,146.870253 L26.201195,146.870253 C27.4022684,146.870253 28.3843693,145.894546 28.3843693,144.702892 L28.3843693,102.47674 C28.3843693,101.285086 27.4022684,100.309379 26.201195,100.309379 L22.4599473,100.309379 C21.2593418,100.309379 20.276773,101.285086 20.276773,102.47674 L20.276773,144.702892 C20.276773,145.894546 21.2593418,146.870253 22.4599473,146.870253 Z" id="Stroke-35" stroke="#2E394C" stroke-width="2.3328"></path>
                    <path d="M10.4858023,123.589909 L84.4961601,123.589909 C87.5837656,123.589909 90.110839,121.082606 90.110839,118.017094 L90.110839,56.1267974 C90.110839,53.0622133 87.5837656,50.5539819 84.4961601,50.5539819 L10.4858023,50.5539819 C7.39772893,50.5539819 4.87112342,53.0622133 4.87112342,56.1267974 L4.87112342,118.017094 C4.87112342,121.082606 7.39772893,123.589909 10.4858023,123.589909" id="Fill-47" fill="#E9F1F3"></path>
                    <path d="M10.4858023,123.589909 L84.4961601,123.589909 C87.5837656,123.589909 90.110839,121.082606 90.110839,118.017094 L90.110839,56.1267974 C90.110839,53.0622133 87.5837656,50.5539819 84.4961601,50.5539819 L10.4858023,50.5539819 C7.39772893,50.5539819 4.87112342,53.0622133 4.87112342,56.1267974 L4.87112342,118.017094 C4.87112342,121.082606 7.39772893,123.589909 10.4858023,123.589909 Z" id="Stroke-49" stroke="#2E394C" stroke-width="2.3328"></path>
                    <path d="M19.1979592,82.570643 L75.783161,82.570643 C78.8717023,82.570643 81.3978399,80.0633405 81.3978399,76.9978275 L81.3978399,65.0599278 C81.3978399,61.9948793 78.8717023,59.4871123 75.783161,59.4871123 L19.1979592,59.4871123 C16.1098858,59.4871123 13.5832803,61.9948793 13.5832803,65.0599278 L13.5832803,76.9978275 C13.5832803,80.0633405 16.1098858,82.570643 19.1979592,82.570643" id="Fill-51" fill="#FEFEFE"></path>
                    <path d="M19.1979592,82.570643 L75.783161,82.570643 C78.8717023,82.570643 81.3978399,80.0633405 81.3978399,76.9978275 L81.3978399,65.0599278 C81.3978399,61.9948793 78.8717023,59.4871123 75.783161,59.4871123 L19.1979592,59.4871123 C16.1098858,59.4871123 13.5832803,61.9948793 13.5832803,65.0599278 L13.5832803,76.9978275 C13.5832803,80.0633405 16.1098858,82.570643 19.1979592,82.570643 Z" id="Stroke-53" stroke="#2E394C" stroke-width="2.3328"></path>
                    <path d="M19.1979592,112.746325 L75.783161,112.746325 C78.8717023,112.746325 81.3978399,110.238558 81.3978399,107.173509 L81.3978399,95.2356094 C81.3978399,92.1700964 78.8717023,89.6627939 75.783161,89.6627939 L19.1979592,89.6627939 C16.1098858,89.6627939 13.5832803,92.1700964 13.5832803,95.2356094 L13.5832803,107.173509 C13.5832803,110.238558 16.1098858,112.746325 19.1979592,112.746325" id="Fill-55" fill="#FEFEFE"></path>
                    <path d="M19.1979592,112.746325 L75.783161,112.746325 C78.8717023,112.746325 81.3978399,110.238558 81.3978399,107.173509 L81.3978399,95.2356094 C81.3978399,92.1700964 78.8717023,89.6627939 75.783161,89.6627939 L19.1979592,89.6627939 C16.1098858,89.6627939 13.5832803,92.1700964 13.5832803,95.2356094 L13.5832803,107.173509 C13.5832803,110.238558 16.1098858,112.746325 19.1979592,112.746325 Z" id="Stroke-57" stroke="#2E394C" stroke-width="2.3328"></path>
                    <g id="Group-3" transform="translate(7.216515, 19.896205)" fill="#F7F1F4">
                        <path d="M5.6146789,27.8638455 L45.4115229,27.8638455 C48.4991284,27.8638455 51.0262018,25.3565429 51.0262018,22.2910299 L51.0262018,16.5770364 C51.0262018,13.5124523 48.4991284,11.0042209 45.4115229,11.0042209 L5.6146789,11.0042209 C2.5266055,11.0042209 2.13162821e-14,13.5124523 2.13162821e-14,16.5770364 L2.13162821e-14,22.2910299 C2.13162821e-14,25.3565429 2.5266055,27.8638455 5.6146789,27.8638455" id="Fill-59"></path>
                        <path d="M5.6146789,11.3875841 L34.025422,11.3875841 C37.1134954,11.3875841 39.6401009,8.87981715 39.6401009,5.81476861 L39.6401009,5.57281553 C39.6401009,2.50776699 37.1134954,-3.01980663e-14 34.025422,-3.01980663e-14 L5.6146789,-3.01980663e-14 C2.5266055,-3.01980663e-14 0,2.50776699 0,5.57281553 L0,5.81476861 C0,8.87981715 2.5266055,11.3875841 5.6146789,11.3875841" id="Fill-63"></path>
                    </g>
                    <path d="M12.8311941,47.7600508 L52.6280381,47.7600508 C55.7156436,47.7600508 58.242717,45.2527482 58.242717,42.1872353 L58.242717,36.4732417 C58.242717,33.4086576 55.7156436,30.9004262 52.6280381,30.9004262 L12.8311941,30.9004262 C9.74312067,30.9004262 7.21651516,33.4086576 7.21651516,36.4732417 L7.21651516,42.1872353 C7.21651516,45.2527482 9.74312067,47.7600508 12.8311941,47.7600508 Z" id="Stroke-61" stroke="#2E394C" stroke-width="2.3328"></path>
                    <path d="M12.8311941,31.2837895 L41.2419372,31.2837895 C44.3300106,31.2837895 46.8566161,28.7760225 46.8566161,25.7109739 L46.8566161,25.4690209 C46.8566161,22.4039723 44.3300106,19.8962053 41.2419372,19.8962053 L12.8311941,19.8962053 C9.74312067,19.8962053 7.21651516,22.4039723 7.21651516,25.4690209 L7.21651516,25.7109739 C7.21651516,28.7760225 9.74312067,31.2837895 12.8311941,31.2837895 Z" id="Stroke-65" stroke="#2E394C" stroke-width="2.3328"></path>
                    <g id="Group-2" transform="translate(62.961667, 0.397435)">
                        <path d="M21.227744,28.0124074 C21.227744,28.0124074 37.9468541,36.7775175 20.2779275,40.9445903" id="Stroke-67" stroke="#2E394C" stroke-width="2.3328"></path>
                        <path d="M5.6146789,48.512288 L16.9797248,48.512288 C20.0677982,48.512288 22.5944037,46.0049854 22.5944037,42.9394725 L22.5944037,26.2210259 C22.5944037,23.1559773 20.0677982,20.6482104 16.9797248,20.6482104 L5.6146789,20.6482104 C2.5266055,20.6482104 3.55271368e-15,23.1559773 3.55271368e-15,26.2210259 L3.55271368e-15,42.9394725 C3.55271368e-15,46.0049854 2.5266055,48.512288 5.6146789,48.512288" id="Fill-69" fill="#FEFEFE"></path>
                        <path d="M5.6146789,48.512288 L16.9797248,48.512288 C20.0677982,48.512288 22.5944037,46.0049854 22.5944037,42.9394725 L22.5944037,26.2210259 C22.5944037,23.1559773 20.0677982,20.6482104 16.9797248,20.6482104 L5.6146789,20.6482104 C2.5266055,20.6482104 3.55271368e-15,23.1559773 3.55271368e-15,26.2210259 L3.55271368e-15,42.9394725 C3.55271368e-15,46.0049854 2.5266055,48.512288 5.6146789,48.512288 Z" id="Stroke-71" stroke="#2E394C" stroke-width="2.3328"></path>
                        <path d="M9.06036055,16.3488761 C9.06036055,16.3488761 7.00164495,8.42990518 9.8323789,5.49256699" id="Fill-73" fill="#F7F1F4"></path>
                        <path d="M9.06036055,16.3488761 C9.06036055,16.3488761 7.00164495,8.42990518 9.8323789,5.49256699" id="Stroke-75" stroke="#2E394C" stroke-width="2.3328"></path>
                        <path d="M13.564222,13.411445 C13.564222,13.411445 12.4061945,9.70691586 14.979589,7.79126052 C17.5534514,5.87514078 14.979589,-5.68434189e-14 14.979589,-5.68434189e-14" id="Fill-77" fill="#F7F1F4"></path>
                        <path d="M13.564222,13.411445 C13.564222,13.411445 12.4061945,9.70691586 14.979589,7.79126052 C17.5534514,5.87514078 14.979589,-5.68434189e-14 14.979589,-5.68434189e-14" id="Stroke-79" stroke="#2E394C" stroke-width="2.3328"></path>
                    </g>
                </g>
                <g id="Group-20" transform="translate(19.183486, 180.040487)">
                    <path d="M0.0749559633,2.64392945 L0.0749559633,41.3448113 C0.0749559633,41.3448113 0.590102752,46.2623566 6.0588,46.2623566 L145.617259,46.2623566 C145.617259,46.2623566 149.316864,47.2199521 149.316864,42.5903356 L149.316864,0.153345307" id="Fill-17" fill="#ECF3F8"></path>
                    <path d="M0.0749559633,2.64392945 L0.0749559633,41.3448113 C0.0749559633,41.3448113 0.590102752,46.2623566 6.0588,46.2623566 L145.617259,46.2623566 C145.617259,46.2623566 149.316864,47.2199521 149.316864,42.5903356 L149.316864,0.153345307" id="Stroke-19" stroke="#2E394C" stroke-width="2.3328"></path>
                </g>
                <g id="Group-24" transform="translate(0.000000, 145.674791)">
                    <path d="M38.2830184,47.4191803 L38.2828927,15.4878761 C38.2828927,15.4878761 38.4761312,0.0335297735 23.7095257,0.12919644 C8.94292018,0.224863107 3.82747982,2.81111392 0.643021101,17.5637498 C-2.54237339,32.3159214 13.6718835,36.5308275 21.7794798,36.9139586" id="Fill-21" fill="#ECF3F8"></path>
                    <path d="M38.2830184,47.4191803 L38.2828927,15.4878761 C38.2828927,15.4878761 38.4761312,0.0335297735 23.7095257,0.12919644 C8.94292018,0.224863107 3.82747982,2.81111392 0.643021101,17.5637498 C-2.54237339,32.3159214 13.6718835,36.5308275 21.7794798,36.9139586" id="Stroke-23" stroke="#2E394C" stroke-width="2.3328"></path>
                </g>
                <path d="M8.83507156,164.48388 C8.83507156,170.197873 13.5018055,174.829347 19.258255,174.829347 C25.0151725,174.829347 29.6819064,170.197873 29.6819064,164.48388 C29.6819064,158.769886 25.0151725,154.137948 19.258255,154.137948 C13.5018055,154.137948 8.83507156,158.769886 8.83507156,164.48388" id="Fill-25" fill="#FEFEFE"></path>
                <path d="M8.83507156,164.48388 C8.83507156,170.197873 13.5018055,174.829347 19.258255,174.829347 C25.0151725,174.829347 29.6819064,170.197873 29.6819064,164.48388 C29.6819064,158.769886 25.0151725,154.137948 19.258255,154.137948 C13.5018055,154.137948 8.83507156,158.769886 8.83507156,164.48388 Z" id="Stroke-27" stroke="#2E394C" stroke-width="2.3328"></path>
                <g id="Group-40" transform="translate(153.000000, 145.674791)">
                    <path d="M0.110905462,47.4191803 L0.111030275,15.4878761 C0.111030275,15.4878761 -0.081740367,0.0335297735 14.6843972,0.12919644 C29.4510028,0.224863107 34.5664431,2.81111392 37.7513697,17.5637498 C40.9362963,32.3159214 24.7220394,36.5308275 16.614911,36.9139586" id="Fill-37" fill="#ECF3F8"></path>
                    <path d="M0.110905462,47.4191803 L0.111030275,15.4878761 C0.111030275,15.4878761 -0.081740367,0.0335297735 14.6843972,0.12919644 C29.4510028,0.224863107 34.5664431,2.81111392 37.7513697,17.5637498 C40.9362963,32.3159214 24.7220394,36.5308275 16.614911,36.9139586" id="Stroke-39" stroke="#2E394C" stroke-width="2.3328"></path>
                </g>
                <path d="M182.559319,164.48388 C182.559319,170.197873 177.892117,174.829347 172.135668,174.829347 C166.37875,174.829347 161.712017,170.197873 161.712017,164.48388 C161.712017,158.769886 166.37875,154.137948 172.135668,154.137948 C177.892117,154.137948 182.559319,158.769886 182.559319,164.48388" id="Fill-41" fill="#FEFEFE"></path>
                <path d="M182.559319,164.48388 C182.559319,170.197873 177.892117,174.829347 172.135668,174.829347 C166.37875,174.829347 161.712017,170.197873 161.712017,164.48388 C161.712017,158.769886 166.37875,154.137948 172.135668,154.137948 C177.892117,154.137948 182.559319,158.769886 182.559319,164.48388 Z" id="Stroke-43" stroke="#2E394C" stroke-width="2.3328"></path>
                <path d="M159.20277,192.072196 L35.2797881,192.072196" id="Stroke-45" stroke="#2E394C" stroke-width="2.3328"></path>
                <g id="Group-81" transform="translate(281.669725, 110.380293)">
                    <g id="Group-76" transform="translate(0.000000, 5.572816)"></g>
                    <g id="Group-80" transform="translate(5.146789, 0.000000)"></g>
                </g>
                <g id="Group-84" transform="translate(58.486239, 278.957963)">
                    <mask id="mask-2" fill="white">
                        <use xlink:href="#path-1"></use>
                    </mask>
                    <g id="Clip-83"></g>
                    <path d="M0.393869725,4.01581731 C0.393869725,6.15810049 17.3225945,7.89496133 38.204989,7.89496133 C59.0869156,7.89496133 76.0156404,6.15810049 76.0156404,4.01581731 C76.0156404,1.87353414 59.0869156,0.136673301 38.204989,0.136673301 C17.3225945,0.136673301 0.393869725,1.87353414 0.393869725,4.01581731" id="Fill-82" fill="#E1E2E6" mask="url(#mask-2)"></path>
                </g>
                <path d="M70.161589,191.66134 L124.32125,191.66134 C128.191167,191.66134 131.357846,188.518272 131.357846,184.677209 L117.871387,74.8699872 C117.871387,71.0289241 114.704708,67.8863206 110.834791,67.8863206 L81.8883138,67.8863206 C78.0188642,67.8863206 74.8521853,71.0289241 74.8521853,74.8699872 L63.1249927,184.677209 C63.1249927,188.518272 66.2916716,191.66134 70.161589,191.66134" id="Fill-85" fill="#27A0C4"></path>
                <path d="M70.161589,191.66134 L124.32125,191.66134 C128.191167,191.66134 131.357846,188.518272 131.357846,184.677209 L117.871387,74.8699872 C117.871387,71.0289241 114.704708,67.8863206 110.834791,67.8863206 L81.8883138,67.8863206 C78.0188642,67.8863206 74.8521853,71.0289241 74.8521853,74.8699872 L63.1249927,184.677209 C63.1249927,188.518272 66.2916716,191.66134 70.161589,191.66134 Z" id="Stroke-87" stroke="#2E394C" stroke-width="2.3328"></path>
                <path d="M97.5728725,165.686586 C97.5232761,165.546337 97.4881844,165.380081 97.421744,165.270018 C95.9081202,162.778505 94.3898174,160.297209 92.8771294,157.805232 C92.500478,157.184792 92.1285055,156.554599 91.778056,155.892363 C91.671845,155.691277 91.5852853,155.36341 91.5909,155.100559 C91.6765239,151.245563 91.7817991,147.391961 91.8777165,143.53836 C92.0274413,137.496499 92.172955,131.454638 92.3222119,125.412777 C92.3928633,122.565068 92.4513495,119.715966 92.5458633,116.870115 C92.6843587,112.702114 92.8443771,108.536434 93.006267,104.371219 C93.0923587,102.173207 93.188744,99.9770537 93.3033771,97.783222 C93.4891294,94.2129049 93.6762853,90.6416589 93.898533,87.077379 C94.000533,85.4496524 94.2152945,83.8502544 94.565744,82.3107641 C94.8432028,81.0926395 95.0935239,79.8564032 95.3560101,78.6280618 C95.5525239,77.707154 95.9146706,76.9961557 96.3427899,76.3682851 C96.4195239,76.2559 96.4901752,76.126332 96.5739275,76.0315942 C96.9992394,75.5514032 96.9805239,74.7210537 96.6703128,74.1034 C96.1734138,73.1132964 95.5843404,72.2564761 95.0261477,71.3583239 C94.787056,70.9733353 94.5231661,70.6329291 94.2793954,70.2567641 C94.1151661,70.0036654 94.1441752,69.8253353 94.3266523,69.6098531 C95.2395055,68.5333709 96.2936615,68.2226864 97.3576431,67.9593709 C97.6060927,67.8976055 97.8503312,67.7791832 98.0987807,67.7308854 C98.7510193,67.6045683 99.3223128,68.0494647 99.8674046,68.5603061 C100.346056,69.007989 100.793359,69.5513385 101.25423,70.0519631 C101.395533,70.2052155 101.334707,70.358468 101.256102,70.5131136 C101.072689,70.871167 100.893487,71.2347932 100.705395,71.5854162 C100.24546,72.4464162 99.7831844,73.303701 99.3176339,74.1572706 C99.0827532,74.5896282 99.0401752,75.1362285 99.0205239,75.6786492 C99.0144413,75.8314372 99.126267,76.0120893 99.2006615,76.1551249 C99.6156798,76.9483223 100.064854,77.695544 100.445717,78.5328595 C100.782129,79.2735796 100.762946,80.2060974 100.75546,81.1037851 C100.749845,81.7502317 100.734405,82.3976071 100.752184,83.0421961 C100.894891,88.1324987 101.040872,93.2218725 101.191533,98.3112463 C101.315056,102.466245 101.444194,106.620779 101.575203,110.775777 C101.678606,114.068382 101.776395,117.360987 101.898515,120.651271 C102.005661,123.538918 102.143689,126.42285 102.26534,129.308639 C102.336928,130.988379 102.389331,132.67044 102.476827,134.347858 C102.586313,136.439057 102.727616,138.526541 102.845992,140.616811 C102.939102,142.264042 103.007882,143.915453 103.105203,145.56222 C103.282065,148.553894 103.470157,151.544638 103.660588,154.533989 C103.685854,154.934767 103.564671,155.189724 103.427579,155.445609 C102.943781,156.350262 102.466533,157.264669 101.969166,158.14796 C100.73534,160.338541 99.4898174,162.51101 98.2536523,164.698805 C98.080533,165.005309 97.9340835,165.356397 97.7759367,165.686586 L97.5728725,165.686586 Z" id="Fill-89" fill="#2E394C"></path>
                <polyline id="Stroke-91" stroke="#2E394C" stroke-width="2.3328" points="117.130109 71.7628175 135.531283 121.918622 177.582889 138.458738"></polyline>
                <path d="M77.2196615,31.1063417 C73.6501294,50.623735 82.6687073,68.5923498 97.3627899,71.2399016 C112.056405,73.8874534 126.862313,60.2112997 130.431845,40.6939065 C134.000909,21.1760489 124.982799,3.20789838 110.289184,0.560346602 C95.5946339,-2.08766958 80.7896615,11.5889485 77.2196615,31.1063417" id="Fill-93" fill="#FAB77C"></path>
                <path d="M77.2196615,31.1063417 C73.6501294,50.623735 82.6687073,68.5923498 97.3627899,71.2399016 C112.056405,73.8874534 126.862313,60.2112997 130.431845,40.6939065 C134.000909,21.1760489 124.982799,3.20789838 110.289184,0.560346602 C95.5946339,-2.08766958 80.7896615,11.5889485 77.2196615,31.1063417 Z" id="Stroke-95" stroke="#2E394C" stroke-width="2.3328"></path>
                <path d="M154.460799,125.225623 L187.356267,152.855178 C189.519322,154.406279 192.567625,153.919122 194.130845,151.772194 L230.773175,101.441311 C232.33546,99.2943838 231.845111,96.268345 229.682056,94.7172447 L193.956322,73.1077236 C191.793267,71.5566233 188.744496,72.0437803 187.181744,74.190243 L153.370148,118.501557 C151.806928,120.648949 152.298212,123.674523 154.460799,125.225623" id="Fill-97" fill="#2E394C"></path>
                <polygon id="Fill-99" fill="#FEFEFE" points="163.139595 115.812441 193.551972 141.660553 225.052192 98.3918199 191.80955 78.5637422"></polygon>
                <path d="M171.001456,133.305974 C170.127438,134.506451 170.399282,136.182475 171.608777,137.049977 C172.818272,137.917478 174.506419,137.647197 175.380438,136.447184 C176.254456,135.246707 175.982612,133.570218 174.773117,132.703181 C173.564089,131.836144 171.875006,132.105961 171.001456,133.305974" id="Fill-101" fill="#FEFEFE"></path>
                <path d="M189.732586,89.6631189 L190.388568,90.1293778 C190.904183,90.4948617 191.28832,90.7131303 191.542384,90.7827905 C191.796449,90.8524506 192.042091,90.8440914 192.279311,90.756784 C192.516063,90.6708697 192.720999,90.5074005 192.89365,90.2682338 C193.1931,89.8525947 193.249715,89.4346335 193.063027,89.0138859 C192.929678,88.7045947 192.544137,88.3233212 191.905935,87.8700655 L191.32388,87.456284 L189.732586,89.6631189 Z M190.701118,83.9978875 L192.888036,85.5513099 C194.070394,86.3914118 194.845687,87.1051966 195.212045,87.693593 C195.577935,88.2815251 195.737953,88.9251853 195.689761,89.6241092 C195.642504,90.323962 195.374403,91.0117403 194.885926,91.688373 C194.344577,92.4393099 193.697953,92.9222872 192.944183,93.1386982 C192.19088,93.3546448 191.405293,93.3193503 190.586953,93.0332791 C190.10877,92.8633083 189.344706,92.4044798 188.294293,91.6586513 L185.011109,96.2111772 L182.950054,94.7459911 L190.701118,83.9978875 Z" id="Fill-103" fill="#27A0C4"></path>
                <polygon id="Fill-105" fill="#27A0C4" points="200.203448 90.7479139 202.212099 92.1745547 199.316328 101.455615 207.25642 95.7583395 209.2632 97.1840515 203.328484 109.223191 201.334806 107.807231 205.069035 100.194301 197.873356 105.347762 196.056539 104.057191 198.671576 95.6492052 192.587136 101.592613 190.577549 100.164579"></polygon>
                <polygon id="Fill-107" fill="#27A0C4" points="211.654866 98.88311 217.639646 103.135168 216.185912 105.151599 214.21282 103.750036 207.91549 112.482173 205.82449 110.996553 212.12182 102.264416 210.200664 100.89954"></polygon>
                <polygon id="Fill-109" fill="#DEE3E9" points="201.437601 123.784354 176.980528 104.503341 180.798509 98.9240238 206.536197 117.201466"></polygon>
                <polygon id="Fill-111" fill="#DEE3E9" points="193.963668 133.384411 169.506594 114.103398 173.324576 108.524081 199.062264 126.801058"></polygon>
                <polyline id="Stroke-113" stroke="#2E394C" stroke-width="2.3328" points="114.426969 191.591958 135.531143 201.403829 118.159327 282.381483"></polyline>
                <polyline id="Stroke-115" stroke="#2E394C" stroke-width="2.3328" points="86.6314073 192.741584 117.129875 201.121241 77.7517927 282.892556"></polyline>
                <path d="M96.4515743,60.705144 C96.4515743,60.705144 86.537455,59.996932 86.367611,50.5361489" id="Stroke-117" stroke="#2E394C" stroke-width="2.3328" stroke-linecap="round"></path>
                <polyline id="Stroke-119" stroke="#2E394C" stroke-width="2.3328" points="74.8523257 74.8698479 109.329729 115.186846 172.135528 115.186846"></polyline>
            </g>
        </g>
    </g>
</svg>