<?xml version="1.0" encoding="UTF-8"?>
<svg width="277px" height="284px" viewBox="0 0 277 284" version="1.1" xmlns="http://www.w3.org/2000/svg" xmlns:xlink="http://www.w3.org/1999/xlink">
    <!-- Generator: Sketch 55 (78076) - https://sketchapp.com -->
    <title>enroll-3</title>
    <desc>Created with Sketch.</desc>
    <g id="Page-1" stroke="none" stroke-width="1" fill="none" fill-rule="evenodd">
        <g id="enroll-3">
            <rect id="Rectangle" fill="#FFFFFF" x="0" y="0" width="277" height="284"></rect>
            <g transform="translate(46.000000, 24.000000)">
                <path d="M10.0460605,241.518505 C10.0460605,243.300542 41.9770836,244.74499 81.3657986,244.74499 C120.754813,244.74499 152.685836,243.300542 152.685836,241.518505 C152.685836,239.736167 120.754813,238.29172 81.3657986,238.29172 C41.9770836,238.29172 10.0460605,239.736167 10.0460605,241.518505" id="Fill-1" fill="#E1E2E6"></path>
                <path d="M71.8107564,166.306421 L50.7045452,241.518415" id="Stroke-3" stroke="#2E394C" stroke-width="1.5"></path>
                <polyline id="Stroke-5" stroke="#2E394C" stroke-width="1.5" points="89.2750858 166.306421 103.655744 200.77236 111.355785 241.518415"></polyline>
                <path d="M62.9343508,173.882212 L97.7990223,173.882212 C100.290212,173.882212 102.328458,171.836537 102.328458,169.336635 C102.328458,169.336635 111.909472,94.1417761 89.1170049,85.7486472 L70.4834101,85.7486472 C67.9925201,85.7486472 65.9539745,87.7940215 65.9539745,90.2939233 L58.4046156,169.336635 C58.4046156,171.836537 60.4431612,173.882212 62.9343508,173.882212" id="Fill-7" fill="#27A0C4"></path>
                <path d="M62.9343508,173.882212 L97.7990223,173.882212 C100.290212,173.882212 102.328458,171.836537 102.328458,169.336635 C102.328458,169.336635 111.909472,94.1417761 89.1170049,85.7486472 L70.4834101,85.7486472 C67.9925201,85.7486472 65.9539745,87.7940215 65.9539745,90.2939233 L58.4046156,169.336635 C58.4046156,171.836537 60.4431612,173.882212 62.9343508,173.882212 Z" id="Stroke-9" stroke="#2E394C" stroke-width="1.5"></path>
                <path d="M65.7489217,94.8995325 C65.7489217,94.8995325 41.3396974,129.400042 36.8096627,142.026109 C36.8096627,142.026109 28.7573327,141.773594 28.0021272,144.298747" id="Stroke-11" stroke="#2E394C" stroke-width="1.5"></path>
                <path d="M97.5748871,93.5109687 C97.5748871,93.5109687 133.155821,81.2014472 141.20845,63.0197417 C141.20845,63.0197417 148.002903,63.5247724 149.76465,60.242073" id="Stroke-13" stroke="#2E394C" stroke-width="1.5"></path>
                <path d="M63.9728857,71.1355245 C68.5811071,82.6757761 79.2824978,89.2294509 87.8758437,85.7741994 C96.4694891,82.3189479 99.7000072,70.1627393 95.0917858,58.6224877 C90.483864,47.0822362 79.7818741,40.5285613 71.1888278,43.9838129 C62.5954819,47.439365 59.3649638,59.595273 63.9728857,71.1355245" id="Fill-15" fill="#FAB77C"></path>
                <path d="M63.9728857,71.1355245 C68.5811071,82.6757761 79.2824978,89.2294509 87.8758437,85.7741994 C96.4694891,82.3189479 99.7000072,70.1627393 95.0917858,58.6224877 C90.483864,47.0822362 79.7818741,40.5285613 71.1888278,43.9838129 C62.5954819,47.439365 59.3649638,59.595273 63.9728857,71.1355245 Z" id="Stroke-17" stroke="#2E394C" stroke-width="1.5"></path>
                <path d="M84.6920878,142.436988 C84.6435582,142.356123 84.6100068,142.260227 84.5444019,142.196798 C83.0648462,140.761969 81.5801978,139.332252 80.1012412,137.896822 C79.7327753,137.539693 79.3691023,137.176552 79.0266986,136.794773 C78.9224496,136.679037 78.8376725,136.490552 78.8436638,136.338742 C78.9272427,134.118411 79.0302933,131.898681 79.1237579,129.67865 C79.2702456,126.198147 79.4122398,122.717945 79.5584279,119.237742 C79.6273281,117.596994 79.6845452,115.955945 79.777111,114.316699 C79.9122152,111.916 80.0688881,109.516202 80.227658,107.116706 C80.3112369,105.850822 80.4056001,104.58554 80.5176378,103.321761 C80.6997738,101.264963 80.8822094,99.2081656 81.0999938,97.1549755 C81.1994496,96.2170613 81.4097449,95.2962822 81.7524482,94.4091718 C82.0235553,93.7072393 82.268001,92.9953865 82.5247289,92.2880429 C82.7167507,91.7574601 83.071137,91.3477239 83.4896305,90.9860859 C83.5648216,90.9211534 83.6337217,90.8466012 83.7155032,90.7921902 C84.1316001,90.5156258 84.1130271,90.0370491 83.810166,89.6814233 C83.3242702,89.1111595 82.7479055,88.6178528 82.201797,88.0998957 C81.9681356,87.8783436 81.7108085,87.6820429 81.4720546,87.4656012 C81.3114873,87.3195031 81.3396465,87.2172945 81.5181877,87.0928405 C82.4108939,86.4726748 83.4411009,86.2938098 84.4820922,86.142 C84.7247405,86.1065276 84.9631949,86.038589 85.206742,86.0106319 C85.8439185,85.9378834 86.403208,86.1940061 86.9361356,86.4883067 C87.4037579,86.7465337 87.841124,87.0591718 88.2919706,87.3477607 C88.4297709,87.4358405 88.3707564,87.5242209 88.2931689,87.6132025 C88.1143281,87.8194233 87.9387825,88.0289509 87.7554482,88.2312638 C87.3055003,88.7269755 86.8534554,89.221184 86.3987145,89.7123865 C86.1683483,89.9612945 86.1270082,90.2763374 86.1075365,90.5886748 C86.1018447,90.6767546 86.2111863,90.7810675 86.2839808,90.863135 C86.6898925,91.3200675 87.1287564,91.7508466 87.5011168,92.2330307 C87.8303397,92.6596012 87.8117666,93.1964969 87.8042774,93.7141534 C87.7985857,94.0860123 87.7833078,94.4590736 87.8009822,94.8306319 C87.9402803,97.762816 88.0828737,100.694399 88.2308592,103.625982 C88.3512847,106.019466 88.478001,108.41265 88.6056161,110.806135 C88.7068693,112.702706 88.8027304,114.599276 88.921658,116.494945 C89.0262065,118.158239 89.1613107,119.81973 89.2805379,121.481822 C89.3503368,122.449497 89.4018621,123.418374 89.4872384,124.384245 C89.5938838,125.589405 89.7322832,126.791558 89.8479156,127.995816 C89.9389836,128.944552 90.006386,129.895693 90.1016479,130.844429 C90.274797,132.567847 90.4581313,134.290362 90.6447608,136.012877 C90.6696247,136.243147 90.5506971,136.390448 90.4167912,136.537748 C89.9437767,137.058411 89.4773527,137.585687 88.9911573,138.094025 C87.7842065,139.356301 86.5664713,140.607755 85.3580227,141.867926 C85.1884685,142.044387 85.0458751,142.246699 84.8904004,142.436988 L84.6920878,142.436988 Z" id="Fill-19" fill="#2E394C"></path>
                <path d="M84.6853476,80.0681945 C84.6853476,80.0681945 75.1055314,81.1074153 73.293158,72.0135564" id="Stroke-21" stroke="#2E394C" stroke-width="1.5" stroke-linecap="round"></path>
                <path d="M206.771311,8.20425337 C206.771311,8.20425337 189.421656,39.6388055 192.891527,61.6918117 L142.578245,56.4686521 C142.578245,56.4686521 144.313031,6.55929632 159.927601,0.175768712 L206.771311,8.20425337 Z" id="Fill-23" fill="#FEFEFE"></path>
                <path d="M206.771311,8.20425337 C206.771311,8.20425337 189.421656,39.6388055 192.891527,61.6918117 L142.578245,56.4686521 C142.578245,56.4686521 144.313031,6.55929632 159.927601,0.175768712 L206.771311,8.20425337 Z" id="Stroke-25" stroke="#2E394C" stroke-width="1.5"></path>
                <path d="M156.010418,34.6931724 C154.571004,42.0064975 159.311933,49.1057859 166.600071,50.5502337 C173.887909,51.9946816 180.962456,47.2371724 182.401869,39.9235466 C183.840984,32.6102215 179.100055,25.5109331 171.812217,24.0664853 C164.524379,22.622338 157.449832,27.3798472 156.010418,34.6931724" id="Fill-27" fill="#FEFEFE"></path>
                <path d="M156.010418,34.6931724 C154.571004,42.0064975 159.311933,49.1057859 166.600071,50.5502337 C173.887909,51.9946816 180.962456,47.2371724 182.401869,39.9235466 C183.840984,32.6102215 179.100055,25.5109331 171.812217,24.0664853 C164.524379,22.622338 157.449832,27.3798472 156.010418,34.6931724 Z" id="Stroke-29" stroke="#2E394C" stroke-width="1.5" stroke-linecap="round"></path>
                <polyline id="Stroke-31" stroke="#51B748" stroke-width="3" points="162.100322 37.3681816 167.014101 43.1071939 176.292853 33.2500773"></polyline>
                <path d="M164.21337,11.5391994 C165.343632,11.7403098 166.135384,11.1318681 166.332798,10.012684 C166.528115,8.90823006 165.990394,8.07943865 164.889789,7.88373926 L163.035477,7.55426687 L162.389313,11.215138 L164.21337,11.5391994 Z M161.387265,5.52963497 L165.517679,6.26373313 C167.522674,6.62026074 168.675702,8.27634049 168.307536,10.3638006 C167.93937,12.4509601 166.280674,13.6540153 164.275979,13.2977883 L162.090346,12.9093957 L161.436095,16.6150583 L159.491613,16.2690521 L161.387265,5.52963497 Z" id="Fill-33" fill="#2E394C" opacity="0.754302536"></path>
                <path d="M173.433797,9.58990123 C173.433797,9.58990123 173.005418,10.6059748 172.687878,11.1735331 L171.230789,13.878754 L174.034726,14.3771712 L173.592267,11.3343613 C173.503296,10.6943552 173.464352,9.59531227 173.464352,9.59531227 L173.433797,9.58990123 Z M174.236633,16.0509871 L170.483073,15.3836252 L169.093088,17.9758153 L167.087794,17.6195883 L172.752584,7.54993804 L174.787235,7.91187669 L176.660121,19.3210607 L174.654827,18.9648337 L174.236633,16.0509871 Z" id="Fill-35" fill="#2E394C" opacity="0.754302536"></path>
                <path d="M178.757831,16.8548276 C178.757831,16.8548276 179.718239,18.1955638 181.225355,18.463711 C182.039275,18.6083061 182.852896,18.3161098 183.007771,17.438619 C183.34688,15.5176988 178.238683,14.952846 178.82074,11.6554166 C179.135583,9.87067423 180.908414,8.81251472 182.958343,9.17685828 C185.068485,9.55202393 185.951305,10.8945638 185.951305,10.8945638 L184.826436,12.3326988 C184.826436,12.3326988 183.967281,11.2126129 182.625525,10.9742264 C181.721136,10.8133982 180.918899,11.2171221 180.785592,11.9734656 C180.449179,13.8793552 185.566363,14.3056252 184.960042,17.7389319 C184.658679,19.4485209 183.108425,20.6551834 180.877559,20.2583736 C178.49601,19.8351098 177.443635,18.1345393 177.443635,18.1345393 L178.757831,16.8548276 Z" id="Fill-37" fill="#2E394C" opacity="0.754302536"></path>
                <path d="M187.107929,18.3391067 C187.107929,18.3391067 188.068038,19.6801436 189.575753,19.9482908 C190.389673,20.0925853 191.202994,19.8006896 191.35757,18.9231988 C191.696679,17.0022785 186.588482,16.4371252 187.170538,13.1396957 C187.485981,11.3549534 189.258213,10.2967939 191.308142,10.661438 C193.418583,11.0363031 194.301104,12.3788429 194.301104,12.3788429 L193.176534,13.8169779 C193.176534,13.8169779 192.31708,12.6971926 190.975324,12.4585055 C190.070935,12.2979779 189.269297,12.7017018 189.13569,13.4580454 C188.798978,15.363935 193.916761,15.7899043 193.31044,19.223211 C193.008478,20.9328 191.458524,22.1394626 189.227657,21.7426528 C186.845809,21.319389 185.793734,19.6188184 185.793734,19.6188184 L187.107929,18.3391067 Z" id="Fill-39" fill="#2E394C" opacity="0.754302536"></path>
                <g id="Group-43" transform="translate(0.000000, 120.892319)">
                    <g id="Group" transform="translate(-0.000009, 0.009309)">
                        <path d="M27.334584,54.9833011 L50.3682019,39.7455035 C52.0188098,38.6533747 52.4792425,36.4044851 51.3909197,34.7481048 L29.6262627,1.61839311 C28.5382396,-0.0379872551 26.2971875,-0.499729586 24.6462801,0.592098634 L1.61296172,15.8301968 C-0.0379456656,16.9223256 -0.498078806,19.1709146 0.590243915,20.8275956 L22.3546014,53.9570066 C23.4429241,55.6136876 25.6836766,56.0754299 27.334584,54.9833011" id="Fill-41" fill="#2E394C"></path>
                        <polygon id="Fill-44" fill="#FEFEFE" points="23.2065067 47.7885379 45.3492158 33.1399428 26.2063591 4.00057471 4.06335043 18.6491698"></polygon>
                        <path d="M35.0920213,44.8883992 C35.622852,45.6967489 36.7066813,45.9201048 37.5119142,45.387117 C38.3177464,44.8544299 38.5400242,43.7671109 38.008894,42.9587612 C37.4780633,42.1504115 36.3945336,41.9270557 35.5890011,42.4600434 C34.7834685,42.9927305 34.5611907,44.0803502 35.0920213,44.8883992" id="Fill-46" fill="#FEFEFE"></path>
                        <path d="M12.7951257,23.4109778 L13.2285975,23.1211864 C13.569803,22.8933213 13.7908826,22.7105483 13.8915367,22.5722661 C13.9921908,22.4342845 14.043117,22.2833765 14.0449144,22.1195422 C14.0461127,21.9554072 13.9936886,21.7936772 13.8873428,21.6334502 C13.7028102,21.3550821 13.4613601,21.2243152 13.1620938,21.2393459 C12.9431112,21.2489655 12.6225758,21.3947631 12.2001879,21.6767385 L11.8152458,21.9340637 L12.7951257,23.4109778 Z M9.56490716,21.5107999 L11.0124093,20.5437262 C11.7951749,20.0206588 12.4080866,19.7161373 12.8502458,19.6298612 C13.292405,19.5438858 13.7213833,19.5964931 14.136282,19.7867815 C14.5511807,19.9782723 14.9091619,20.2999287 15.209926,20.7532538 C15.5427436,21.2552784 15.6889318,21.7603091 15.6478912,22.267444 C15.6071503,22.7748796 15.405842,23.2432354 15.0439665,23.6728121 C14.830376,23.9244256 14.3759347,24.2815545 13.6809419,24.7460023 L15.7021127,27.7930207 L14.3372907,28.7047815 L9.56490716,21.5107999 Z" id="Fill-48" fill="#27A0C4"></path>
                        <polygon id="Fill-50" fill="#27A0C4" points="15.8551309 17.3082833 17.1843046 16.420271 22.1753711 20.3276453 20.523565 14.1897189 21.8524391 13.3020072 27.8275795 19.6927496 26.507992 20.5741483 22.725374 16.5441238 24.2160137 22.1051729 23.0135564 22.9087127 18.4901121 19.373498 20.716785 24.4427434 19.3864131 25.3316575"></polygon>
                        <polygon id="Fill-52" fill="#27A0C4" points="23.4349856 12.2445391 27.397343 9.59733667 28.2927454 10.9473919 26.9863387 11.8197723 30.863919 17.6639992 29.4796252 18.5886864 25.6023445 12.7444594 24.3303879 13.5942937"></polygon>
                        <path d="M22.6822665,34.389533 C24.5198034,37.5354532 28.5507614,38.590306 31.6854184,36.7463428 C34.8200755,34.902079 35.871252,30.8570238 34.0340147,27.7114042 C32.1961782,24.5657845 28.1652202,23.5109318 25.0305632,25.354895 C21.8959061,27.1991588 20.84443,31.2439134 22.6822665,34.389533" id="Fill-54" fill="#FEFEFE"></path>
                        <path d="M22.6822665,34.389533 C24.5198034,37.5354532 28.5507614,38.590306 31.6854184,36.7463428 C34.8200755,34.902079 35.871252,30.8570238 34.0340147,27.7114042 C32.1961782,24.5657845 28.1652202,23.5109318 25.0305632,25.354895 C21.8959061,27.1991588 20.84443,31.2439134 22.6822665,34.389533 Z" id="Stroke-56" stroke="#2E394C" stroke-width="1.5" stroke-linecap="round"></path>
                        <path d="M30.8217402,29.2394526 L25.9013711,28.5814097 C25.4265593,28.5179802 25.0868516,29.0308269 25.3292004,29.4456735 L28.4189225,34.7337655 C28.6615708,35.1486121 29.2732843,35.1017164 29.4500281,34.6550048 L31.2803755,30.0243545 C31.4184753,29.6753422 31.1926027,29.2890538 30.8217402,29.2394526" id="Fill-58" fill="#51B748"></path>
                    </g>
                </g>
            </g>
        </g>
    </g>
</svg>