<?xml version="1.0" encoding="UTF-8"?>
<svg width="277px" height="284px" viewBox="0 0 277 284" version="1.1" xmlns="http://www.w3.org/2000/svg" xmlns:xlink="http://www.w3.org/1999/xlink">
    <!-- Generator: Sketch 55 (78076) - https://sketchapp.com -->
    <title>enroll-1</title>
    <desc>Created with Sketch.</desc>
    <g id="Page-1" stroke="none" stroke-width="1" fill="none" fill-rule="evenodd">
        <g id="enroll-1">
            <rect id="Rectangle" fill="#FFFFFF" x="0" y="0" width="277" height="284"></rect>
            <g transform="translate(33.000000, 59.000000)">
                <g id="Group-7" transform="translate(0.000000, 53.004673)" stroke="#2E394C" stroke-width="1.327104">
                    <path d="M14.8214361,75.3785047 C0.758991826,68.5284485 -2.31565974,59.4723737 5.59748137,48.2102804" id="Path-5"></path>
                    <polygon id="Rectangle" fill="#E9F1F3" points="10.2736111 69.5186916 70.7149503 69.5186916 72.5191694 78.5747664 8.46939204 78.5747664"></polygon>
                    <rect id="Rectangle" fill="#E9F1F3" x="0" y="0" width="11.3807456" height="54.8691589"></rect>
                    <path d="M5.42758503,127.409703 L5.42758503,129.672897 L33.4786847,129.672897 L33.4786847,125.714216 L5.42758503,127.409703 Z" id="Rectangle" fill="#ECF3F8"></path>
                    <path d="M44.3338547,127.409703 L44.3338547,129.672897 L72.3849544,129.672897 L72.3849544,125.714216 L44.3338547,127.409703 Z" id="Rectangle" fill="#ECF3F8" transform="translate(58.359405, 127.672897) scale(-1, 1) translate(-58.359405, -127.672897) "></path>
                    <rect id="Rectangle" fill="#ECF3F8" x="33.4824462" y="78.9719632" width="10.8476471" height="3.9999988"></rect>
                    <path d="M33.2835759,124.607477 L31.824831,130.205607 L45.9877084,130.205607 L44.5289635,124.607477 L33.2835759,124.607477 Z" id="Rectangle" fill="#ECF3F8"></path>
                    <rect id="Rectangle" fill="#ECF3F8" x="36.3937997" y="83.0856704" width="4.76027153" height="40.9937683"></rect>
                    <ellipse id="Oval" fill="#ECF3F8" cx="7.80772079" cy="133.399533" rx="2.38013577" ry="2.39953211"></ellipse>
                    <ellipse id="Oval" fill="#ECF3F8" cx="70.0048186" cy="133.399533" rx="2.38013577" ry="2.39953211"></ellipse>
                </g>
                <g id="Group" transform="translate(33.348231, 16.514019)">
                    <polygon id="Path-2" stroke="#2E394C" stroke-width="1.327104" fill="#27A0C4" points="20.870151 25.3125447 0 109.147342 38.7693265 107.349177 33.9342648 44.715578"></polygon>
                    <path d="M33.0268052,99.0776404 C32.9987504,98.9972012 32.9789002,98.9018461 32.9413173,98.8387199 C32.0851147,97.4097246 31.2262654,95.986589 30.3705921,94.5573274 C30.157534,94.2014769 29.9471225,93.840033 29.7488858,93.4602105 C29.6888061,93.3448788 29.6398424,93.156832 29.6430184,93.006075 C29.6914528,90.795061 29.7510032,88.5848461 29.8052602,86.3746311 C29.8899541,82.9093507 29.972266,79.4440704 30.0566953,75.97879 C30.0966602,74.3455003 30.1297438,72.7114115 30.1832068,71.0791872 C30.2615487,68.6886498 30.3520653,66.2994442 30.4436407,63.9105049 C30.4923397,62.6498461 30.5468614,61.3902526 30.6117051,60.1319909 C30.7167785,58.0842526 30.8226459,56.0359816 30.9483635,53.9917059 C31.0060612,53.0581311 31.1275441,52.140804 31.3257808,51.2578367 C31.4827292,50.5591872 31.6243268,49.8501498 31.7728059,49.1456404 C31.8839666,48.6174582 32.0888201,48.2096685 32.3309917,47.8495563 C32.3743974,47.7850984 32.4143623,47.7107853 32.461738,47.6564489 C32.7023216,47.3810376 32.6917349,46.9047947 32.5162597,46.5505423 C32.2351817,45.9826732 31.9019641,45.4912479 31.5862146,44.9761171 C31.450969,44.7553087 31.3016959,44.5600704 31.1638036,44.3443227 C31.070905,44.1991591 31.0873144,44.0968788 31.1905352,43.97329 C31.7069034,43.3558788 32.3032015,43.1776872 32.9050577,43.0266638 C33.0455967,42.9912386 33.1837536,42.923318 33.3242926,42.8956171 C33.6932405,42.8231685 34.0164008,43.0783367 34.3247396,43.3713274 C34.5954954,43.6280937 34.8485185,43.9397292 35.109217,44.2268601 C35.1891469,44.3147573 35.15474,44.4026545 35.1102757,44.4913507 C35.0065256,44.6967105 34.9051576,44.9052666 34.7987608,45.1063647 C34.5385917,45.6001872 34.2770992,46.0918788 34.0137541,46.5814395 C33.8808905,46.8294161 33.8568056,47.1429161 33.8456896,47.454019 C33.8422489,47.5416498 33.9055046,47.6452619 33.9475869,47.7272993 C34.1823479,48.1822339 34.4364297,48.6107993 34.6518698,49.0910376 C34.8421665,49.5158741 34.8313151,50.0507152 34.8270804,50.5655797 C34.8239043,50.9363461 34.8151703,51.3076451 34.8252277,51.6773461 C34.9059516,54.5968647 34.9885282,57.5158507 35.0737514,60.4348367 C35.1436239,62.8179161 35.2166724,65.2007292 35.2907796,67.5838087 C35.3492713,69.4722666 35.404587,71.3607246 35.4736655,73.2478507 C35.5342746,74.904047 35.6123518,76.5581124 35.6811656,78.2132433 C35.7216599,79.1766498 35.7513028,80.1413881 35.8007958,81.1034629 C35.8627282,82.3028601 35.9426581,83.5001264 36.0096192,84.6989909 C36.0622883,85.6437526 36.1011945,86.5909115 36.1562456,87.5354068 C36.2562903,89.2512666 36.362687,90.9665937 36.4704071,92.6811218 C36.4846992,92.9109862 36.4161501,93.0572152 36.3386022,93.2039769 C36.064935,93.7228367 35.7949731,94.24729 35.5136305,94.7538975 C34.8156996,96.0102947 34.1111521,97.256304 33.4118979,98.5111031 C33.3139705,98.6868975 33.2311293,98.8882619 33.1416714,99.0776404 L33.0268052,99.0776404 Z" id="Fill-89" fill="#3F4247"></path>
                    <path d="M24.643445,41.6780101 L17.3845072,73.7300245 C42.7306271,68.2336072 60.5301591,67.3244824 70.7831031,71.00265" id="Path-3" stroke="#2E394C" stroke-width="1.327104"></path>
                    <ellipse id="Oval" stroke="#2E394C" stroke-width="1.327104" fill="#FAB77C" cx="32.307067" cy="20.8189588" rx="12.9950214" ry="20.8189588"></ellipse>
                    <path d="M35.8763447,34.5987336 C35.8763447,34.5987336 30.2682838,34.1925421 30.1722092,28.7663551" id="Stroke-117" stroke="#2E394C" stroke-width="1.327104" stroke-linecap="round"></path>
                    <polyline id="Path-4" stroke="#2E394C" stroke-width="1.327104" points="39.2533946 106.705727 66.305205 110.468651 56.2191169 171.703891"></polyline>
                    <polyline id="Path-7" stroke="#2E394C" stroke-width="1.327104" points="40.8644031 106.705727 68.6752171 106.705727 78.0772079 170.200935"></polyline>
                </g>
                <g id="Group-3" transform="translate(94.972344, 0.000000)">
                    <g id="Group-8" stroke="#2E394C" stroke-width="1.327104">
                        <g id="Group-6">
                            <g id="Group-2" transform="translate(0.101582, 95.355140)" fill="#E69E8F">
                                <rect id="Rectangle" x="0" y="0" width="106.926075" height="2.73078668"></rect>
                                <rect id="Rectangle" x="4.15422249" y="2.36668179" width="99.3401031" height="5.09746847"></rect>
                                <polygon id="Rectangle" points="13.9730559 7.6462027 18.603692 7.6462027 10.6198366 93.7570093 7.58597151 93.7570093"></polygon>
                                <polygon id="Rectangle" transform="translate(94.734335, 50.701606) scale(-1, 1) translate(-94.734335, -50.701606) " points="95.6125587 7.6462027 100.243195 7.6462027 92.2593395 93.7570093 89.2254744 93.7570093"></polygon>
                            </g>
                            <path d="M14.2632275,19.0798876 L14.2632275,51.7705797 L55.8124207,69.8383452 L55.8124207,1.01212213 L14.2632275,19.0798876 Z" id="Rectangle" fill="#ECF3F8"></path>
                            <path d="M17.174581,21.3508225 L17.174581,49.4996448 L52.9010672,65.0437359 L52.9010672,5.80673143 L17.174581,21.3508225 Z" id="Rectangle" fill="#FFFFFF"></path>
                            <path d="M56.361999,36.5357415 C69.3141662,58.3858436 74.6949833,75.7063384 77.0528371,95.0774208 L83.3757436,94.843612 C81.6177941,81.9024632 72.9344723,62.3168825 57.2687722,35.9878209 L56.361999,36.5357415 Z" id="Path-6" fill="#ECF3F8"></path>
                            <rect id="Rectangle" fill="#ECF3F8" x="6.58784094" y="91.7570099" width="18.5230336" height="2.40186796"></rect>
                            <ellipse id="Oval" fill="#ECF3F8" cx="25.1127553" cy="92.2920561" rx="1.85079876" ry="1.86682183"></ellipse>
                        </g>
                    </g>
                    <g id="Group" transform="translate(25.286754, 26.339564)">
                        <path d="M7.10542736e-14,8.99419681 C7.10542736e-14,13.9615217 4.00077267,17.9883936 8.93590301,17.9883936 C13.8708223,17.9883936 17.871595,13.9615217 17.871595,8.99419681 C17.871595,4.02687191 13.8708223,7.81597009e-14 8.93590301,7.81597009e-14 C4.00077267,7.81597009e-14 7.10542736e-14,4.02687191 7.10542736e-14,8.99419681 Z" id="Stroke-56" stroke="#2E394C" stroke-width="1.0616832" fill="#27A0C4" stroke-linecap="round"></path>
                        <path d="M13.0622907,8.56899652 L7.74776215,4.39409034 C7.23479388,3.99097838 6.48591507,4.35904636 6.48591507,5.01405021 L6.48633709,13.3651369 C6.48633709,14.0201407 7.23542691,14.3879963 7.74818417,13.9848844 L13.0625017,9.80870387 C13.463001,9.49394521 13.463001,8.88375518 13.0622907,8.56899652" id="Fill-57" fill="#FFFFFF"></path>
                    </g>
                    <rect id="Rectangle" stroke="#2E394C" stroke-width="1.327104" fill="#ECF3F8" x="56.0808507" y="0.663552" width="3.17226052" height="69.2570081"></rect>
                </g>
            </g>
        </g>
    </g>
</svg>