<?xml version="1.0" encoding="UTF-8"?>
<svg width="565px" height="348px" viewBox="0 0 565 348" version="1.1" xmlns="http://www.w3.org/2000/svg" xmlns:xlink="http://www.w3.org/1999/xlink">
    <!-- Generator: Sketch 55 (78076) - https://sketchapp.com -->
    <title>Group 3</title>
    <desc>Created with Sketch.</desc>
    <g id="Page-1" stroke="none" stroke-width="1" fill="none" fill-rule="evenodd">
        <g id="live-courses" transform="translate(-726.000000, -1879.000000)">
            <g id="Group-3" transform="translate(728.000000, 1881.000000)">
                <g id="Group" opacity="0.22984096" stroke="#2E394C" stroke-width="2.64">
                    <path d="M0.24017094,336.375522 L561.67727,336.375522" id="Line" stroke-linecap="square"></path>
                    <rect id="Rectangle" fill="#FFFFFF" x="149.386325" y="14.4367177" width="272.834188" height="276.703755"></rect>
                    <rect id="Rectangle" fill="#FFFFFF" x="196.459829" y="66.4089013" width="178.687179" height="224.731572"></rect>
                    <rect id="Rectangle" fill="#FFFFFF" x="206.066667" y="75.5521558" width="159.473504" height="215.588317"></rect>
                    <rect id="Rectangle" fill="#FFFFFF" x="117.683761" y="0" width="336.239316" height="28.8734353"></rect>
                    <rect id="Rectangle" fill="#FFFFFF" x="187.333333" y="50.5285118" width="196.940171" height="15.8803894"></rect>
                    <polygon id="Rectangle" fill="#FFFFFF" points="249.777778 39.9415855 321.82906 39.9415855 316.110704 68.8150209 255.496133 68.8150209"></polygon>
                    <path d="M287.484615,84.4547983 L287.484615,273.117133" id="Line-2"></path>
                    <rect id="Rectangle" fill="#FFFFFF" x="111.919658" y="289.215577" width="336.239316" height="15.8803894"></rect>
                    <rect id="Rectangle" fill="#FFFFFF" x="53.3179487" y="305.095967" width="453.442735" height="15.8803894"></rect>
                    <rect id="Rectangle" fill="#FFFFFF" x="28.8205128" y="320.495132" width="502.437607" height="15.8803894"></rect>
                    <rect id="Rectangle" x="303.576068" y="186.233658" width="49.4752137" height="9.14325452"></rect>
                    <rect id="Rectangle" x="221.917949" y="186.233658" width="49.4752137" height="9.14325452"></rect>
                </g>
                <g id="Group-2" transform="translate(164.757265, 131.374131)">
                    <g id="Group" transform="translate(0.000000, 4.812239)">
                        <polygon id="Path-54" stroke="#2E394C" stroke-width="2.64" fill="#FFC060" points="34.8534904 52.948518 11.3602731 151.118198 69.4816406 151.118198 55.1635856 61.062024"></polygon>
                        <ellipse id="Oval" fill="#2E394C" cx="60.282906" cy="39.2197497" rx="13.2094017" ry="28.6328234"></ellipse>
                        <ellipse id="Oval" stroke="#2E394C" stroke-width="2.64" fill="#FAB77C" transform="translate(55.034704, 35.166665) rotate(30.000000) translate(-55.034704, -35.166665) " cx="55.0347045" cy="35.1666651" rx="19.46276" ry="29.3411916"></ellipse>
                        <polyline id="Path-55" stroke="#2E394C" stroke-width="2.64" points="11.3602731 150.636974 69.4816406 158.337708 48.8433449 209.346293"></polyline>
                        <polyline id="Path-56" stroke="#2E394C" stroke-width="2.64" points="40.6611278 151.118198 91.2800542 154.889761 105.987624 205.977725"></polyline>
                        <polygon id="Path-57" stroke="#2E394C" stroke-width="2.64" fill="#E6E6E6" points="43.3825765 149.193302 131.919708 149.193302 147.777367 101.552134 87.353833 101.552134 73.2249061 144.091063 40.1807859 144.091063"></polygon>
                        <polyline id="Path-58" stroke="#2E394C" stroke-width="2.64" points="35.1028379 56.3170855 0.312409856 112.823849 73.2145041 121.170783 77.1671107 125.61333"></polyline>
                    </g>
                    <path d="M55.0433988,59.761636 C55.0433988,59.761636 47.4861073,59.1629641 47.3613805,51.1059984" id="Stroke-117" stroke="#2E394C" stroke-width="2.64" stroke-linecap="round" transform="translate(51.202390, 55.433817) rotate(-20.000000) translate(-51.202390, -55.433817) "></path>
                    <g id="Group-7" transform="translate(40.588889, 41.625869) scale(-1, 1) translate(-40.588889, -41.625869) translate(4.803419, 0.000000)" fill="#2E394C">
                        <ellipse id="Oval" cx="25.2179487" cy="12.9930459" rx="25.2179487" ry="12.9930459"></ellipse>
                        <ellipse id="Oval" cx="44.6717949" cy="24.0611961" rx="10.5675214" ry="14.9179416"></ellipse>
                        <ellipse id="Oval" cx="52.5974359" cy="54.6189152" rx="13.2094017" ry="28.6328234"></ellipse>
                        <ellipse id="Oval" cx="63.4051282" cy="56.0625869" rx="8.16581197" ry="8.90264256"></ellipse>
                        <ellipse id="Oval" cx="39.3880342" cy="71.9429764" rx="9.12649573" ry="11.3087622"></ellipse>
                    </g>
                </g>
                <g id="Group" transform="translate(281.000000, 122.230876)">
                    <path d="M138.228085,46.852462 C138.228085,20.9768728 107.284488,0 69.1140426,0 C30.9435974,0 0,20.9768728 0,46.852462 C0,72.7280511 30.9435974,93.7043336 69.1140426,93.7043336 C78.9849456,93.7043336 88.3702781,92.2987125 96.8642167,89.7714282 L115.06602,98.1030243 L113.611672,82.6996369 C128.662583,74.1047451 138.228085,61.2363165 138.228085,46.852462" id="Fill-62" fill="#27A0C4" transform="translate(69.114043, 49.051512) scale(-1, 1) translate(-69.114043, -49.051512) "></path>
                    <path d="M138.228085,46.852462 C138.228085,20.9768728 107.284488,0 69.1140426,0 C30.9435974,0 0,20.9768728 0,46.852462 C0,72.7280511 30.9435974,93.7043336 69.1140426,93.7043336 C78.9849456,93.7043336 88.3702781,92.2987125 96.8642167,89.7714282 L115.06602,98.1030243 L113.611672,82.6996369 C128.662583,74.1047451 138.228085,61.2363165 138.228085,46.852462 Z" id="Stroke-64" stroke="#2E394C" stroke-width="2.4" transform="translate(69.114043, 49.051512) scale(-1, 1) translate(-69.114043, -49.051512) "></path>
                    <path d="M14.1275714,35.4010029 L17.4093755,35.4010029 C19.1847263,35.4010029 20.4646539,35.5652082 21.2491969,35.8936239 C22.0337398,36.2220396 22.652525,36.7534008 23.1055709,37.4877235 C23.5586168,38.2220462 23.7851364,39.1021132 23.7851364,40.127951 C23.7851364,41.2644906 23.4886352,42.2091328 22.8956238,42.9619058 C22.3026125,43.7146788 21.4978235,44.23866 20.4812326,44.5338652 C19.884538,44.7036081 18.7979807,44.7884783 17.2215282,44.7884783 L17.2215282,51.6851731 L14.1275714,51.6851731 L14.1275714,35.4010029 Z M17.2215282,41.7663311 L18.2049644,41.7663311 C18.9784575,41.7663311 19.5162112,41.710981 19.8182419,41.6002791 C20.1202725,41.4895772 20.3578418,41.3069217 20.5309569,41.0523073 C20.704072,40.7976929 20.7906283,40.4895772 20.7906283,40.127951 C20.7906283,39.5006401 20.5475341,39.0430791 20.0613385,38.7552541 C19.7077416,38.5412304 19.052124,38.4342202 18.094466,38.4342202 L17.2215282,38.4342202 L17.2215282,41.7663311 Z M28.3818721,35.4010029 L31.4095298,35.4010029 L35.1664773,46.7589625 L38.978674,35.4010029 L41.9621323,35.4010029 L44.7024939,51.6851731 L41.7190357,51.6851731 L39.9731601,41.4010166 L36.5145584,51.6851731 L33.7852466,51.6851731 L30.3708443,41.4010166 L28.5918192,51.6851731 L25.5752114,51.6851731 L28.3818721,35.4010029 Z M48.3931423,35.16853 L49.9511706,35.16853 L49.9511706,39.640865 L52.4042363,39.640865 L52.4042363,40.9692813 L49.9511706,40.9692813 L49.9511706,51.6851731 L48.3931423,51.6851731 L48.3931423,40.9692813 L46.2826218,40.9692813 L46.2826218,39.640865 L48.3931423,39.640865 L48.3931423,35.16853 Z M54.1280122,39.640865 L55.7081401,39.640865 L55.7081401,41.4010166 C56.1796025,40.7072846 56.6768406,40.1888384 57.1998692,39.8456625 C57.7228978,39.5024866 58.2680181,39.3309012 58.8352463,39.3309012 C59.2625092,39.3309012 59.7192315,39.4674315 60.2054272,39.7404962 L59.3987885,41.0467723 C59.074658,40.9065499 58.8020979,40.8364397 58.5810999,40.8364397 C58.0654379,40.8364397 57.5681998,41.0486152 57.0893708,41.4729725 C56.6105417,41.8973299 56.2459005,42.5559964 55.995436,43.4489918 C55.8039044,44.1353437 55.7081401,45.5227869 55.7081401,47.611363 L55.7081401,51.6851731 L54.1280122,51.6851731 L54.1280122,39.640865 Z M73.4983913,39.640865 L73.4983913,51.6851731 L71.9735126,51.6851731 L71.9735126,49.6150576 C71.3252518,50.4047313 70.5978109,50.9988226 69.7911682,51.3973495 C68.9845254,51.7958764 68.1023882,51.9951369 67.1447302,51.9951369 C65.4430454,51.9951369 63.9900053,51.3770605 62.7855661,50.1408891 C61.5811269,48.9047177 60.9789164,47.4010393 60.9789164,45.6298086 C60.9789164,43.8954786 61.5866518,42.4120952 62.8021409,41.1796139 C64.01763,39.9471326 65.4798782,39.3309012 67.1889295,39.3309012 C68.176054,39.3309012 69.0692409,39.5412317 69.8685171,39.9618989 C70.6677932,40.3825662 71.3694514,41.0135577 71.9735126,41.8548922 L71.9735126,39.640865 L73.4983913,39.640865 Z M67.3104778,40.8253696 C66.4485856,40.8253696 65.6530047,41.037545 64.9237112,41.4619024 C64.1944178,41.8862597 63.6143067,42.4821961 63.1833605,43.2497294 C62.7524144,44.0172626 62.5369446,44.8290645 62.5369446,45.6851593 C62.5369446,46.533874 62.754256,47.3456758 63.1888855,48.1205892 C63.6235149,48.8955027 64.2073092,49.498819 64.940286,49.9305565 C65.6732627,50.362294 66.4596355,50.5781595 67.299428,50.5781595 C68.1465871,50.5781595 68.9495345,50.364139 69.7082943,49.9360916 C70.4670542,49.5080442 71.0508485,48.9287128 71.4596948,48.1980802 C71.8685412,47.4674476 72.0729613,46.6445757 72.0729613,45.7294399 C72.0729613,44.3345957 71.6143973,43.1685531 70.6972555,42.2312768 C69.7801137,41.2940006 68.6511991,40.8253696 67.3104778,40.8253696 Z M77.5205351,34.681444 C77.8741319,34.681444 78.176158,34.8069043 78.4266224,35.0578286 C78.6770868,35.308753 78.8023172,35.6113337 78.8023172,35.9655798 C78.8023172,36.3124458 78.6770868,36.6113365 78.4266224,36.8622608 C78.176158,37.1131852 77.8741319,37.2386455 77.5205351,37.2386455 C77.1743049,37.2386455 76.875962,37.1131852 76.6254976,36.8622608 C76.3750332,36.6113365 76.2498029,36.3124458 76.2498029,35.9655798 C76.2498029,35.6113337 76.3750332,35.308753 76.6254976,35.0578286 C76.875962,34.8069043 77.1743049,34.681444 77.5205351,34.681444 Z M76.7470459,39.640865 L78.3050741,39.640865 L78.3050741,51.6851731 L76.7470459,51.6851731 L76.7470459,39.640865 Z M81.5095293,39.640865 L83.0565077,39.640865 L83.0565077,41.7995415 C83.6753021,40.9729672 84.3603857,40.3548908 85.1117789,39.9452937 C85.8631722,39.5356967 86.6808526,39.3309012 87.5648447,39.3309012 C88.4635699,39.3309012 89.2609925,39.5596817 89.9571362,40.0172496 C90.6532799,40.4748175 91.1670926,41.0910489 91.4985897,41.8659624 C91.8300867,42.6408758 91.9958327,43.8475085 91.9958327,45.4858969 L91.9958327,51.6851731 L90.4599042,51.6851731 L90.4599042,45.9397724 C90.4599042,44.5523084 90.4009723,43.6261163 90.2831066,43.1611683 C90.0989416,42.3641145 89.7527166,41.7644881 89.2444212,41.3622712 C88.7361257,40.9600542 88.0731416,40.7589487 87.255449,40.7589487 C86.3198907,40.7589487 85.4819525,41.0689095 84.7416091,41.6888402 C84.0012658,42.3087709 83.5132358,43.0762927 83.2775046,43.9914285 C83.1301726,44.5892188 83.0565077,45.6814613 83.0565077,47.2681888 L83.0565077,51.6851731 L81.5095293,51.6851731 L81.5095293,39.640865 Z M95.8522288,34.681444 C96.2058256,34.681444 96.5078517,34.8069043 96.7583161,35.0578286 C97.0087805,35.308753 97.1340109,35.6113337 97.1340109,35.9655798 C97.1340109,36.3124458 97.0087805,36.6113365 96.7583161,36.8622608 C96.5078517,37.1131852 96.2058256,37.2386455 95.8522288,37.2386455 C95.5059986,37.2386455 95.2076557,37.1131852 94.9571913,36.8622608 C94.7067269,36.6113365 94.5814965,36.3124458 94.5814965,35.9655798 C94.5814965,35.6113337 94.7067269,35.308753 94.9571913,35.0578286 C95.2076557,34.8069043 95.5059986,34.681444 95.8522288,34.681444 Z M95.0787396,39.640865 L96.6367678,39.640865 L96.6367678,51.6851731 L95.0787396,51.6851731 L95.0787396,39.640865 Z M99.841223,39.640865 L101.388201,39.640865 L101.388201,41.7995415 C102.006996,40.9729672 102.692079,40.3548908 103.443473,39.9452937 C104.194866,39.5356967 105.012546,39.3309012 105.896538,39.3309012 C106.795264,39.3309012 107.592686,39.5596817 108.28883,40.0172496 C108.984974,40.4748175 109.498786,41.0910489 109.830283,41.8659624 C110.16178,42.6408758 110.327526,43.8475085 110.327526,45.4858969 L110.327526,51.6851731 L108.791598,51.6851731 L108.791598,45.9397724 C108.791598,44.5523084 108.732666,43.6261163 108.6148,43.1611683 C108.430635,42.3641145 108.08441,41.7644881 107.576115,41.3622712 C107.067819,40.9600542 106.404835,40.7589487 105.587143,40.7589487 C104.651584,40.7589487 103.813646,41.0689095 103.073303,41.6888402 C102.332959,42.3087709 101.84493,43.0762927 101.609198,43.9914285 C101.461866,44.5892188 101.388201,45.6814613 101.388201,47.2681888 L101.388201,51.6851731 L99.841223,51.6851731 L99.841223,39.640865 Z M123.996185,39.640865 L125.554213,39.640865 L125.554213,49.238673 C125.554213,50.9287222 125.406884,52.1648751 125.11222,52.9471686 C124.707057,54.0541877 124.003557,54.9065797 123.001699,55.50437 C121.999842,56.1021604 120.79542,56.4010511 119.3884,56.4010511 C118.357076,56.4010511 117.43074,56.2552957 116.609364,55.9637807 C115.787988,55.6722656 115.119479,55.2811247 114.603817,54.7903463 C114.088155,54.2995678 113.613016,53.5818611 113.178387,52.6372048 L114.857963,52.6372048 C115.314692,53.4342586 115.904011,54.0246599 116.625938,54.4084266 C117.347865,54.7921932 118.242894,54.9840736 119.311051,54.9840736 C120.364475,54.9840736 121.253978,54.7866582 121.979588,54.3918214 C122.705199,53.9969845 123.222695,53.5006784 123.532092,52.902888 C123.841489,52.3050977 123.996185,51.3420055 123.996185,50.0135825 L123.996185,49.3936549 C123.414224,50.1316677 122.703358,50.698084 121.863565,51.0929208 C121.023773,51.4877576 120.132427,51.6851731 119.189502,51.6851731 C118.084512,51.6851731 117.045837,51.4102674 116.073446,50.8604479 C115.101055,50.3106284 114.349673,49.5707817 113.819278,48.6408856 C113.288882,47.7109896 113.023689,46.6888572 113.023689,45.5744579 C113.023689,44.4600587 113.299932,43.4213213 113.852427,42.4582146 C114.404922,41.495108 115.169195,40.7331212 116.14527,40.1722315 C117.121345,39.6113418 118.150812,39.3309012 119.233702,39.3309012 C120.132427,39.3309012 120.970365,39.5172466 121.747542,39.8899431 C122.524718,40.2626395 123.274258,40.8770259 123.996185,41.7331207 L123.996185,39.640865 Z M119.432599,40.8253696 C118.555974,40.8253696 117.741976,41.037545 116.990583,41.4619024 C116.23919,41.8862597 115.649871,42.4729711 115.222608,43.222054 C114.795345,43.971137 114.581717,44.7810938 114.581717,45.6519489 C114.581717,46.9729917 115.023706,48.0652343 115.907698,48.9287092 C116.79169,49.7921841 117.93718,50.2239151 119.3442,50.2239151 C120.765954,50.2239151 121.909602,49.7958741 122.775177,48.9397793 C123.640753,48.0836845 124.073534,46.9582319 124.073534,45.5633878 C124.073534,44.6556321 123.874639,43.8456753 123.476843,43.1334929 C123.079046,42.4213106 122.51551,41.8585843 121.786216,41.4452972 C121.056923,41.03201 120.272392,40.8253696 119.432599,40.8253696 Z" id="PMtraining" fill="#FEFEFE"></path>
                </g>
            </g>
        </g>
    </g>
</svg>