<svg width="59" height="59" viewBox="0 0 59 59" fill="none" xmlns="http://www.w3.org/2000/svg">
<rect width="59" height="59" fill="white"/>
<ellipse cx="29.9581" cy="32.7709" rx="17.847" ry="17.7709" fill="#00B6FF" fill-opacity="0.171465"/>
<path d="M13.7803 48.9824L28.4345 38.3432C29.3592 37.6726 30.5816 37.6706 31.5063 38.3392L46.2185 48.9824" stroke="#265A6E" stroke-width="2" stroke-linecap="round" stroke-linejoin="round"/>
<path d="M41.7192 20.8647L49.1491 26.1894C49.6904 26.7262 50 27.4706 50 28.2509V50.1721C50 51.7327 48.7896 53 47.2996 53H12.7004C11.2084 53 10 51.7327 10 50.1721V28.249C10 27.4706 10.3056 26.7262 10.8469 26.1894L15.9759 23.1159" stroke="#265A6E" stroke-width="2" stroke-linecap="round" stroke-linejoin="round"/>
<path d="M37.6211 38.0117L46.1895 31.0206" stroke="#265A6E" stroke-width="2" stroke-linecap="round" stroke-linejoin="round"/>
<path d="M13.8096 31.0198L22.3281 38.0149" stroke="#265A6E" stroke-width="2" stroke-linecap="round" stroke-linejoin="round"/>
<path d="M26.0393 30.9488V22.9658L16.0527 12.9872V16.9786" stroke="#265A6E" stroke-width="2" stroke-linecap="round" stroke-linejoin="round"/>
<path d="M34.0283 30.9488V18.9744L42.0175 10.9915H38.0229" stroke="#265A6E" stroke-width="2" stroke-linecap="round" stroke-linejoin="round"/>
<path d="M16.0527 12.9872H20.0473" stroke="#265A6E" stroke-width="2" stroke-linecap="round" stroke-linejoin="round"/>
<path d="M42.0176 14.9829V10.9915" stroke="#265A6E" stroke-width="2" stroke-linecap="round" stroke-linejoin="round"/>
<path d="M26.0391 10.9915L30.0337 7V32.9445" stroke="#265A6E" stroke-width="2" stroke-linecap="round" stroke-linejoin="round"/>
<path d="M34.0283 10.9915L30.0337 7" stroke="#265A6E" stroke-width="2" stroke-linecap="round" stroke-linejoin="round"/>
</svg>
