<svg width="59" height="59" viewBox="0 0 59 59" fill="none" xmlns="http://www.w3.org/2000/svg">
<rect width="59" height="59" fill="white"/>
<ellipse cx="23.847" cy="39.4056" rx="17.847" ry="17.5944" fill="#00B6FF" fill-opacity="0.171465"/>
<path d="M48.0269 48.4509V31.9922" stroke="#265A6E" stroke-width="2" stroke-linecap="round" stroke-linejoin="round"/>
<path fill-rule="evenodd" clip-rule="evenodd" d="M50.7338 7.48977C50.7338 9.0017 49.5233 11.1109 48.0267 11.1109C46.532 11.1109 45.3215 9.0017 45.3215 7.48977C45.3215 5.97783 46.532 4.7536 48.0267 4.7536C49.5233 4.7536 50.7338 5.97783 50.7338 7.48977Z" fill="#FFBC00" stroke="#265A6E" stroke-width="2" stroke-linecap="round" stroke-linejoin="round"/>
<path d="M44.5254 48.4509L43.4549 28.9902V21.8194C43.4549 20.2658 42.5425 18.8551 41.1179 18.2102L32.0481 14.099V12.8014H41.9343C43.3109 12.8014 44.3673 13.4641 45.2157 14.478C46.4982 16.0177 49.3975 16.2102 50.2118 14.6129C50.4419 14.1645 53.127 14.7836 53.127 14.7836C53.127 14.7836 54.3876 14.9701 53.8794 28.7343C53.8653 29.1073 52.6148 28.5973 52.6008 28.9902L51.5284 48.4509" stroke="#265A6E" stroke-width="2" stroke-linecap="round" stroke-linejoin="round"/>
<path d="M30.019 4.94647V3" stroke="#265A6E" stroke-width="2" stroke-linecap="round" stroke-linejoin="round"/>
<path d="M10.0107 32.6647V4.94586" stroke="#265A6E" stroke-width="2" stroke-linecap="round" stroke-linejoin="round"/>
<path d="M40.0136 4.94647H8" stroke="#265A6E" stroke-width="2" stroke-linecap="round" stroke-linejoin="round"/>
<path d="M40.0136 32.7248H8" stroke="#265A6E" stroke-width="2" stroke-linecap="round" stroke-linejoin="round"/>
<path fill-rule="evenodd" clip-rule="evenodd" d="M33.5352 40.6373C33.5352 41.9568 32.4287 43.7981 31.0662 43.7981C29.7036 43.7981 28.5991 41.9568 28.5991 40.6373C28.5991 39.3178 29.7036 38.2484 31.0662 38.2484C32.4287 38.2484 33.5352 39.3178 33.5352 40.6373Z" fill="#FFBC00" stroke="#265A6E" stroke-width="2" stroke-linecap="round" stroke-linejoin="round"/>
<path d="M37.6922 48.543C37.8643 47.3466 36.9299 46.2771 35.7114 46.2771H33.5345C31.8617 47.9378 30.041 47.9378 28.3663 46.2771H26.3194C25.1029 46.2771 24.1665 47.3466 24.3386 48.543" stroke="#265A6E" stroke-width="2" stroke-linecap="round" stroke-linejoin="round"/>
<path fill-rule="evenodd" clip-rule="evenodd" d="M17.5275 40.6373C17.5275 41.9568 16.421 43.7981 15.0584 43.7981C13.6958 43.7981 12.5894 41.9568 12.5894 40.6373C12.5894 39.3178 13.6958 38.2484 15.0584 38.2484C16.421 38.2484 17.5275 39.3178 17.5275 40.6373Z" fill="#FFBC00" stroke="#265A6E" stroke-width="2" stroke-linecap="round" stroke-linejoin="round"/>
<path d="M21.6846 48.543C21.8567 47.3466 20.9223 46.2771 19.7038 46.2771H17.5269C15.8542 47.9378 14.0334 47.9378 12.3587 46.2771H10.3118C9.09531 46.2771 8.15891 47.3466 8.33099 48.543" stroke="#265A6E" stroke-width="2" stroke-linecap="round" stroke-linejoin="round"/>
</svg>
