<svg width="34" height="34" viewBox="0 0 34 34" fill="none" xmlns="http://www.w3.org/2000/svg">
<mask id="mask0_6455_7949" style="mask-type:alpha" maskUnits="userSpaceOnUse" x="0" y="0" width="34" height="34">
<rect width="33.7783" height="33.7783" fill="#D9D9D9"/>
</mask>
<g mask="url(#mask0_6455_7949)">
<path d="M14.9183 23.3633L24.8407 13.441L22.8703 11.4706L14.9183 19.4225L10.9072 15.4114L8.93676 17.3818L14.9183 23.3633ZM16.8887 30.9634C14.9418 30.9634 13.1121 30.594 11.3998 29.8551C9.68739 29.1162 8.19786 28.1134 6.93118 26.8467C5.66449 25.58 4.6617 24.0905 3.9228 22.3781C3.1839 20.6658 2.81445 18.8361 2.81445 16.8892C2.81445 14.9422 3.1839 13.1126 3.9228 11.4002C4.6617 9.68782 5.66449 8.19829 6.93118 6.93161C8.19786 5.66492 9.68739 4.66213 11.3998 3.92323C13.1121 3.18433 14.9418 2.81488 16.8887 2.81488C18.8357 2.81488 20.6653 3.18433 22.3777 3.92323C24.0901 4.66213 25.5796 5.66492 26.8463 6.93161C28.113 8.19829 29.1158 9.68782 29.8547 11.4002C30.5936 13.1126 30.963 14.9422 30.963 16.8892C30.963 18.8361 30.5936 20.6658 29.8547 22.3781C29.1158 24.0905 28.113 25.58 26.8463 26.8467C25.5796 28.1134 24.0901 29.1162 22.3777 29.8551C20.6653 30.594 18.8357 30.9634 16.8887 30.9634Z" fill="#86C342"/>
</g>
</svg>
