<svg width="32" height="32" viewBox="0 0 32 32" fill="none" xmlns="http://www.w3.org/2000/svg">
<circle cx="16" cy="16" r="16" fill="#86C342"/>
<path d="M19.504 19.064V21H13.008V19.064H15.28V14.216C15.184 14.344 15.0347 14.4773 14.832 14.616C14.6293 14.744 14.4053 14.8667 14.16 14.984C13.9147 15.1013 13.6587 15.1973 13.392 15.272C13.1253 15.3467 12.8907 15.384 12.688 15.384V13.384C12.88 13.384 13.1147 13.3253 13.392 13.208C13.6693 13.08 13.9413 12.9307 14.208 12.76C14.4747 12.5893 14.7093 12.424 14.912 12.264C15.1147 12.0933 15.2373 11.96 15.28 11.864H17.472V19.064H19.504Z" fill="white"/>
</svg>
