<svg width="32" height="32" viewBox="0 0 32 32" fill="none" xmlns="http://www.w3.org/2000/svg">
<circle cx="16" cy="16" r="16" fill="#86C342"/>
<path d="M18.0959 17.2241C18.7679 17.3414 19.3065 17.6614 19.7119 18.1841C20.1279 18.6961 20.3359 19.3254 20.3359 20.0721C20.3359 20.5734 20.2345 21.0267 20.0319 21.4321C19.8399 21.8374 19.5625 22.1787 19.1999 22.4561C18.8372 22.7441 18.3999 22.9627 17.8879 23.1121C17.3759 23.2721 16.8052 23.3521 16.1759 23.3521C15.3545 23.3521 14.6292 23.2187 13.9999 22.9521C13.3812 22.6961 12.8692 22.3174 12.4639 21.8161L13.6799 20.2961C13.9572 20.6481 14.2825 20.9201 14.6559 21.1121C15.0399 21.3041 15.5199 21.4001 16.0959 21.4001C16.7465 21.4001 17.2425 21.2721 17.5839 21.0161C17.9359 20.7601 18.1119 20.3654 18.1119 19.8321C18.1119 19.2774 17.9145 18.8507 17.5199 18.5521C17.1252 18.2534 16.5279 18.1041 15.7279 18.1041H15.2799V16.5041H15.7759C16.4265 16.5041 16.9332 16.3601 17.2959 16.0721C17.6585 15.7734 17.8399 15.3947 17.8399 14.9361C17.8399 14.4987 17.6905 14.1734 17.3919 13.9601C17.1039 13.7467 16.7199 13.6401 16.2399 13.6401C15.7492 13.6401 15.3065 13.7521 14.9119 13.9761C14.5279 14.2001 14.2132 14.5147 13.9679 14.9201L12.6239 13.4161C12.7839 13.1707 12.9972 12.9521 13.2639 12.7601C13.5305 12.5574 13.8292 12.3867 14.1599 12.2481C14.5012 12.0987 14.8692 11.9867 15.2639 11.9121C15.6585 11.8267 16.0639 11.7841 16.4799 11.7841C17.0239 11.7841 17.5199 11.8534 17.9679 11.9921C18.4159 12.1307 18.7999 12.3227 19.1199 12.5681C19.4399 12.8134 19.6852 13.1121 19.8559 13.4641C20.0372 13.8054 20.1279 14.1894 20.1279 14.6161C20.1279 14.9361 20.0799 15.2401 19.9839 15.5281C19.8879 15.8161 19.7492 16.0774 19.5679 16.3121C19.3865 16.5467 19.1679 16.7441 18.9119 16.9041C18.6665 17.0641 18.3945 17.1707 18.0959 17.2241Z" fill="white"/>
</svg>
