<?xml version="1.0" encoding="UTF-8"?>
<svg width="30px" height="30px" viewBox="0 0 30 30" version="1.1" xmlns="http://www.w3.org/2000/svg" xmlns:xlink="http://www.w3.org/1999/xlink">
    <!-- Generator: Sketch 60 (88103) - https://sketch.com -->
    <title>noun_clock_2960535</title>
    <desc>Created with Sketch.</desc>
    <g id="Page-1" stroke="none" stroke-width="1" fill="none" fill-rule="evenodd">
        <g id="Flash" transform="translate(-135.000000, -590.000000)" fill="#075879" fill-rule="nonzero">
            <g id="Group-4" transform="translate(135.000000, 583.000000)">
                <g id="noun_clock_2960535" transform="translate(0.000000, 7.000000)">
                    <g id="Group">
                        <g id="Shape">
                            <g>
                                <path d="M15,30 C6.71572875,30 0,23.2842712 0,15 C0,6.71572875 6.71572875,0 15,0 C23.2842712,0 30,6.71572875 30,15 C30,23.2842712 23.2842712,30 15,30 Z M16.1538462,13.8461538 L16.1538462,6.92307692 C16.1538462,6.28582529 15.6372516,5.76923077 15,5.76923077 C14.3627484,5.76923077 13.8461538,6.28582529 13.8461538,6.92307692 L13.8461538,15 C13.8461538,15.6372516 14.3627484,16.1538462 15,16.1538462 L19.6153846,16.1538462 C20.2526362,16.1538462 20.7692308,15.6372516 20.7692308,15 C20.7692308,14.3627484 20.2526362,13.8461538 19.6153846,13.8461538 L16.1538462,13.8461538 Z"></path>
                            </g>
                        </g>
                    </g>
                </g>
            </g>
        </g>
    </g>
</svg>