<?xml version="1.0" encoding="UTF-8"?>
<svg width="35px" height="27px" viewBox="0 0 35 27" version="1.1" xmlns="http://www.w3.org/2000/svg" xmlns:xlink="http://www.w3.org/1999/xlink">
    <!-- Generator: Sketch 60 (88103) - https://sketch.com -->
    <title>Group 8</title>
    <desc>Created with Sketch.</desc>
    <g id="Page-1" stroke="none" stroke-width="1" fill="none" fill-rule="evenodd">
        <g id="Flash" transform="translate(-138.000000, -514.000000)">
            <g id="Group-8" transform="translate(138.000000, 514.000000)">
                <g id="email-24px-(1)" transform="translate(0.000000, 5.000000)" fill="#075879" fill-rule="nonzero">
                    <path d="M25.2,0 L2.8,0 C1.26,0 0.014,1.2375 0.014,2.75 L0,19.25 C0,20.7625 1.26,22 2.8,22 L25.2,22 C26.74,22 28,20.7625 28,19.25 L28,2.75 C28,1.2375 26.74,0 25.2,0 Z M25.2,5.5 L14,12.375 L2.8,5.5 L2.8,2.75 L14,9.625 L25.2,2.75 L25.2,5.5 Z" id="Shape"></path>
                </g>
                <g id="Group-6" transform="translate(19.000000, 0.000000)">
                    <path d="M7.5625,15 C3.3935,15 0,11.6359091 0,7.5 C0,3.36409091 3.3935,0 7.5625,0 C11.7315,0 15.125,3.36409091 15.125,7.5 C15.125,11.6359091 11.7315,15 7.5625,15 Z" id="Path" fill="#FFFFFF"></path>
                    <path d="M7.5625,15 C3.3935,15 2.66453526e-15,11.6359091 2.66453526e-15,7.5 C2.66453526e-15,3.36409091 3.3935,5.32907052e-15 7.5625,5.32907052e-15 C11.7315,5.32907052e-15 15.125,3.36409091 15.125,7.5 C15.125,11.6359091 11.7315,15 7.5625,15 Z M7.5625,1.36363636 C4.151125,1.36363636 1.375,4.11681818 1.375,7.5 C1.375,10.8831818 4.151125,13.6363636 7.5625,13.6363636 C10.973875,13.6363636 13.75,10.8831818 13.75,7.5 C13.75,4.11681818 10.973875,1.36363636 7.5625,1.36363636 Z" id="Shape" fill="#075879" fill-rule="nonzero"></path>
                    <path d="M6.1875,10.9090909 C6.0115,10.9090909 5.8355,10.8422727 5.70075,10.71 L2.95075,7.98272727 C2.682625,7.71681818 2.682625,7.28454545 2.95075,7.01863636 C3.218875,6.75272727 3.65475,6.75272727 3.922875,7.01863636 L6.1875,9.26318182 L10.51325,4.97318182 C10.781375,4.70727273 11.21725,4.70727273 11.485375,4.97318182 C11.7535,5.23909091 11.7535,5.67136364 11.485375,5.93727273 L6.672875,10.71 C6.5395,10.8422727 6.3635,10.9090909 6.1875,10.9090909 Z" id="Path" fill="#075879" fill-rule="nonzero"></path>
                </g>
            </g>
        </g>
    </g>
</svg>