<svg width="158" height="31" viewBox="0 0 158 31" fill="none" xmlns="http://www.w3.org/2000/svg">
<path fill-rule="evenodd" clip-rule="evenodd" d="M4.58526 1.00404C7.06575 1.00404 8.85582 1.23272 9.95188 1.69128C11.0479 2.14983 11.9131 2.89095 12.546 3.91702C13.179 4.94189 13.4961 6.1703 13.4961 7.60105C13.4961 9.18864 13.0809 10.5068 12.2517 11.5569C11.4237 12.6069 10.2989 13.3384 8.87856 13.7515C8.04455 13.9873 6.5261 14.1059 4.32321 14.1059V23.732H0V1.00404H4.58526ZM20.9806 1.00416L26.2455 16.8561L31.5594 1.00416H35.769L39.5789 23.7321H35.398L32.963 9.37793L28.1372 23.7321H24.3262L19.5435 9.37793L17.0498 23.7321H12.8343L16.7674 1.00416H20.9806ZM5.54371 5.22205H4.32321V9.88785H5.69687C6.77857 9.88785 7.53002 9.81123 7.95241 9.65558C8.3736 9.50113 8.70625 9.24491 8.94796 8.88932C9.18967 8.53133 9.31052 8.10031 9.31052 7.59386C9.31052 6.71626 8.97069 6.07452 8.29104 5.67103C7.79805 5.37291 6.88148 5.22205 5.54371 5.22205ZM44.7215 0.679696H46.8837V6.92111H50.3119V8.79126H46.8837V23.7321H44.7215V8.79126H41.7719V6.92111H44.7215V0.679696ZM52.7358 6.92159H54.9434V9.37841C55.6027 8.40981 56.2979 7.68665 57.0279 7.20774C57.759 6.72883 58.5212 6.48937 59.3145 6.48937C59.9104 6.48937 60.5494 6.67974 61.229 7.06048L60.1018 8.88393C59.6483 8.68878 59.2678 8.5906 58.9591 8.5906C58.2376 8.5906 57.5436 8.88633 56.8735 9.47898C56.2046 10.0704 55.6949 10.9899 55.3455 12.2363C55.0774 13.1953 54.9434 15.1313 54.9434 18.0467V23.7326H52.7358V6.92159ZM71.1652 8.57491C69.9627 8.57491 68.8511 8.87064 67.834 9.4621C66.8157 10.0548 66.0056 10.8857 65.4049 11.9548C64.8031 13.0252 64.5027 14.1566 64.5027 15.3503C64.5027 16.5332 64.8055 17.6647 65.4121 18.7458C66.0188 19.8257 66.8336 20.6662 67.8567 21.2685C68.8798 21.8707 69.977 22.1712 71.1497 22.1712C72.3319 22.1712 73.4531 21.8731 74.512 21.2769C75.571 20.6794 76.3859 19.8724 76.9566 18.8536C77.5274 17.8347 77.8134 16.6877 77.8134 15.4114C77.8134 13.467 77.1732 11.8423 75.8929 10.5349C74.6125 9.22863 73.0367 8.57491 71.1652 8.57491ZM79.8057 6.92147V23.7325H77.6734V20.8422C76.7676 21.9449 75.7517 22.7746 74.6245 23.3302C73.4973 23.8869 72.2637 24.1647 70.9259 24.1647C68.5483 24.1647 66.5177 23.3015 64.8342 21.5762C63.1506 19.8509 62.3094 17.7533 62.3094 15.2809C62.3094 12.86 63.159 10.7899 64.8581 9.06939C66.556 7.3489 68.5986 6.48925 70.9881 6.48925C72.3666 6.48925 73.6146 6.78259 74.7322 7.36925C75.8498 7.95712 76.8298 8.83712 77.6734 10.0117V6.92147H79.8057ZM84.3445 23.7325H86.5067V6.92147H84.3445V23.7325ZM85.4178 0C85.9096 0 86.3308 0.174803 86.679 0.524408C87.0272 0.875211 87.2007 1.29785 87.2007 1.79113C87.2007 2.27603 87.0272 2.69388 86.679 3.04348C86.3308 3.39309 85.9096 3.56909 85.4178 3.56909C84.9368 3.56909 84.5216 3.39309 84.1722 3.04348C83.824 2.69388 83.6493 2.27603 83.6493 1.79113C83.6493 1.29785 83.824 0.875211 84.1722 0.524408C84.5216 0.174803 84.9368 0 85.4178 0ZM90.9998 6.92159H93.162V9.93395C94.026 8.78097 94.9844 7.91893 96.0338 7.34663C97.0844 6.77433 98.2271 6.48937 99.462 6.48937C100.717 6.48937 101.832 6.80905 102.805 7.446C103.778 8.08535 104.496 8.94499 104.959 10.0273C105.422 11.1085 105.654 12.793 105.654 15.0799V23.7326H103.492V15.7132C103.492 13.7772 103.412 12.4842 103.252 11.8352C103 10.723 102.52 9.88606 101.811 9.32333C101.1 8.76301 100.173 8.48284 99.03 8.48284C97.7222 8.48284 96.5519 8.91506 95.5169 9.7795C94.4818 10.6451 93.7998 11.7167 93.4695 12.9942C93.2649 13.8287 93.162 15.3528 93.162 17.5678V23.7326H90.9998V6.92159ZM109.963 23.7325H112.125V6.92147H109.963V23.7325ZM111.035 0C111.527 0 111.948 0.174803 112.296 0.524408C112.645 0.875211 112.818 1.29785 112.818 1.79113C112.818 2.27603 112.645 2.69388 112.296 3.04348C111.948 3.39309 111.527 3.56909 111.035 3.56909C110.554 3.56909 110.138 3.39309 109.79 3.04348C109.441 2.69388 109.268 2.27603 109.268 1.79113C109.268 1.29785 109.441 0.875211 109.79 0.524408C110.138 0.174803 110.554 0 111.035 0ZM116.617 6.92159H118.78V9.93395C119.643 8.78097 120.601 7.91893 121.651 7.34663C122.702 6.77433 123.845 6.48937 125.079 6.48937C126.335 6.48937 127.45 6.80905 128.423 7.446C129.396 8.08535 130.113 8.94499 130.577 10.0273C131.04 11.1085 131.272 12.793 131.272 15.0799V23.7326H129.11V15.7132C129.11 13.7772 129.029 12.4842 128.869 11.8352C128.618 10.723 128.138 9.88606 127.427 9.32333C126.716 8.76301 125.79 8.48284 124.648 8.48284C123.34 8.48284 122.169 8.91506 121.133 9.7795C120.099 10.6451 119.417 11.7167 119.087 12.9942C118.882 13.8287 118.78 15.3528 118.78 17.5678V23.7326H116.617V6.92159ZM144.011 8.57491C142.786 8.57491 141.648 8.87064 140.597 9.4633C139.549 10.056 138.725 10.8737 138.128 11.9201C137.531 12.9653 137.233 14.0956 137.233 15.3108C137.233 17.1558 137.85 18.6788 139.085 19.8844C140.321 21.0901 141.921 21.6935 143.887 21.6935C145.874 21.6935 147.473 21.0949 148.681 19.9C149.891 18.7051 150.497 17.1343 150.497 15.1875C150.497 13.9208 150.218 12.7905 149.663 11.7956C149.107 10.8031 148.32 10.0176 147.299 9.44055C146.28 8.86346 145.184 8.57491 144.011 8.57491ZM150.388 6.92147H152.55V20.3178C152.55 22.6765 152.344 24.4018 151.932 25.4937C151.365 27.0394 150.383 28.2283 148.983 29.0616C147.583 29.8973 145.899 30.3139 143.935 30.3139C142.492 30.3139 141.197 30.1092 140.049 29.7021C138.902 29.2938 137.967 28.7467 137.248 28.0594C136.527 27.3722 135.863 26.3665 135.256 25.0459H137.604C138.241 26.1582 139.066 26.9819 140.076 27.5171C141.087 28.0535 142.34 28.3204 143.834 28.3204C145.307 28.3204 146.551 28.0463 147.567 27.4979C148.582 26.9484 149.306 26.2575 149.739 25.4254C150.171 24.5945 150.388 23.2524 150.388 21.399V20.5345C149.574 21.5642 148.58 22.3544 147.405 22.9052C146.23 23.4559 144.983 23.7325 143.664 23.7325C142.118 23.7325 140.666 23.3481 139.305 22.5807C137.946 21.8132 136.894 20.7812 136.152 19.4833C135.411 18.1855 135.039 16.7583 135.039 15.2031C135.039 13.6478 135.426 12.1979 136.199 10.8533C136.972 9.50999 138.04 8.44681 139.406 7.66259C140.771 6.88076 142.212 6.48925 143.726 6.48925C144.983 6.48925 146.155 6.74906 147.242 7.26988C148.33 7.7895 149.378 8.64675 150.388 9.84164V6.92147ZM157.165 3.75359L157.055 1.99239C157.044 1.76132 157.044 1.47517 157.035 1.15549H157C156.925 1.42009 156.836 1.77209 156.748 2.04747L156.209 3.70929H155.593L155.053 2.00317C154.998 1.77209 154.911 1.42009 154.845 1.15549H154.812C154.812 1.43087 154.801 1.71702 154.79 1.99239L154.68 3.75359H154.107L154.328 0.760392H155.218L155.737 2.22347C155.801 2.45574 155.857 2.67484 155.934 2.98254H155.945C156.023 2.70717 156.088 2.45574 156.153 2.23424L156.671 0.760392H157.53L157.76 3.75359H157.165ZM153.932 0.760392V1.25487H152.975V3.75359H152.38V1.25487H151.423V0.760392H153.932Z" fill="#1384B2"/>
</svg>
