<?xml version="1.0" encoding="UTF-8"?>
<svg width="58px" height="50px" viewBox="0 0 58 50" version="1.1" xmlns="http://www.w3.org/2000/svg" xmlns:xlink="http://www.w3.org/1999/xlink">
    <!-- Generator: Sketch 55 (78076) - https://sketchapp.com -->
    <title>Group 7</title>
    <desc>Created with Sketch.</desc>
    <g id="Page-1" stroke="none" stroke-width="1" fill="none" fill-rule="evenodd">
        <g id="live-courses" transform="translate(-317.000000, -914.000000)">
            <g id="Group-9" transform="translate(317.000000, 914.000000)">
                <g id="Group-7">
                    <g id="Group-3" fill="#128BBA">
                        <path d="M31.1194228,36.0484559 C31.775043,34.1425735 32.3638532,31.3638971 33.6317772,28.9411029 C38.1109924,20.3822794 42.9829924,12.0278676 47.3660304,3.42198529 C49.059043,0.0984558824 51.0303089,1.21316176 53.3268152,2.00360294 C56.3053722,3.02933824 55.0425873,4.93227941 54.378157,6.75286765 C52.6594481,11.4624265 51.0839038,16.2293382 49.2073468,20.8734559 C48.2676,23.19625 48.3601063,24.3815441 50.8665873,25.7161029 C56.0036253,28.4491912 58.3933722,34.5594853 56.9514481,39.7874265 C55.2437519,45.9734559 50.2440051,49.9727206 44.2009924,49.9830147 C38.3848405,49.9933088 33.3975747,46.3800735 31.8425873,40.9168382 C31.4813722,39.6455147 31.4395241,38.2815441 31.1194228,36.0484559 Z M17.8128278,0.555808824 C25.1538658,3.19036765 24.2868025,2.60139706 22.2186253,8.80139706 C20.8640684,12.8602206 19.4691316,16.9094853 17.9354354,20.9021324 C17.0478152,23.2116912 17.3414861,24.4763971 19.7473848,25.8249265 C24.9159924,28.7227206 26.5399924,33.5815441 25.7103722,39.3036029 C25.0033595,44.1778676 20.9587772,48.4874265 15.9568278,49.6013971 C10.5833848,50.7977206 5.91695443,49.3234559 2.62343544,44.9036029 C-1.06947595,39.9506618 -0.523248101,34.5175735 2.15649873,29.3315441 C5.91768861,22.0528676 9.93584051,14.9072794 13.8534101,7.70948529 C15.133081,5.36022059 16.4435873,3.02786765 17.8128278,0.555808824 Z" id="Combined-Shape"></path>
                    </g>
                    <g id="Group-6"></g>
                </g>
            </g>
        </g>
    </g>
</svg>