<svg width="43" height="16" viewBox="0 0 43 16" fill="none" xmlns="http://www.w3.org/2000/svg">
<g clip-path="url(#clip0_6485_2219)">
<path fill-rule="evenodd" clip-rule="evenodd" d="M3.51167 9.01567C2.35476 9.01567 1.01357 9.53303 0.286667 10.0696L0.952143 11.3726C1.53571 10.8744 2.47762 10.4528 3.32738 10.4528C4.13619 10.4528 4.57643 10.7019 4.57643 11.2097C4.57643 11.5546 4.27952 11.727 3.72667 11.7941C1.6381 12.0432 0 12.5797 0 14.0839C0 15.272 0.911191 16.0001 2.32405 16.0001C3.33762 16.0001 4.23857 15.4732 4.66857 14.7833V15.8085H6.55238V11.5067C6.55238 9.73423 5.23167 9.01567 3.51167 9.01567ZM2.80524 14.6205C2.27286 14.6205 2.00667 14.3809 2.00667 13.9785C2.00667 13.2312 2.89738 12.9821 4.52524 12.8193C4.53548 13.8157 3.80857 14.6205 2.80524 14.6205ZM24.3155 10.3187V9.20728H22.4317V15.8085H24.4486V12.6276C24.4486 11.1139 25.4212 10.6732 26.1071 10.6732C26.3733 10.6732 26.7317 10.7498 26.9671 10.9127L27.3357 9.16896C27.0286 9.04441 26.701 9.01567 26.4348 9.01567C25.4007 9.01567 24.7455 9.44681 24.3155 10.3187ZM36.6933 9.01567C35.6286 9.01567 34.83 9.60968 34.4102 10.1749C34.0212 9.43722 33.2124 9.01567 32.2295 9.01567C31.1648 9.01567 30.4276 9.57136 30.0795 10.2037V9.20728H28.1343V15.8085H30.1512V12.4073C30.1512 11.1905 30.8371 10.6061 31.4719 10.6061C32.0452 10.6061 32.5776 10.951 32.5776 11.8516V15.8085H34.6048V12.4073C34.6048 11.1714 35.2702 10.6061 35.9357 10.6061C36.4681 10.6061 37.0312 10.9702 37.0312 11.842V15.8085H39.0481V11.248C39.0481 9.76297 37.9833 9.01567 36.6933 9.01567ZM13.6781 8.71866V9.20728H10.6169V8.53663C10.6169 7.66477 11.1493 7.41567 11.61 7.41567C11.8762 7.41567 12.2243 7.47315 12.511 7.62645L13.1355 6.29471C12.7669 6.09351 12.1629 5.91148 11.354 5.91148C10.064 5.91148 8.6 6.59172 8.6 8.72824V9.21687H7.43286V10.6732H8.6V15.8085H10.6169V10.6636H13.6781V15.8085H15.695V10.6636H17.5276V9.20728H15.695V8.53663C15.695 7.66477 16.2274 7.41567 16.6881 7.41567C17.2 7.41567 17.589 7.62645 17.589 7.62645L18.2136 6.29471C18.2136 6.29471 17.5788 5.91148 16.4321 5.91148C15.1524 5.9019 13.6781 6.58214 13.6781 8.71866ZM18.7255 9.20728H20.7424V15.8085H18.7255V9.20728Z" fill="#060809"/>
<path fill-rule="evenodd" clip-rule="evenodd" d="M30.4781 0C25.0314 0 20.1785 3.53533 18.8066 8.08623H20.7826C21.9293 4.69461 25.83 1.72455 30.4781 1.72455C36.1295 1.72455 41.0028 5.7485 41.0028 12.0144C41.0028 13.4228 40.8083 14.6874 40.4397 15.8084H42.3543L42.3747 15.7509C42.6921 14.5916 42.8457 13.3365 42.8457 12.0144C42.8457 5.02994 37.4093 0 30.4781 0Z" fill="#0FA0EA"/>
</g>
<defs>
<clipPath id="clip0_6485_2219">
<rect width="43" height="16" fill="white"/>
</clipPath>
</defs>
</svg>
