<?xml version="1.0" encoding="UTF-8"?>
<svg width="144px" height="144px" viewBox="0 0 144 144" version="1.1" xmlns="http://www.w3.org/2000/svg" xmlns:xlink="http://www.w3.org/1999/xlink">
    <title>icon-demand</title>
    <g id="NEw" stroke="none" stroke-width="1" fill="none" fill-rule="evenodd">
        <g id="icon-demand">
            <polygon id="Path" points="0 0 144 0 144 144 0 144"></polygon>
            <path d="M126,18 L18,18 C11.34,18 6,23.34 6,30 L6,102 C6,108.6 11.34,114 18,114 L48,114 L48,126 L96,126 L96,114 L126,114 C132.6,114 137.94,108.6 137.94,102 L138,30 C138,23.34 132.6,18 126,18 Z M126,102 L18,102 L18,30 L126,30 L126,102 Z M96,66 L54,90 L54,42 L96,66 Z" id="Shape" fill="#BBBBBB" fill-rule="nonzero"></path>
        </g>
    </g>
</svg>