<svg width="74" height="64" viewBox="0 0 74 64" fill="none" xmlns="http://www.w3.org/2000/svg">
<ellipse cx="36.8311" cy="32.3784" rx="19.7256" ry="19.6416" fill="#00B6FF" fill-opacity="0.171465"/>
<path d="M55.8894 55.8273H18.1118" stroke="#265A6E" stroke-width="2" stroke-linecap="round" stroke-linejoin="round"/>
<path d="M16 49.1493V46.7683C16 37.0483 21.8314 31.3383 29.0229 31.3383C32.5742 31.3383 32.612 29.0997 32.612 29.0997V27.1258C31.3608 25.7907 30.3763 23.9259 29.7918 21.7451C28.394 20.7171 28.0451 18.5986 29.2029 17.1099V12.6861C29.2029 8.12205 31.7786 5 37.1922 5C42.7481 5 45.1771 8.12205 45.1771 12.6861V17.1077C46.3372 18.5986 45.9905 20.7171 44.5882 21.7474C44.0059 23.9259 43.0214 25.7907 41.7725 27.1258V29.0997C41.7725 29.0997 41.3725 31.3383 44.9793 31.3383C52.1708 31.3383 58 37.0483 58 46.7683V49.1493" stroke="#265A6E" stroke-width="2" stroke-linecap="round" stroke-linejoin="round"/>
<path fill-rule="evenodd" clip-rule="evenodd" d="M50.2975 55.8275H23.5361L22.6294 39.3605C22.5894 38.6351 23.165 38.0276 23.8873 38.0276H50.0997C50.8287 38.0276 51.4043 38.644 51.3576 39.3694L50.2975 55.8275Z" stroke="#265A6E" stroke-width="2" stroke-linecap="round" stroke-linejoin="round"/>
<path fill-rule="evenodd" clip-rule="evenodd" d="M40.3113 46.1635C40.3113 47.9951 38.8291 49.4793 36.9999 49.4793C35.1707 49.4793 33.6885 47.9951 33.6885 46.1635C33.6885 44.3319 35.1707 42.8477 36.9999 42.8477C38.8291 42.8477 40.3113 44.3319 40.3113 46.1635Z" fill="#FFBC00" stroke="#265A6E" stroke-width="2" stroke-linecap="round" stroke-linejoin="round"/>
</svg>
