<?xml version="1.0" encoding="UTF-8"?>
<svg width="37px" height="32px" viewBox="0 0 37 32" version="1.1" xmlns="http://www.w3.org/2000/svg" xmlns:xlink="http://www.w3.org/1999/xlink">
    <title>Group 3</title>
    <g id="Home" stroke="none" stroke-width="1" fill="none" fill-rule="evenodd">
        <g transform="translate(-685.000000, -1371.000000)" fill="#128BBA" id="Group-3">
            <g transform="translate(685.000000, 1371.000000)">
                <path d="M11.400128,1.45661261e-13 C16.0983923,1.68611765 15.5434718,1.30917647 14.2198384,5.27717647 C13.3529219,7.87482353 12.4601624,10.4663529 11.4785969,13.0216471 C10.9105199,14.4997647 11.0984693,15.3091765 12.6382445,16.1722353 C15.9461533,18.0268235 16.9855133,21.1364706 16.4545564,24.7985882 C16.0020683,27.9181176 13.4135356,30.6762353 10.212288,31.3891765 C6.77328447,32.1548235 3.78676903,31.2112941 1.67891688,28.3825882 C-0.684546416,25.2127059 -0.334960593,21.7355294 1.38007738,18.4164706 C3.7872389,13.7581176 6.35885612,9.18494118 8.86610067,4.57835294 C9.68509004,3.07482353 10.5238141,1.58211765 11.400128,1.45661261e-13 Z M34.1290799,0.926588235 C36.0353564,1.58305882 35.2271741,2.80094118 34.8019386,3.96611765 C33.701965,6.98023529 32.6936166,10.0310588 31.4926202,13.0032941 C30.8911822,14.4898824 30.9503862,15.2484706 32.5545341,16.1025882 C35.8422384,17.8517647 37.3716764,21.7623529 36.448845,25.1082353 C35.3559194,29.0672941 32.1560814,31.6268235 28.2885533,31.6334258 C24.5662161,31.64 21.374366,29.3275294 20.3791741,25.8310588 C20.1479964,25.0174118 20.1212136,24.1444706 19.9163488,22.7152941 C20.3359457,21.4955294 20.7127842,19.7171765 21.5242556,18.1665882 C22.3433121,16.6015462 23.1828896,15.0471837 24.0298262,13.4966956 L26.5795511,8.85004973 C27.8522902,6.52573349 29.1119729,4.19482353 30.3141776,1.83435294 C31.3977057,-0.292705882 32.6593159,0.420705882 34.1290799,0.926588235 Z" id="Combined-Shape"></path>
            </g>
        </g>
    </g>
</svg>