<?xml version="1.0" encoding="UTF-8"?>
<svg width="78px" height="78px" viewBox="0 0 78 78" version="1.1" xmlns="http://www.w3.org/2000/svg" xmlns:xlink="http://www.w3.org/1999/xlink">
    <title>Group 627</title>
    <g id="Landing-page" stroke="none" stroke-width="1" fill="none" fill-rule="evenodd" stroke-linecap="round" stroke-linejoin="round">
        <g id="Landing" transform="translate(-668.000000, -2114.000000)" stroke="#000000" stroke-width="4">
            <g id="Group-627" transform="translate(670.000000, 2116.000000)">
                <line x1="25.7242048" y1="28.9535112" x2="44.8963062" y2="28.9535112" id="Stroke-2912"></line>
                <line x1="28.9415401" y1="45.0590488" x2="25.592294" y2="45.0590488" id="Stroke-2913"></line>
                <line x1="25.7242048" y1="61.1616879" x2="28.8096294" y2="61.1616879" id="Stroke-2914"></line>
                <polyline id="Stroke-2915" points="35.3102555 74 0 74 0 9.58300258 9.39461922 9.58300258"></polyline>
                <polyline id="Stroke-2916" points="44.9152884 9.58300258 54.6959879 9.58300258 54.6959879 28.8868463"></polyline>
                <polyline id="Stroke-2917" points="9.60310255 28.915509 12.3378376 32.0329799 19.3998887 23.1829695"></polyline>
                <polyline id="Stroke-2918" points="9.60310255 45.0181481 12.3378376 48.1388396 19.3998887 39.2888291"></polyline>
                <path d="M31.9671223,6.44105564 L31.9671223,4.83079173 C31.9671223,2.16097417 29.8082903,0 27.1411193,0 C24.4771656,0 22.3151163,2.16097417 22.3151163,4.83079173 L22.3151163,6.44105564 L19.0977809,6.44105564 C17.3218118,6.44105564 15.8804456,7.88063157 15.8804456,9.66158346 C15.8804456,11.4393148 17.3218118,12.8821113 19.0977809,12.8821113 L35.1844577,12.8821113 C36.9636441,12.8821113 38.401793,11.4393148 38.401793,9.66158346 C38.401793,7.88063157 36.9636441,6.44105564 35.1844577,6.44105564 L31.9671223,6.44105564 Z" id="Stroke-2920"></path>
                <polygon id="Stroke-2921" points="9.44738352 64.4099123 15.8820542 64.4099123 15.8820542 57.9688566 9.44738352 57.9688566"></polygon>
                <g id="Group-678" transform="translate(35.391976, 35.353666)">
                    <path d="M0,19.3231669 C0,8.65355825 8.64498009,0 19.3040121,0 C29.9630441,0 38.6080242,8.65355825 38.6080242,19.3231669 C38.6080242,29.9959961 29.9630441,38.6463338 19.3040121,38.6463338 C8.64498009,38.6463338 0,29.9959961 0,19.3231669 Z" id="Stroke-2922" fill="#CCEAF7"></path>
                    <polyline id="Stroke-2923" points="19.3040121 6.44105564 19.3040121 19.3231669 25.7386828 19.3231669"></polyline>
                </g>
            </g>
        </g>
    </g>
</svg>