<?xml version="1.0" encoding="UTF-8"?>
<svg width="56px" height="58px" viewBox="0 0 56 58" version="1.1" xmlns="http://www.w3.org/2000/svg" xmlns:xlink="http://www.w3.org/1999/xlink">
    <title>Group 529</title>
    <g id="Landing-page" stroke="none" stroke-width="1" fill="none" fill-rule="evenodd" stroke-linecap="round" stroke-linejoin="round">
        <g id="Landing" transform="translate(-993.000000, -2134.000000)" stroke="#000000" stroke-width="4">
            <g id="Group-529" transform="translate(995.000000, 2137.000000)">
                <line x1="47.5305414" y1="28.991009" x2="42.5797356" y2="28.991009" id="Stroke-3114"></line>
                <line x1="44.8174196" y1="37.0935674" x2="41.25765" y2="37.0935674" id="Stroke-3115"></line>
                <path d="M15.080916,47.8093111 C29.4803445,52.7245691 41.2580509,52.4198713 41.2580509,52.4198713 C47.836409,52.4198713 46.4373554,45.1953239 41.6869871,45.1953239 L39.7868398,45.1953239" id="Stroke-3116"></path>
                <path d="M15.080916,23.339264 C15.080916,23.339264 25.9766974,15.3489628 25.0025712,4.18739796 C24.2649613,-4.27999604 39.9832685,-0.483299963 31.2321681,20.8896534 L47.948654,20.8896534 C53.3604659,20.8896534 53.3404222,28.9922117 47.948654,28.9922117 L47.531744,28.9922117 C52.9836434,28.9922117 52.8393285,37.0947701 47.531744,37.0947701 L44.8178205,37.0947701 C50.2256237,37.0947701 50.2095887,45.1973285 44.8178205,45.1973285 L41.6869871,45.1973285" id="Stroke-3117"></path>
                <polygon id="Stroke-3118" fill="#CCEAF7" points="0 53 15.080916 53 15.080916 20.8383358 0 20.8383358"></polygon>
            </g>
        </g>
    </g>
</svg>