<svg width="168" height="27" viewBox="0 0 168 27" fill="none" xmlns="http://www.w3.org/2000/svg">
<rect x="0.272545" y="0.272545" width="37.6112" height="25.6193" rx="2.998" fill="white" stroke="#D9D9D9" stroke-width="0.545091"/>
<path fill-rule="evenodd" clip-rule="evenodd" d="M11.5834 17.7244H9.27187L7.5385 11.1115C7.45623 10.8073 7.28154 10.5384 7.02457 10.4117C6.3833 10.0931 5.67665 9.83965 4.90576 9.7118V9.45721H8.62946C9.14339 9.45721 9.52883 9.83965 9.59307 10.2838L10.4924 15.0539L12.8028 9.45721H15.0501L11.5834 17.7244ZM16.335 17.7244H14.1519L15.9495 9.45721H18.1326L16.335 17.7244ZM20.9569 11.7475C21.0211 11.3022 21.4066 11.0476 21.8563 11.0476C22.5629 10.9837 23.3327 11.1115 23.9751 11.429L24.3605 9.64899C23.7181 9.39439 23.0115 9.26654 22.3702 9.26654C20.2514 9.26654 18.7096 10.4117 18.7096 12.001C18.7096 13.21 19.8017 13.8449 20.5726 14.2273C21.4066 14.6087 21.7278 14.8633 21.6635 15.2446C21.6635 15.8166 21.0211 16.0712 20.3799 16.0712C19.609 16.0712 18.8381 15.8805 18.1326 15.562L17.7471 17.3431C18.518 17.6605 19.352 17.7884 20.1229 17.7884C22.4987 17.8512 23.9751 16.7072 23.9751 14.99C23.9751 12.8276 20.9569 12.7008 20.9569 11.7475ZM31.6152 17.7244L29.8818 9.45721H28.02C27.6345 9.45721 27.2491 9.7118 27.1206 10.0931L23.9108 17.7244H26.1581L26.6067 16.5165H29.3679L29.6249 17.7244H31.6152ZM28.3412 11.6836L28.9825 14.7993H27.1849L28.3412 11.6836Z" fill="#172B85"/>
<rect x="129.635" y="0.272545" width="37.6112" height="25.6193" rx="2.998" fill="#1F72CD" stroke="#D9D9D9" stroke-width="0.545091"/>
<path fill-rule="evenodd" clip-rule="evenodd" d="M136.203 9.26654L132.633 17.1668H136.907L137.436 15.9072H138.647L139.177 17.1668H143.882V16.2054L144.301 17.1668H146.734L147.153 16.1851V17.1668H156.937L158.126 15.9399L159.24 17.1668L164.265 17.177L160.684 13.2387L164.265 9.26654H159.318L158.16 10.4708L157.081 9.26654H146.438L145.524 11.3057L144.589 9.26654H140.324V10.1952L139.85 9.26654H136.203ZM150.812 10.3884H156.431L158.149 12.2445L159.923 10.3884H161.641L159.03 13.2376L161.641 16.054H159.845L158.126 14.1763L156.344 16.054H150.812V10.3884ZM152.2 12.597V11.5621V11.5612H155.705L157.235 13.2162L155.638 14.8802H152.2V13.7505H155.265V12.597H152.2ZM137.03 10.3884H139.113L141.481 15.7456V10.3884H143.763L145.592 14.2295L147.278 10.3884H149.548V16.0574H148.167L148.155 11.6152L146.141 16.0574H144.905L142.879 11.6152V16.0574H140.037L139.498 14.7864H136.587L136.049 16.0562H134.526L137.03 10.3884ZM137.084 13.6116L138.043 11.3475L139.001 13.6116H137.084Z" fill="white"/>
<rect x="87.1182" y="0.272545" width="37.6112" height="25.6193" rx="2.998" fill="white" stroke="#D9D9D9" stroke-width="0.545091"/>
<path d="M111.022 5.45093C115.13 5.45093 118.461 8.82015 118.461 12.9763C118.461 17.1325 115.13 20.5017 111.022 20.5017C109.18 20.5017 107.496 19.8227 106.197 18.7009C104.897 19.8227 103.213 20.5016 101.371 20.5017C97.2628 20.5017 93.9319 17.1325 93.9319 12.9763C93.9319 8.82015 97.2628 5.45093 101.371 5.45093C103.213 5.451 104.897 6.12922 106.197 7.25073C107.496 6.12925 109.18 5.45095 111.022 5.45093Z" fill="#ED0006"/>
<path d="M111.022 5.45093C115.13 5.45093 118.461 8.82015 118.461 12.9763C118.461 17.1325 115.13 20.5017 111.022 20.5017C109.18 20.5017 107.496 19.8227 106.197 18.7009C107.795 17.3206 108.81 15.2691 108.81 12.9763C108.81 10.6833 107.795 8.63102 106.197 7.25073C107.496 6.12924 109.18 5.45098 111.022 5.45093Z" fill="#F9A000"/>
<path d="M106.196 7.25067C107.795 8.63094 108.81 10.6831 108.81 12.9763C108.81 15.2691 107.795 17.3206 106.196 18.7009C104.598 17.3206 103.583 15.2689 103.583 12.9763C103.583 10.6834 104.597 8.63094 106.196 7.25067Z" fill="#FF5E00"/>
<rect x="44.5772" y="0.272606" width="37.6112" height="25.6193" rx="2.998" fill="white" stroke="#D9D9D9" stroke-width="0.545091"/>
<path d="M60.3677 25.6194L81.8988 19.3508V22.8939C81.8988 24.3991 80.6785 25.6194 79.1733 25.6194H60.3677Z" fill="#FD6020"/>
<path d="M60.5771 10.4779C60.9916 10.4779 61.465 10.5367 61.8203 10.7709V11.9418C61.5242 11.5906 61.0508 11.3559 60.5771 11.3558C59.6295 11.4144 58.8597 12.2351 58.9189 13.1722V13.2894C58.9191 14.2263 59.6884 14.9289 60.6357 14.9291C61.1095 14.9291 61.5242 14.6945 61.8203 14.3431V15.515C61.4059 15.6906 60.9912 15.808 60.5176 15.808C59.0371 15.8079 57.8527 14.5778 57.8525 13.1136C57.8525 11.5908 59.0372 10.3608 60.5771 10.4779ZM69.876 13.9916L71.2969 10.4779H72.3633L70.1719 15.808H69.6387L67.4473 10.4779H68.5137L69.876 13.9916ZM55.8389 10.3607C56.3719 10.3607 56.9048 10.5952 57.3193 10.9467L56.7861 11.6488C56.5493 11.4147 56.253 11.2386 55.957 11.2386C55.6018 11.1803 55.3054 11.4733 55.2461 11.8246C55.2461 12.1174 55.4243 12.2348 56.0166 12.4691C57.2008 12.9376 57.4973 13.289 57.5566 13.9916V14.1674C57.4974 15.1045 56.7269 15.808 55.7793 15.7494C55.0687 15.7493 54.3582 15.3975 54.0029 14.7533L54.6543 14.1088C54.832 14.5188 55.2469 14.8119 55.7207 14.8119H55.7793C56.1347 14.8119 56.4902 14.4602 56.4902 14.0502C56.4901 13.8162 56.3717 13.6409 56.1943 13.5238C55.9574 13.4067 55.7203 13.2894 55.4834 13.2308C54.5358 12.938 54.2393 12.5275 54.2393 11.8246V11.766C54.2986 10.9461 55.0098 10.3022 55.8389 10.3607ZM49.6787 10.4779C51.1002 10.5365 52.2262 11.7079 52.167 13.1136C52.1669 13.875 51.811 14.5778 51.2188 15.1049C50.6857 15.5148 50.0342 15.7494 49.3828 15.6908H47.9023V10.4779H49.6787ZM53.5879 15.6908H52.5811V10.4779H53.5879V15.6908ZM75.6797 11.3558H73.8438V12.5277H75.6211V13.4066H73.8438V14.8119H75.6797V15.6908H72.8369V10.4779H75.6797V11.3558ZM77.8115 10.4779C78.9959 10.4779 79.6473 11.0049 79.6475 12.0004C79.7066 12.7617 79.1735 13.4067 78.4629 13.5238L80.0625 15.6908H78.8184L77.4561 13.5824H77.3379V15.6908H76.3311V10.4779H77.8115ZM49.2051 11.3568H48.9092V14.8119H49.2051C49.6787 14.8704 50.212 14.6953 50.5674 14.4027C50.9227 14.0513 51.1005 13.5821 51.1006 13.0551C51.1006 12.5866 50.9226 12.1184 50.5674 11.767C50.212 11.4741 49.6789 11.2982 49.2051 11.3568ZM77.3379 12.8793H77.6338C78.2852 12.8793 78.5819 12.586 78.582 12.059C78.5819 11.5906 78.2851 11.2982 77.6338 11.2982H77.3379V12.8793Z" fill="black"/>
<path fill-rule="evenodd" clip-rule="evenodd" d="M64.8414 10.3568C63.3607 10.3568 62.1169 11.5283 62.1169 13.0511C62.1169 14.5154 63.3015 15.7454 64.8414 15.804C66.3813 15.8626 67.5658 14.6326 67.6251 13.1097C67.5658 11.5868 66.3813 10.3568 64.8414 10.3568V10.3568Z" fill="#FD6020"/>
</svg>
