<?xml version="1.0" encoding="UTF-8"?>
<svg width="96px" height="75px" viewBox="0 0 96 75" version="1.1" xmlns="http://www.w3.org/2000/svg" xmlns:xlink="http://www.w3.org/1999/xlink">
    <title>Group 608</title>
    <g id="Landing-page" stroke="none" stroke-width="1" fill="none" fill-rule="evenodd">
        <g id="Landing" transform="translate(-341.000000, -2126.000000)">
            <g id="Group-608" transform="translate(343.000000, 2128.000000)">
                <path d="M71.2832,65.8308643 L65.4912,58.1788132 L70.6952,57.1497304 C71.4792,56.9935661 71.7592,56.0045255 71.1592,55.4559483 L50.1032,36.5280332 C49.4192,35.9073802 48.3272,36.5080121 48.4872,37.4249769 L53.2952,65.0140049 C53.4272,65.7908222 54.3912,66.0911382 54.9512,65.5385568 L59.1152,61.3621626 L64.3152,70.5077852 C64.6072,71.012316 65.2512,71.1444551 65.7112,70.8321264 L71.0472,67.2363431 C71.5192,66.9200103 71.6192,66.275332 71.2832,65.8308643 Z" id="Stroke-241" stroke="#000000" stroke-width="4" stroke-linecap="round" stroke-linejoin="round"></path>
                <path d="M43.256,44.0463436 L11.34,44.0463436 C5.076,44.0463436 0,38.9649973 0,32.6943996 L0,11.351944 C0,5.08535058 5.076,9.1045264e-13 11.34,9.1045264e-13 L80.664,9.1045264e-13 C86.924,9.1045264e-13 92,5.08535058 92,11.351944 L92,32.6943996 C92,38.9649973 86.924,44.0463436 80.664,44.0463436 L66.472,44.0463436" id="Stroke-245" stroke="#000000" stroke-width="4" fill="#CCEAF7" stroke-linecap="round" stroke-linejoin="round"></path>
                <path d="M13.5195813,27 L13.5195813,22.662 L14.9955813,22.662 L17.2815813,27 L20.7915813,27 L18.2895813,22.5 C17.9835813,21.96 17.8035813,21.726 17.8035813,21.726 L17.8035813,21.69 C19.0815813,21.042 19.7295813,19.548 19.7295813,18.18 C19.7295813,16.308 18.8115813,14.994 17.3535813,14.436 C16.7955813,14.22 16.1655813,14.13 14.8515813,14.13 L10.3695813,14.13 L10.3695813,27 L13.5195813,27 Z M14.8875813,19.962 L13.5195813,19.962 L13.5195813,16.83 L14.5815813,16.83 C16.1655813,16.83 16.5255813,17.406 16.5255813,18.378 C16.5255813,19.404 15.8955813,19.962 14.8875813,19.962 Z M27.096186,27.216 C29.562186,27.216 31.056186,25.866 31.056186,25.866 L29.904186,23.688 C29.904186,23.688 28.680186,24.624 27.348186,24.624 C26.358186,24.624 25.422186,24.102 25.188186,22.968 L31.038186,22.968 C31.038186,22.968 31.110186,22.302 31.110186,21.996 C31.110186,19.422 29.562186,17.514 26.826186,17.514 C23.838186,17.514 22.002186,19.638 22.002186,22.356 C22.002186,24.822 23.784186,27.216 27.096186,27.216 Z M27.978186,21.186 L25.260186,21.186 C25.422186,20.502 25.854186,19.854 26.754186,19.854 C27.492186,19.854 27.978186,20.484 27.978186,21.186 Z M37.0007906,30.78 C39.5387906,30.78 42.2387906,29.538 42.2387906,26.154 L42.2387906,17.73 L39.3227906,17.73 L39.3227906,18.198 C39.3227906,18.306 39.3407906,18.414 39.3407906,18.414 L39.2867906,18.414 C39.2867906,18.414 38.4587906,17.514 36.7667906,17.514 C33.9587906,17.514 32.6087906,19.71 32.6087906,22.068 C32.6087906,24.444 33.9947906,26.73 36.7847906,26.73 C37.8647906,26.73 38.5667906,26.406 39.1067906,25.758 L39.1427906,25.758 C39.1427906,25.758 39.1247906,25.992 39.1247906,26.1 L39.1247906,26.406 C39.1247906,27.774 38.0987906,28.188 36.9827906,28.188 C35.5247906,28.188 34.3727906,27.594 34.3727906,27.594 L33.4907906,29.952 C34.3907906,30.42 35.7587906,30.78 37.0007906,30.78 Z M37.5227906,24.138 C36.2807906,24.138 35.7407906,23.112 35.7407906,21.96 C35.7407906,20.898 36.2987906,20.106 37.3967906,20.106 C38.3327906,20.106 39.1967906,20.466 39.1967906,22.104 C39.1967906,23.724 38.3327906,24.138 37.5227906,24.138 Z M48.0393953,16.56 L48.0393953,14.13 L44.9973953,14.13 L44.9973953,16.56 L48.0393953,16.56 Z M48.0753953,27 L48.0753953,17.73 L44.9613953,17.73 L44.9613953,27 L48.0753953,27 Z M53.786,27.216 C56.18,27.216 57.584,25.866 57.584,24.282 C57.584,21.294 53.246,21.186 53.246,20.484 C53.246,20.16 53.696,20.034 54.164,20.034 C55.46,20.034 56.36,20.79 56.36,20.79 L57.422,18.576 C57.422,18.576 56.324,17.514 54.164,17.514 C52.022,17.514 50.348,18.594 50.348,20.34 C50.348,23.364 54.686,23.454 54.686,24.264 C54.686,24.57 54.236,24.696 53.768,24.696 C52.436,24.696 51.41,23.76 51.41,23.76 L50.078,25.848 C50.078,25.848 51.464,27.216 53.786,27.216 Z M64.5006047,27.09 C65.0046047,27.09 65.3466047,27.036 65.3466047,27.036 L65.3466047,24.336 C65.3466047,24.336 65.1846047,24.354 64.9326047,24.354 C64.3386047,24.354 63.2766047,24.21 63.2766047,23.166 L63.2766047,20.322 L65.2206047,20.322 L65.2206047,17.892 L63.2766047,17.892 L63.2766047,15.228 L60.2526047,15.228 L60.2526047,17.892 L58.9746047,17.892 L58.9746047,20.322 L60.1626047,20.322 L60.1626047,23.58 C60.1626047,26.694 63.0246047,27.09 64.5006047,27.09 Z M72.0112094,27.216 C74.4772094,27.216 75.9712094,25.866 75.9712094,25.866 L74.8192094,23.688 C74.8192094,23.688 73.5952094,24.624 72.2632094,24.624 C71.2732094,24.624 70.3372094,24.102 70.1032094,22.968 L75.9532094,22.968 C75.9532094,22.968 76.0252094,22.302 76.0252094,21.996 C76.0252094,19.422 74.4772094,17.514 71.7412094,17.514 C68.7532094,17.514 66.9172094,19.638 66.9172094,22.356 C66.9172094,24.822 68.6992094,27.216 72.0112094,27.216 Z M72.8932094,21.186 L70.1752094,21.186 C70.3372094,20.502 70.7692094,19.854 71.6692094,19.854 C72.4072094,19.854 72.8932094,20.484 72.8932094,21.186 Z M81.249814,27 L81.249814,23.49 C81.249814,22.986 81.303814,22.572 81.411814,22.23 C81.861814,20.844 83.067814,20.61 83.805814,20.61 C84.183814,20.61 84.435814,20.664 84.435814,20.664 L84.435814,17.604 L84.3959307,17.596863 C84.3329569,17.5863673 84.2043855,17.568 84.075814,17.568 C82.689814,17.568 81.519814,18.612 81.123814,19.872 L81.087814,19.872 C81.087814,19.872 81.123814,19.602 81.123814,19.296 L81.123814,17.73 L78.135814,17.73 L78.135814,27 L81.249814,27 Z" id="Register" fill="#000000" fill-rule="nonzero"></path>
            </g>
        </g>
    </g>
</svg>