<?xml version="1.0" encoding="UTF-8"?>
<svg width="98px" height="55px" viewBox="0 0 98 55" version="1.1" xmlns="http://www.w3.org/2000/svg" xmlns:xlink="http://www.w3.org/1999/xlink">
    <title>FIll 104</title>
    <g id="Home" stroke="none" stroke-width="1" fill="none" fill-rule="evenodd">
        <g transform="translate(-591.000000, -2062.000000)" fill="#000000" id="FIll-104">
            <path d="M650.939601,2108.66368 C651.179791,2108.86331 651.385568,2109.18719 651.460715,2109.49152 C652.249409,2112.69193 654.038894,2115.41699 655.682299,2118.19928 C657.954271,2122.04745 660.424295,2125.76857 663.013009,2129.42129 C663.491583,2130.09677 663.956225,2130.7824 664.41665,2131.47136 L665.794983,2133.54145 C666.487536,2134.57469 667.192454,2135.60014 667.942521,2136.59481 C668.340028,2137.12251 668.627975,2137.73746 668.925755,2138.33287 C669.158219,2138.79845 668.816195,2139.50344 668.297188,2139.70936 C667.986064,2139.83291 667.674239,2140.00881 667.350474,2140.03952 C664.114231,2140.34316 660.910996,2141.00278 657.632614,2140.99999 C656.069272,2140.86667 654.50593,2140.72567 652.941184,2140.60003 C651.487403,2140.48346 650.032217,2140.39132 648.578436,2140.27266 C642.714149,2139.79172 637.026845,2138.65256 631.822729,2135.75719 C631.338135,2135.48845 630.881634,2135.16457 630.434263,2134.83581 C630.132972,2134.61454 630.062039,2133.95002 630.273434,2133.61079 C630.523456,2133.21082 630.878123,2132.91068 631.364823,2132.99374 C631.796744,2133.06773 632.240604,2133.21152 632.62266,2133.42442 C637.625915,2136.2123 643.087778,2137.36193 648.723112,2137.82541 C653.644196,2138.23026 658.572304,2138.67071 663.510244,2138.02714 C663.948485,2137.9699 664.390941,2137.86869 664.800387,2137.70815 C664.944361,2137.6523 665.119236,2137.29981 665.064456,2137.18324 C664.830587,2136.68695 664.531403,2136.21788 664.227302,2135.75858 C659.667907,2128.86846 654.778427,2122.18775 650.912211,2114.86067 C650.125624,2113.36901 649.405055,2111.86687 649.169078,2110.18116 C649.123428,2109.85659 649.103764,2109.51665 649.150116,2109.19487 C649.220347,2108.69788 649.596083,2108.39215 650.053286,2108.34468 C650.339829,2108.31537 650.708541,2108.47102 650.939601,2108.66368 Z M615.976865,2054.02748 C615.904527,2054.46444 615.834998,2054.91326 615.672062,2055.3209 C615.341977,2056.15015 614.969753,2056.96473 614.577864,2057.76675 C611.892231,2063.25735 610.673724,2069.15559 609.859747,2075.1355 C609.252249,2079.59862 609.663802,2084.05545 610.701114,2088.43202 C611.240488,2090.70895 611.888017,2092.96843 612.63668,2095.18672 C613.933846,2099.0321 616.116624,2102.43702 618.479897,2105.69117 C621.584106,2109.96652 625.42855,2113.55224 629.551811,2116.86781 C633.939842,2120.39559 638.735916,2123.30213 643.682986,2125.9169 C648.031688,2128.21547 652.507508,2130.3151 657.144859,2132.02804 C657.871048,2132.29677 658.559311,2132.6737 659.246873,2133.03458 C659.551675,2133.19512 659.69003,2133.93362 659.452649,2134.24912 C659.26724,2134.49413 658.985613,2134.73355 658.699773,2134.8215 C658.400589,2134.91294 658.029067,2134.87734 657.71654,2134.79497 C657.067605,2134.62256 656.420076,2134.42084 655.801341,2134.16327 C650.313492,2131.88285 644.831964,2129.58428 639.695973,2126.57234 C637.280027,2125.15536 634.857761,2123.7363 632.535925,2122.17414 C630.49431,2120.80044 628.526438,2119.3011 626.636523,2117.72637 C622.668472,2114.41847 618.998904,2110.79786 615.995827,2106.58743 C612.187904,2101.2469 609.581632,2095.36332 608.242327,2088.9311 C607.625699,2085.97221 607.342668,2082.97841 607.055424,2079.98043 C606.82928,2077.61416 607.347585,2075.30302 607.667136,2072.99329 C608.545023,2066.65739 610.301499,2060.56161 613.18729,2054.81763 C613.435908,2054.32204 613.691549,2053.81668 614.032871,2053.3867 C614.21477,2053.15775 614.588398,2053.07887 614.734479,2053.00419 C615.439598,2052.94485 616.059035,2053.5277 615.976865,2054.02748 Z" transform="translate(638.000000, 2097.000000) scale(1, -1) rotate(-39.000000) translate(-638.000000, -2097.000000) "></path>
        </g>
    </g>
</svg>