<?xml version="1.0" encoding="UTF-8"?>
<svg width="98px" height="55px" viewBox="0 0 98 55" version="1.1" xmlns="http://www.w3.org/2000/svg" xmlns:xlink="http://www.w3.org/1999/xlink">
    <title>FIll 104</title>
    <g id="Home" stroke="none" stroke-width="1" fill="none" fill-rule="evenodd">
        <g transform="translate(-710.000000, -2629.000000)" fill="#000000" id="FIll-104">
            <path d="M773.939601,2675.66368 C774.179791,2675.86331 774.385568,2676.18719 774.460715,2676.49152 C775.249409,2679.69193 777.038894,2682.41699 778.682299,2685.19928 C780.954271,2689.04745 783.424295,2692.76857 786.013009,2696.42129 C786.491583,2697.09677 786.956225,2697.7824 787.41665,2698.47136 L788.794983,2700.54145 C789.487536,2701.57469 790.192454,2702.60014 790.942521,2703.59481 C791.340028,2704.12251 791.627975,2704.73746 791.925755,2705.33287 C792.158219,2705.79845 791.816195,2706.50344 791.297188,2706.70936 C790.986064,2706.83291 790.674239,2707.00881 790.350474,2707.03952 C787.114231,2707.34316 783.910996,2708.00278 780.632614,2707.99999 C779.069272,2707.86667 777.50593,2707.72567 775.941184,2707.60003 C774.487403,2707.48346 773.032217,2707.39132 771.578436,2707.27266 C765.714149,2706.79172 760.026845,2705.65256 754.822729,2702.75719 C754.338135,2702.48845 753.881634,2702.16457 753.434263,2701.83581 C753.132972,2701.61454 753.062039,2700.95002 753.273434,2700.61079 C753.523456,2700.21082 753.878123,2699.91068 754.364823,2699.99374 C754.796744,2700.06773 755.240604,2700.21152 755.62266,2700.42442 C760.625915,2703.2123 766.087778,2704.36193 771.723112,2704.82541 C776.644196,2705.23026 781.572304,2705.67071 786.510244,2705.02714 C786.948485,2704.9699 787.390941,2704.86869 787.800387,2704.70815 C787.944361,2704.6523 788.119236,2704.29981 788.064456,2704.18324 C787.830587,2703.68695 787.531403,2703.21788 787.227302,2702.75858 C782.667907,2695.86846 777.778427,2689.18775 773.912211,2681.86067 C773.125624,2680.36901 772.405055,2678.86687 772.169078,2677.18116 C772.123428,2676.85659 772.103764,2676.51665 772.150116,2676.19487 C772.220347,2675.69788 772.596083,2675.39215 773.053286,2675.34468 C773.339829,2675.31537 773.708541,2675.47102 773.939601,2675.66368 Z M738.976865,2621.02748 C738.904527,2621.46444 738.834998,2621.91326 738.672062,2622.3209 C738.341977,2623.15015 737.969753,2623.96473 737.577864,2624.76675 C734.892231,2630.25735 733.673724,2636.15559 732.859747,2642.1355 C732.252249,2646.59862 732.663802,2651.05545 733.701114,2655.43202 C734.240488,2657.70895 734.888017,2659.96843 735.63668,2662.18672 C736.933846,2666.0321 739.116624,2669.43702 741.479897,2672.69117 C744.584106,2676.96652 748.42855,2680.55224 752.551811,2683.86781 C756.939842,2687.39559 761.735916,2690.30213 766.682986,2692.9169 C771.031688,2695.21547 775.507508,2697.3151 780.144859,2699.02804 C780.871048,2699.29677 781.559311,2699.6737 782.246873,2700.03458 C782.551675,2700.19512 782.69003,2700.93362 782.452649,2701.24912 C782.26724,2701.49413 781.985613,2701.73355 781.699773,2701.8215 C781.400589,2701.91294 781.029067,2701.87734 780.71654,2701.79497 C780.067605,2701.62256 779.420076,2701.42084 778.801341,2701.16327 C773.313492,2698.88285 767.831964,2696.58428 762.695973,2693.57234 C760.280027,2692.15536 757.857761,2690.7363 755.535925,2689.17414 C753.49431,2687.80044 751.526438,2686.3011 749.636523,2684.72637 C745.668472,2681.41847 741.998904,2677.79786 738.995827,2673.58743 C735.187904,2668.2469 732.581632,2662.36332 731.242327,2655.9311 C730.625699,2652.97221 730.342668,2649.97841 730.055424,2646.98043 C729.82928,2644.61416 730.347585,2642.30302 730.667136,2639.99329 C731.545023,2633.65739 733.301499,2627.56161 736.18729,2621.81763 C736.435908,2621.32204 736.691549,2620.81668 737.032871,2620.3867 C737.21477,2620.15775 737.588398,2620.07887 737.734479,2620.00419 C738.439598,2619.94485 739.059035,2620.5277 738.976865,2621.02748 Z" transform="translate(761.000000, 2664.000000) scale(-1, -1) rotate(-39.000000) translate(-761.000000, -2664.000000) "></path>
        </g>
    </g>
</svg>