<svg width="74" height="64" viewBox="0 0 74 64" fill="none" xmlns="http://www.w3.org/2000/svg">
<ellipse cx="30.847" cy="41.4056" rx="17.847" ry="17.5944" fill="#00B6FF" fill-opacity="0.171465"/>
<path d="M55.0269 50.4509V33.9922" stroke="#265A6E" stroke-width="2" stroke-linecap="round" stroke-linejoin="round"/>
<path fill-rule="evenodd" clip-rule="evenodd" d="M57.7341 9.48977C57.7341 11.0017 56.5236 13.1109 55.0269 13.1109C53.5323 13.1109 52.3218 11.0017 52.3218 9.48977C52.3218 7.97783 53.5323 6.7536 55.0269 6.7536C56.5236 6.7536 57.7341 7.97783 57.7341 9.48977Z" fill="#FFBC00" stroke="#265A6E" stroke-width="2" stroke-linecap="round" stroke-linejoin="round"/>
<path d="M51.5251 50.4509L50.4547 30.9902V23.8194C50.4547 22.2658 49.5423 20.8551 48.1177 20.2102L39.0479 16.099V14.8014H48.934C50.3106 14.8014 51.3671 15.4641 52.2154 16.478C53.498 18.0177 56.3972 18.2102 57.2116 16.6129C57.4417 16.1645 60.1268 16.7836 60.1268 16.7836C60.1268 16.7836 61.3873 16.9701 60.8791 30.7343C60.8651 31.1073 59.6146 30.5973 59.6006 30.9902L58.5281 50.4509" stroke="#265A6E" stroke-width="2" stroke-linecap="round" stroke-linejoin="round"/>
<path d="M37.019 6.94647V5" stroke="#265A6E" stroke-width="2" stroke-linecap="round" stroke-linejoin="round"/>
<path d="M17.0107 34.6647V6.94586" stroke="#265A6E" stroke-width="2" stroke-linecap="round" stroke-linejoin="round"/>
<path d="M47.0136 6.94647H15" stroke="#265A6E" stroke-width="2" stroke-linecap="round" stroke-linejoin="round"/>
<path d="M47.0136 34.7248H15" stroke="#265A6E" stroke-width="2" stroke-linecap="round" stroke-linejoin="round"/>
<path fill-rule="evenodd" clip-rule="evenodd" d="M40.5352 42.6373C40.5352 43.9567 39.4287 45.798 38.0662 45.798C36.7036 45.798 35.5991 43.9567 35.5991 42.6373C35.5991 41.3178 36.7036 40.2483 38.0662 40.2483C39.4287 40.2483 40.5352 41.3178 40.5352 42.6373Z" fill="#FFBC00" stroke="#265A6E" stroke-width="2" stroke-linecap="round" stroke-linejoin="round"/>
<path d="M44.692 50.543C44.864 49.3465 43.9297 48.2771 42.7111 48.2771H40.5342C38.8615 49.9378 37.0407 49.9378 35.366 48.2771H33.3192C32.1026 48.2771 31.1662 49.3465 31.3383 50.543" stroke="#265A6E" stroke-width="2" stroke-linecap="round" stroke-linejoin="round"/>
<path fill-rule="evenodd" clip-rule="evenodd" d="M24.5275 42.6373C24.5275 43.9567 23.421 45.798 22.0584 45.798C20.6958 45.798 19.5894 43.9567 19.5894 42.6373C19.5894 41.3178 20.6958 40.2483 22.0584 40.2483C23.421 40.2483 24.5275 41.3178 24.5275 42.6373Z" fill="#FFBC00" stroke="#265A6E" stroke-width="2" stroke-linecap="round" stroke-linejoin="round"/>
<path d="M28.6846 50.543C28.8567 49.3465 27.9223 48.2771 26.7038 48.2771H24.5269C22.8542 49.9378 21.0334 49.9378 19.3587 48.2771H17.3118C16.0953 48.2771 15.1589 49.3465 15.331 50.543" stroke="#265A6E" stroke-width="2" stroke-linecap="round" stroke-linejoin="round"/>
</svg>
