<svg width="74" height="64" viewBox="0 0 74 64" fill="none" xmlns="http://www.w3.org/2000/svg">
<ellipse cx="34.8407" cy="33.2257" rx="18.6229" ry="18.5436" fill="#00B6FF" fill-opacity="0.171465"/>
<path fill-rule="evenodd" clip-rule="evenodd" d="M11 51.2039H59V15.7256H11V51.2039Z" stroke="#265A6E" stroke-width="2" stroke-linecap="round" stroke-linejoin="round"/>
<path d="M17.2607 26.1607H31.8694" stroke="#265A6E" stroke-width="2" stroke-linecap="round" stroke-linejoin="round"/>
<path d="M17.2607 34.5086H31.8694" stroke="#265A6E" stroke-width="2" stroke-linecap="round" stroke-linejoin="round"/>
<path d="M17.2607 38.6827H31.8694" stroke="#265A6E" stroke-width="2" stroke-linecap="round" stroke-linejoin="round"/>
<path d="M17.2607 42.8566H25.6086" stroke="#265A6E" stroke-width="2" stroke-linecap="round" stroke-linejoin="round"/>
<path d="M41.7981 36.5804L39.7759 42.1379L42.1905 42.1776L44.0667 43.701L45.9032 38.6569" stroke="#265A6E" stroke-width="2" stroke-linecap="round" stroke-linejoin="round"/>
<path d="M46.6567 38.6796L48.4828 43.7008L50.359 42.1773L52.7757 42.1376L50.8661 36.8889" stroke="#265A6E" stroke-width="2" stroke-linecap="round" stroke-linejoin="round"/>
<path fill-rule="evenodd" clip-rule="evenodd" d="M52.7395 32.4216C52.7395 35.8797 49.9367 38.6824 46.4786 38.6824C43.0206 38.6824 40.2178 35.8797 40.2178 32.4216C40.2178 28.9635 43.0206 26.1607 46.4786 26.1607C49.9367 26.1607 52.7395 28.9635 52.7395 32.4216Z" fill="#FFBC00" stroke="#265A6E" stroke-width="2" stroke-linecap="round" stroke-linejoin="round"/>
</svg>
