<svg width="74" height="64" viewBox="0 0 74 64" fill="none" xmlns="http://www.w3.org/2000/svg">
<ellipse cx="37.1618" cy="32.3035" rx="26.4161" ry="26.3036" fill="#00B6FF" fill-opacity="0.171465"/>
<path d="M9.0332 41.4784V50.7113" stroke="#265A6E" stroke-width="2" stroke-linecap="round" stroke-linejoin="round"/>
<path fill-rule="evenodd" clip-rule="evenodd" d="M12.5156 57.223C12.5156 58.191 11.7308 58.9752 10.7628 58.9752H7.30484C6.33742 58.9752 5.55176 58.191 5.55176 57.223L6.37916 52.4632C6.37916 51.4952 7.16364 50.7113 8.13165 50.7113H9.93654C10.904 50.7113 11.6887 51.4952 11.6887 52.4632L12.5156 57.223Z" fill="#FFBC00" stroke="#265A6E" stroke-width="2" stroke-linecap="round" stroke-linejoin="round"/>
<path fill-rule="evenodd" clip-rule="evenodd" d="M14.3347 14.5087H61.8414L71 35.2915H3L14.3347 14.5087Z" stroke="#265A6E" stroke-width="2" stroke-linecap="round" stroke-linejoin="round"/>
<path d="M23.0975 35.2915L19.1704 52.4867C19.1704 56.6474 27.1999 58.9753 37.1036 58.9753C47.0081 58.9753 55.037 56.6474 55.037 52.4867L51.1093 35.2915" stroke="#265A6E" stroke-width="2" stroke-linecap="round" stroke-linejoin="round"/>
<path d="M9.44727 23.4698H36.0789" stroke="#265A6E" stroke-width="2" stroke-linecap="round" stroke-linejoin="round"/>
</svg>
