<?xml version="1.0" encoding="UTF-8"?>
<svg width="144px" height="144px" viewBox="0 0 144 144" version="1.1" xmlns="http://www.w3.org/2000/svg" xmlns:xlink="http://www.w3.org/1999/xlink">
    <title>icon-recorded</title>
    <g id="NEw" stroke="none" stroke-width="1" fill="none" fill-rule="evenodd">
        <g id="icon-recorded">
            <polygon id="Path" points="0 0 144 0 144 144 0 144"></polygon>
            <path d="M102,18 L30,18 C23.34,18 18,23.4 18,30 L18,114 C18,120.6 23.34,126 30,126 L114,126 C120.6,126 126,120.6 126,114 L126,42 L102,18 Z M72,114 C62.04,114 54,105.96 54,96 C54,86.04 62.04,78 72,78 C81.96,78 90,86.04 90,96 C90,105.96 81.96,114 72,114 Z M90,54 L30,54 L30,30 L90,30 L90,54 Z" id="Shape" fill="#BBBBBB" fill-rule="nonzero"></path>
        </g>
    </g>
</svg>