<svg width="75" height="75" viewBox="0 0 75 75" fill="none" xmlns="http://www.w3.org/2000/svg">
<path d="M37.606 1.71158C57.4296 1.71175 73.4995 17.7824 73.4995 37.6061C73.4993 57.4297 57.4295 73.4995 37.606 73.4997C17.7822 73.4997 1.7116 57.4298 1.71143 37.6061C1.71143 17.7823 17.7821 1.71158 37.606 1.71158Z" fill="#010101" stroke="white" stroke-width="3" stroke-miterlimit="10"/>
<path d="M37.6054 66.4969C53.5616 66.4969 66.4965 53.5619 66.4965 37.6058C66.4965 21.6497 53.5616 8.71469 37.6054 8.71469C21.6493 8.71469 8.71436 21.6497 8.71436 37.6058C8.71436 53.5619 21.6493 66.4969 37.6054 66.4969Z" fill="white"/>
<path d="M34.3901 36.407C34.3901 34.8881 35.6211 33.6571 37.14 33.6571V30.9073H26.1406V33.6571C27.6595 33.6571 28.8905 34.8881 28.8905 36.407C28.8905 37.9259 27.6595 39.1568 26.1406 39.1568V41.9066H37.14V39.1568C35.6211 39.1568 34.3901 37.9259 34.3901 36.407Z" fill="#15C1E1"/>
<path d="M43.571 24.4749C43.571 21.4383 41.1079 18.9764 38.0713 18.9764V29.9757C41.1079 29.9757 43.5698 27.5138 43.571 24.4772C43.571 27.5138 46.034 29.9757 49.0706 29.9757V18.9764C46.034 18.9764 43.5721 21.4383 43.571 24.4749Z" fill="#F05123"/>
<path d="M33.3598 24.4761H28.2043V21.039H33.3598C34.3085 21.039 35.0783 21.8088 35.0783 22.7576C35.0783 23.7063 34.3085 24.4761 33.3598 24.4761ZM33.7039 18.9924C33.5904 18.9821 33.4757 18.9764 33.3598 18.9764H26.1416V29.9757H28.2043V26.5387H33.3598C33.4757 26.5387 33.5904 26.533 33.7039 26.5227C35.6312 26.3483 37.141 24.7296 37.141 22.7576C37.141 20.7855 35.6312 19.1668 33.7039 18.9924Z" fill="#010101"/>
<path d="M38.0713 41.9067V38.7943L41.1836 41.9067H38.0713Z" fill="#533193"/>
<path d="M44.3453 41.9067L38.0713 35.6326V32.4709L47.507 41.9055H44.3453V41.9067Z" fill="#533193"/>
<path d="M49.0698 30.9061V33.9852L45.9907 30.9061H49.0698Z" fill="#533193"/>
<path d="M49.0707 40.3086L39.6694 30.9073H42.8311L49.0707 37.1469V40.3086Z" fill="#533193"/>
<path d="M50.5359 40.8593H50.7642L51.1359 41.7047L51.503 40.8593H51.7347V41.9066H51.5695V41.0887L51.2128 41.9066H51.0579L50.7034 41.0887V41.9066H50.5382L50.5359 40.8593ZM49.9543 41.0072H49.6445V40.8593H50.4269V41.0072H50.1195V41.9066H49.9543V41.0072Z" fill="#200F3B"/>
<path d="M5.01303 40.1938C5.06236 40.0654 5.14037 39.9621 5.24706 39.8853C5.35375 39.8072 5.48109 39.7614 5.63023 39.7476C5.77936 39.7338 5.91359 39.7545 6.03175 39.8107C6.14991 39.8669 6.24513 39.9541 6.3174 40.0711C6.38967 40.1881 6.43327 40.3258 6.44818 40.4864L6.48948 40.9177L7.2409 40.8466L7.28678 41.3261L5.04974 41.5384L4.9637 40.6275C4.94879 40.468 4.966 40.3235 5.01418 40.195L5.01303 40.1938ZM6.05354 40.5678C6.04322 40.4554 6.00307 40.3682 5.93538 40.3086C5.8677 40.2478 5.78166 40.2237 5.67611 40.2329C5.56943 40.2432 5.48912 40.2845 5.43291 40.3556C5.3767 40.4267 5.3549 40.5197 5.36522 40.6332L5.40193 41.0198L6.08911 40.9544L6.0524 40.5678H6.05354Z" fill="white"/>
<path d="M4.94882 36.0697C5.01421 35.9469 5.10369 35.8529 5.21956 35.7875C5.33543 35.7221 5.46736 35.6923 5.61764 35.6969C5.76104 35.7014 5.88723 35.7393 5.99507 35.8116C6.10291 35.8838 6.18436 35.9802 6.23828 36.1018L7.11818 35.6865L7.10212 36.2188L6.33693 36.571L6.32432 36.9783L7.07803 37.0012L7.06311 37.483L4.81689 37.4131L4.84557 36.4987C4.85016 36.3358 4.88573 36.1936 4.94997 36.0697H4.94882ZM5.93312 36.571C5.93656 36.4574 5.90903 36.3668 5.84823 36.2968C5.78857 36.228 5.70597 36.1913 5.60158 36.1879C5.49489 36.1844 5.40885 36.2154 5.34461 36.2808C5.28036 36.3462 5.24709 36.4356 5.24365 36.5492L5.23103 36.9439L5.9205 36.9657L5.93312 36.571Z" fill="white"/>
<path d="M7.44684 32.0051C7.51682 32.1875 7.53403 32.386 7.49847 32.5994C7.46291 32.8128 7.38375 32.9952 7.2587 33.1454C7.13366 33.2957 6.97764 33.4036 6.79065 33.469C6.60365 33.5332 6.40289 33.5481 6.18951 33.5137C5.97613 33.4781 5.79143 33.4001 5.63427 33.2797C5.4771 33.1581 5.36468 33.0066 5.2947 32.8231C5.22472 32.6407 5.20751 32.4422 5.24307 32.2288C5.27864 32.0155 5.35779 31.8331 5.48284 31.6828C5.60788 31.5313 5.7639 31.4246 5.9509 31.3593C6.13789 31.295 6.33865 31.2801 6.55203 31.3145C6.76541 31.3501 6.95011 31.4281 7.10727 31.5485C7.26444 31.6701 7.37687 31.8216 7.44684 32.0051ZM6.95011 32.8414C7.02812 32.7588 7.0763 32.6556 7.09695 32.534C7.11645 32.4135 7.10268 32.3023 7.05565 32.199C7.00861 32.0958 6.93405 32.0097 6.83309 31.9409C6.73214 31.8721 6.61168 31.8262 6.47172 31.8032C6.33177 31.7803 6.20328 31.7849 6.08512 31.8181C5.96696 31.8503 5.86944 31.9088 5.79143 31.9914C5.71342 32.074 5.66524 32.1761 5.64574 32.2965C5.62509 32.4193 5.63886 32.5317 5.68589 32.6349C5.73293 32.7382 5.8075 32.8242 5.90845 32.8931C6.01055 32.9619 6.13101 33.0078 6.26982 33.0307C6.40978 33.0537 6.53826 33.0491 6.65642 33.0158C6.77459 32.9837 6.8721 32.9252 6.95011 32.8426V32.8414Z" fill="white"/>
<path d="M7.80967 28.5429C7.99093 28.5945 8.11712 28.6852 8.18939 28.8136C8.26166 28.9421 8.27084 29.0981 8.21807 29.2817L8.10335 29.6798L7.70183 29.5639L7.77525 29.3081C7.80164 29.2175 7.79934 29.1463 7.76837 29.0959C7.73739 29.0442 7.67659 29.0064 7.58596 28.98L6.08887 28.5498L6.22194 28.0875L7.80852 28.5429H7.80967Z" fill="white"/>
<path d="M7.61383 24.3246L7.99585 24.4829L7.60236 25.4317L8.06813 25.6244L8.38705 24.8535L8.75186 25.0049L8.43293 25.7758L8.91361 25.9743L9.31972 24.9923L9.70174 25.1506L9.11093 26.5766L7.03564 25.7173L7.61269 24.3235L7.61383 24.3246Z" fill="white"/>
<path d="M8.98096 21.8478C8.98096 21.6574 9.03717 21.4635 9.14845 21.2685C9.23564 21.1159 9.34347 20.9966 9.47196 20.9094C9.60045 20.8222 9.73926 20.7729 9.89069 20.7603C10.041 20.7476 10.1913 20.774 10.3404 20.8394L10.1018 21.2581C9.97673 21.2191 9.85971 21.2191 9.75188 21.2593C9.64404 21.2994 9.55685 21.3775 9.49146 21.4933C9.40198 21.6493 9.39051 21.8065 9.4559 21.9648C9.52129 22.1231 9.64977 22.2562 9.84136 22.3652C10.0306 22.473 10.2108 22.5155 10.3805 22.4925C10.5503 22.4684 10.68 22.379 10.7694 22.2229C10.8348 22.1071 10.8578 21.9935 10.8383 21.8799C10.8176 21.7664 10.7591 21.6654 10.6616 21.5771L10.9002 21.1583C11.0333 21.2536 11.132 21.3694 11.1973 21.5059C11.2627 21.6425 11.2903 21.787 11.2811 21.9419C11.2719 22.0968 11.2237 22.2505 11.1365 22.4031C11.0253 22.5981 10.8876 22.7449 10.7236 22.8424C10.5595 22.9399 10.3805 22.9847 10.1867 22.9767C9.99279 22.9686 9.79662 22.9078 9.59815 22.7942C9.39968 22.6807 9.24711 22.543 9.14156 22.3801C9.03602 22.2172 8.98325 22.0405 8.98325 21.8501L8.98096 21.8478Z" fill="white"/>
<path d="M11.9248 17.1936L12.2563 17.4425L11.8674 17.9611L13.3324 19.0624L13.0433 19.4479L11.5784 18.3477L11.1895 18.8662L10.8579 18.6173L11.926 17.1959L11.9248 17.1936Z" fill="white"/>
<path d="M16.0121 12.91L17.5528 13.7681L16.9482 12.1184L17.4209 11.718L18.8721 13.4331L18.5222 13.7291L17.5493 12.5796L18.0759 14.1065L17.7765 14.3589L16.3586 13.5868L17.3314 14.7363L16.9815 15.0323L15.5303 13.3172L16.0132 12.9088L16.0121 12.91Z" fill="white"/>
<path d="M20.0435 9.89172L20.5333 9.58542L22.4147 11.0584L21.9765 11.3326L21.5692 11.0079L20.8454 11.4599L20.9589 11.9682L20.5368 12.232L20.0435 9.89172ZM21.2526 10.7487L20.5471 10.1831L20.749 11.063L21.2526 10.7487Z" fill="white"/>
<path d="M23.3105 8.05045L23.7086 7.87034L25.1598 8.7686L24.5771 7.47914L25.0096 7.28412L25.9342 9.33187L25.5338 9.51313L24.0826 8.61602L24.6654 9.90547L24.2352 10.0993L23.3105 8.0516V8.05045Z" fill="white"/>
<path d="M28.0038 6.21149L28.5579 6.0463L29.9815 7.96786L29.486 8.11584L29.1797 7.69482L28.3606 7.93918L28.3342 8.46L27.8569 8.60226L28.0026 6.21379L28.0038 6.21149ZM28.9422 7.35869L28.4122 6.62563L28.3732 7.52848L28.9422 7.35869Z" fill="white"/>
<path d="M31.996 5.37518C32.1475 5.25587 32.3356 5.17901 32.5593 5.14345C32.7348 5.11591 32.8977 5.12509 33.048 5.17098C33.1983 5.21687 33.3256 5.29373 33.43 5.40386C33.5344 5.51285 33.609 5.64592 33.6537 5.80079L33.1845 5.87421C33.1352 5.75376 33.0606 5.66428 32.9608 5.60577C32.861 5.54726 32.744 5.52776 32.6109 5.54841C32.4882 5.56791 32.3861 5.61495 32.3046 5.69066C32.2232 5.76638 32.167 5.86274 32.136 5.97976C32.105 6.09677 32.1004 6.2264 32.1222 6.36866C32.1566 6.58663 32.2369 6.75412 32.3654 6.86998C32.4928 6.98585 32.6511 7.02944 32.8392 7.00076C32.9769 6.97897 33.0928 6.92275 33.1868 6.83098C33.2809 6.7392 33.3268 6.61875 33.3256 6.46961L33.321 6.44093L32.7692 6.52697L32.7096 6.14954L33.7019 5.99352L33.8946 7.22791L33.5643 7.27953L33.4702 7.01109C33.4186 7.1086 33.3417 7.19235 33.2407 7.26462C33.1398 7.33689 33.0159 7.38393 32.8702 7.40687C32.6603 7.44014 32.4687 7.42179 32.2955 7.3541C32.1211 7.28642 31.9765 7.17284 31.8618 7.01568C31.7471 6.85851 31.6725 6.66693 31.637 6.44323C31.6014 6.21723 31.6152 6.01188 31.6771 5.82718C31.7391 5.64363 31.8457 5.49105 31.9972 5.37289L31.996 5.37518Z" fill="white"/>
<path d="M37.5728 4.76144L37.5832 5.17558L36.5564 5.20197L36.5702 5.70559L37.4042 5.68379L37.4145 6.07843L36.5805 6.10023L36.5943 6.61991L37.6566 6.59238L37.6669 7.00652L36.1239 7.04667L36.0654 4.80045L37.574 4.76144H37.5728Z" fill="white"/>
<path d="M40.6852 4.90254L41.1234 6.61072L41.9047 5.03676L42.5207 5.10445L42.2741 7.33805L41.8175 7.28757L41.9827 5.79047L41.237 7.22333L40.8481 7.18088L40.4328 5.62069L40.2676 7.11779L39.811 7.06731L40.0577 4.83371L40.6863 4.90254H40.6852Z" fill="white"/>
<path d="M46.4793 5.9591L46.3783 6.36062L45.3826 6.10939L45.2598 6.59809L46.0686 6.80229L45.9722 7.18546L45.1635 6.98126L45.0361 7.48488L46.0663 7.74529L45.9654 8.14681L44.4683 7.76938L45.0178 5.59085L46.4805 5.96025L46.4793 5.9591Z" fill="white"/>
<path d="M48.8356 6.70709L49.2417 6.8677L49.6099 8.53458L50.1296 7.2176L50.5713 7.39197L49.7476 9.48217L49.3381 9.32041L48.9698 7.65353L48.4501 8.97052L48.0107 8.79729L48.8344 6.70709H48.8356Z" fill="white"/>
<path d="M54.302 9.28027L54.1013 9.64279L53.5334 9.3296L52.6466 10.9334L52.2256 10.7005L53.1124 9.09672L52.5445 8.78354L52.7453 8.42102L54.302 9.28142V9.28027Z" fill="white"/>
<path d="M58.9519 12.606L57.5064 14.3268L57.1382 14.0171L58.5837 12.2963L58.9519 12.606Z" fill="white"/>
<path d="M60.7967 14.2855L61.0984 14.6021L60.7313 16.269L61.7569 15.2927L62.085 15.6369L60.4571 17.1867L60.1542 16.8678L60.5213 15.2009L59.4957 16.1772L59.1699 15.8353L60.7978 14.2855H60.7967Z" fill="white"/>
<path d="M62.5668 19.0533C62.561 19.1599 62.5989 19.2678 62.6792 19.3791C62.7457 19.4708 62.8203 19.5305 62.9018 19.5603C62.9832 19.5901 63.0578 19.5787 63.1278 19.5282C63.1759 19.4926 63.2023 19.449 63.2081 19.3963C63.2126 19.3435 63.2023 19.2815 63.1771 19.2127C63.1518 19.1439 63.106 19.0383 63.0417 18.8995C62.9763 18.7642 62.9327 18.6426 62.9086 18.5359C62.8845 18.4292 62.8891 18.3236 62.9213 18.2215C62.9534 18.1194 63.0279 18.0265 63.1438 17.9416C63.2494 17.8648 63.3641 17.8246 63.4903 17.8212C63.6153 17.8177 63.7392 17.851 63.862 17.9187C63.9847 17.9864 64.0937 18.085 64.1878 18.2147C64.2853 18.3477 64.3484 18.4854 64.3771 18.6276C64.4057 18.7699 64.3989 18.903 64.3576 19.028C64.3163 19.1531 64.2417 19.2552 64.1338 19.3366L63.8551 18.9557C63.9262 18.8904 63.9652 18.8112 63.9709 18.7194C63.9767 18.6276 63.9457 18.5347 63.8769 18.4418C63.8138 18.3558 63.745 18.2995 63.6704 18.2743C63.5958 18.2491 63.5258 18.2605 63.4581 18.3099C63.41 18.3454 63.3836 18.3879 63.3801 18.4395C63.3755 18.49 63.387 18.5496 63.4123 18.6185C63.4375 18.6873 63.4822 18.7894 63.5476 18.9259C63.6142 19.0636 63.6601 19.1852 63.6876 19.293C63.7151 19.4009 63.7128 19.5053 63.6819 19.6062C63.6509 19.7072 63.5786 19.7989 63.4639 19.8827C63.3538 19.9641 63.2322 20.0054 63.1014 20.0089C62.9694 20.0123 62.8398 19.9779 62.7102 19.9068C62.5805 19.8356 62.467 19.7324 62.3683 19.5982C62.2616 19.4536 62.1939 19.3045 62.1641 19.1531C62.1343 19.0016 62.1423 18.8594 62.1882 18.7275C62.2352 18.5955 62.3155 18.4854 62.4291 18.3994L62.7033 18.7837C62.6184 18.8559 62.5737 18.9454 62.5679 19.0521L62.5668 19.0533Z" fill="white"/>
<path d="M66.7653 22.3652L66.4039 22.5671L66.0873 22.0016L64.4881 22.8964L64.2529 22.4765L65.8521 21.5817L65.5355 21.0161L65.8969 20.8142L66.7653 22.3664V22.3652Z" fill="white"/>
<path d="M67.9699 24.9499L65.9027 25.8321L65.7134 25.3893L67.7806 24.5082L67.9699 24.9511V24.9499Z" fill="white"/>
<path d="M69.332 28.8618L68.9362 28.9823L68.7469 28.3616L66.994 28.8962L66.854 28.435L68.6069 27.9005L68.4176 27.2798L68.8134 27.1594L69.332 28.8607V28.8618Z" fill="white"/>
<path d="M68.679 31.8813C68.5001 31.9111 68.3704 31.9696 68.2913 32.0545C68.2121 32.1394 68.1858 32.2564 68.211 32.4067C68.2362 32.557 68.3005 32.6591 68.4026 32.7142C68.5047 32.7692 68.6458 32.7818 68.8259 32.752L70.1108 32.5352L70.1911 33.0101L68.9314 33.2235C68.6148 33.2774 68.3601 33.2407 68.1674 33.1134C67.9747 32.986 67.8531 32.7738 67.8026 32.4767C67.7521 32.1796 67.798 31.9398 67.938 31.7574C68.0779 31.575 68.3074 31.4568 68.624 31.4041L69.8836 31.1907L69.9639 31.6656L68.679 31.8824V31.8813Z" fill="white"/>
<path d="M70.5068 37.1687L70.0926 37.1847L70.0674 36.5366L68.2353 36.61L68.2158 36.1293L70.0479 36.0559L70.0227 35.4077L70.4368 35.3917L70.5079 37.1687H70.5068Z" fill="white"/>
<path d="M70.3265 41.0623L69.9135 41.029L69.9961 40.0046L69.4936 39.9644L69.4259 40.7962L69.0324 40.764L69.1001 39.9323L68.5816 39.8899L68.4955 40.9487L68.0825 40.9155L68.2076 39.3759L70.4469 39.5572L70.3253 41.0612L70.3265 41.0623Z" fill="white"/>
<path d="M21.1491 51.067V51.7473H20.0834V54.7587H19.2918V51.7473H18.2261V51.067H21.148H21.1491Z" fill="#010101"/>
<path d="M22.9423 52.7236H22.6475C22.4364 52.7236 22.2815 52.7867 22.1829 52.9141C22.0842 53.0403 22.0349 53.2123 22.0349 53.4315V54.7611H21.2915V52.0502H21.9672L22.036 52.4563C22.1163 52.3233 22.2173 52.2212 22.3366 52.1535C22.4559 52.0846 22.6165 52.0502 22.8161 52.0502H22.9423V52.7259V52.7236Z" fill="#010101"/>
<path d="M25.8643 54.7587H25.4845C25.1438 54.7587 24.9763 54.6107 24.9832 54.3159C24.8846 54.4707 24.763 54.5889 24.6196 54.6692C24.475 54.7495 24.3018 54.7908 24.0976 54.7908C23.7947 54.7908 23.5515 54.7208 23.3668 54.582C23.1821 54.4432 23.0903 54.247 23.0903 53.9935C23.0903 53.7056 23.197 53.483 23.4093 53.3258C23.6215 53.1698 23.9301 53.0907 24.335 53.0907H24.8731V52.9587C24.8731 52.836 24.8272 52.7385 24.7354 52.6662C24.6436 52.5939 24.5209 52.5584 24.366 52.5584C24.2295 52.5584 24.1159 52.5882 24.0287 52.6478C23.9404 52.7075 23.8876 52.7889 23.8704 52.8899H23.1534C23.1775 52.6123 23.3014 52.3966 23.5228 52.244C23.7442 52.0914 24.0379 52.0146 24.4039 52.0146C24.7698 52.0146 25.083 52.0995 25.293 52.2681C25.5017 52.4368 25.6073 52.6811 25.6073 53.0012V53.9556C25.6073 54.0222 25.6211 54.0681 25.6497 54.0933C25.6784 54.1186 25.722 54.13 25.7817 54.13H25.8654V54.7575L25.8643 54.7587ZM24.3293 53.5874C24.1744 53.5874 24.054 53.6184 23.9679 53.6792C23.8819 53.7411 23.8383 53.8283 23.8383 53.9407C23.8383 54.036 23.8739 54.1117 23.9461 54.1679C24.0184 54.2241 24.1159 54.2528 24.2387 54.2528C24.4326 54.2528 24.5851 54.1977 24.6976 54.0864C24.81 53.9752 24.8685 53.8272 24.8719 53.6402V53.5874H24.3282H24.3293Z" fill="#010101"/>
<path d="M26.9561 51.3355C26.9561 51.4548 26.916 51.5558 26.8345 51.6361C26.753 51.7175 26.6521 51.7577 26.5282 51.7577C26.4043 51.7577 26.3022 51.7175 26.2196 51.6361C26.137 51.5558 26.0957 51.4548 26.0957 51.3355C26.0957 51.2162 26.137 51.1164 26.2196 51.0372C26.3022 50.9581 26.4054 50.9191 26.5282 50.9191C26.6509 50.9191 26.753 50.9592 26.8345 51.0372C26.9148 51.1164 26.9561 51.2162 26.9561 51.3355ZM26.8976 52.0479V54.7587H26.1542V52.0479H26.8976Z" fill="#010101"/>
<path d="M30.057 53.2881V54.7599H29.3137V53.3305C29.3137 52.8625 29.1313 52.6296 28.7653 52.6296C28.5714 52.6296 28.4223 52.695 28.3167 52.8246C28.2112 52.9542 28.1584 53.1378 28.1584 53.373V54.7599H27.415V52.0491H28.0632L28.132 52.3864C28.2273 52.2705 28.3408 52.1799 28.4751 52.1145C28.6081 52.0491 28.7733 52.017 28.9706 52.017C29.2873 52.017 29.5477 52.1156 29.7507 52.3118C29.9549 52.5091 30.057 52.8338 30.057 53.2881Z" fill="#010101"/>
<path d="M31.3282 51.3355C31.3282 51.4548 31.288 51.5558 31.2066 51.6361C31.1251 51.7175 31.0242 51.7577 30.9003 51.7577C30.7764 51.7577 30.6743 51.7175 30.5917 51.6361C30.5091 51.5558 30.4678 51.4548 30.4678 51.3355C30.4678 51.2162 30.5091 51.1164 30.5917 51.0372C30.6743 50.9581 30.7775 50.9191 30.9003 50.9191C31.023 50.9191 31.1251 50.9592 31.2066 51.0372C31.2869 51.1164 31.3282 51.2162 31.3282 51.3355ZM31.2697 52.0479V54.7587H30.5263V52.0479H31.2697Z" fill="#010101"/>
<path d="M34.4291 53.2881V54.7599H33.6857V53.3305C33.6857 52.8625 33.5033 52.6296 33.1374 52.6296C32.9435 52.6296 32.7944 52.695 32.6888 52.8246C32.5833 52.9542 32.5305 53.1378 32.5305 53.373V54.7599H31.7871V52.0491H32.4353L32.5041 52.3864C32.5993 52.2705 32.7129 52.1799 32.8471 52.1145C32.9802 52.0491 33.1454 52.017 33.3427 52.017C33.6593 52.017 33.9198 52.1156 34.1228 52.3118C34.327 52.5091 34.4291 52.8338 34.4291 53.2881Z" fill="#010101"/>
<path d="M37.6092 54.6796C37.6092 55.0352 37.491 55.3174 37.2558 55.5285C37.0207 55.7396 36.6547 55.8451 36.1591 55.8451C35.776 55.8451 35.4662 55.7602 35.231 55.5916C34.9959 55.4229 34.8685 55.1832 34.8513 54.8746H35.6004C35.636 55.0042 35.7048 55.1052 35.8092 55.1751C35.9125 55.2451 36.049 55.2807 36.2176 55.2807C36.4287 55.2807 36.5916 55.2279 36.7086 55.1224C36.8245 55.0168 36.883 54.8608 36.883 54.6532V54.3687C36.6857 54.6188 36.4069 54.7427 36.0444 54.7427C35.8058 54.7427 35.5913 54.6864 35.4008 54.574C35.2104 54.4616 35.0624 54.3021 34.9546 54.0968C34.8479 53.8914 34.7939 53.6505 34.7939 53.3763C34.7939 53.1022 34.8479 52.867 34.9546 52.6593C35.0612 52.4517 35.2115 52.2922 35.4031 52.1798C35.5947 52.0674 35.8104 52.0112 36.049 52.0112C36.4046 52.0112 36.6857 52.1488 36.8933 52.423L36.9564 52.049H37.6103V54.6807L37.6092 54.6796ZM36.8761 53.3878C36.8761 53.1595 36.8165 52.9725 36.6972 52.8291C36.5778 52.6846 36.4172 52.6123 36.2176 52.6123C36.018 52.6123 35.8563 52.6834 35.7347 52.8257C35.613 52.9679 35.5522 53.1538 35.5522 53.3821C35.5522 53.6104 35.613 53.7951 35.7347 53.9362C35.8563 54.0773 36.0169 54.1473 36.2176 54.1473C36.4184 54.1473 36.5778 54.0773 36.6972 53.9362C36.8165 53.7951 36.8761 53.6127 36.8761 53.3878Z" fill="#010101"/>
<path d="M41.6929 51.2173C41.8948 51.3171 42.0519 51.4605 42.1621 51.6475C42.2733 51.8333 42.3284 52.0502 42.3284 52.2968C42.3284 52.5435 42.2733 52.758 42.1621 52.9427C42.0508 53.1274 41.8948 53.2696 41.6929 53.3694C41.491 53.4693 41.2581 53.5197 40.9942 53.5197H40.2818V54.7587H39.4902V51.067H40.9931C41.2569 51.067 41.4898 51.1175 41.6917 51.2173H41.6929ZM40.9196 52.8601C41.1055 52.8601 41.2535 52.8085 41.3625 52.7075C41.4715 52.6054 41.5254 52.4689 41.5254 52.2957C41.5254 52.1224 41.4703 51.9813 41.3625 51.8792C41.2535 51.7771 41.1055 51.7267 40.9196 51.7267H40.2818V52.8612H40.9196V52.8601Z" fill="#010101"/>
<path d="M45.2241 54.7587H44.8444C44.5037 54.7587 44.3362 54.6107 44.3431 54.3159C44.2444 54.4707 44.1228 54.5889 43.9794 54.6692C43.836 54.7495 43.6616 54.7908 43.4574 54.7908C43.1546 54.7908 42.9114 54.7208 42.7267 54.582C42.542 54.4432 42.4502 54.247 42.4502 53.9935C42.4502 53.7056 42.5569 53.483 42.7691 53.3258C42.9813 53.1698 43.2899 53.0907 43.6949 53.0907H44.2329V52.9587C44.2329 52.836 44.1871 52.7385 44.0964 52.6662C44.0047 52.5939 43.8819 52.5584 43.727 52.5584C43.5894 52.5584 43.4769 52.5882 43.3898 52.6478C43.3014 52.7075 43.2486 52.7889 43.2314 52.8899H42.5144C42.5385 52.6123 42.6624 52.3966 42.8838 52.244C43.1052 52.0914 43.3989 52.0146 43.7649 52.0146C44.1308 52.0146 44.444 52.0995 44.654 52.2681C44.8628 52.4368 44.9683 52.6811 44.9683 53.0012V53.9556C44.9683 54.0222 44.9821 54.0681 45.0107 54.0933C45.0394 54.1174 45.083 54.13 45.1427 54.13H45.2276V54.7575L45.2241 54.7587ZM43.6892 53.5874C43.5343 53.5874 43.4138 53.6184 43.3278 53.6792C43.2418 53.7411 43.1982 53.8283 43.1982 53.9407C43.1982 54.036 43.2337 54.1117 43.306 54.1679C43.3783 54.2241 43.4758 54.2528 43.5985 54.2528C43.7924 54.2528 43.945 54.1977 44.0574 54.0864C44.1698 53.9752 44.2284 53.8272 44.2318 53.6402V53.5874H43.688H43.6892Z" fill="#010101"/>
<path d="M47.1655 52.7236H46.8706C46.6596 52.7236 46.5047 52.7867 46.406 52.9141C46.3074 53.0403 46.258 53.2123 46.258 53.4315V54.7611H45.5146V52.0502H46.1904L46.2592 52.4563C46.3395 52.3233 46.4404 52.2212 46.5597 52.1535C46.6791 52.0846 46.8397 52.0502 47.0393 52.0502H47.1655V52.7259V52.7236Z" fill="#010101"/>
<path d="M48.24 51.2884V52.0479H48.8572V52.6754H48.24V53.8616C48.24 53.9568 48.2606 54.0257 48.3008 54.067C48.3409 54.1083 48.4086 54.1301 48.5038 54.1301H48.8893V54.7576H48.2721C47.7547 54.7576 47.4966 54.4995 47.4966 53.9821V51.2873H48.24V51.2884Z" fill="#010101"/>
<path d="M51.8422 53.2881V54.7599H51.0988V53.3305C51.0988 52.8625 50.9164 52.6296 50.5504 52.6296C50.3566 52.6296 50.2074 52.695 50.1019 52.8246C49.9964 52.9542 49.9436 53.1378 49.9436 53.373V54.7599H49.2002V52.0491H49.8495L49.9183 52.3864C50.0136 52.2705 50.1271 52.1799 50.2614 52.1145C50.3956 52.0491 50.5608 52.017 50.7569 52.017C51.0736 52.017 51.334 52.1156 51.5382 52.3118C51.7424 52.5091 51.8445 52.8338 51.8445 53.2881H51.8422Z" fill="#010101"/>
<path d="M52.8578 52.1879C53.0632 52.0732 53.3018 52.017 53.5725 52.017C53.8433 52.017 54.0888 52.0709 54.2975 52.1776C54.5063 52.2843 54.6704 52.4357 54.7885 52.6307C54.9067 52.8257 54.9675 53.0552 54.971 53.319C54.971 53.4143 54.9641 53.498 54.9503 53.5726H52.9829V53.5932C53.0001 53.7905 53.0632 53.9443 53.1733 54.0578C53.2823 54.1703 53.4314 54.2265 53.6218 54.2265C53.7733 54.2265 53.8983 54.1944 53.9993 54.129C54.0991 54.0636 54.1656 53.9684 54.1966 53.841H54.9297C54.9021 54.02 54.8333 54.1817 54.7243 54.3263C54.6153 54.4708 54.4708 54.5844 54.2918 54.667C54.1128 54.7496 53.9064 54.7909 53.6746 54.7909C53.3718 54.7909 53.1113 54.7347 52.8911 54.6223C52.6708 54.5098 52.5022 54.3492 52.3852 54.1393C52.267 53.9305 52.2085 53.6861 52.2085 53.4085C52.2085 53.1309 52.2659 52.882 52.3794 52.6732C52.4941 52.4644 52.6536 52.3026 52.859 52.1879H52.8578ZM54.0234 52.7053C53.9121 52.6158 53.7733 52.5711 53.6046 52.5711C53.436 52.5711 53.3064 52.6181 53.1962 52.711C53.085 52.8039 53.0196 52.9301 52.9989 53.0885H54.2276C54.2035 52.9233 54.1346 52.7959 54.0245 52.7064L54.0234 52.7053Z" fill="#010101"/>
<path d="M57.0268 52.7236H56.732C56.5209 52.7236 56.366 52.7867 56.2674 52.9141C56.1687 53.0403 56.1194 53.2123 56.1194 53.4315V54.7611H55.376V52.0502H56.0517L56.1205 52.4563C56.2008 52.3233 56.3018 52.2212 56.4211 52.1535C56.5404 52.0846 56.701 52.0502 56.9006 52.0502H57.0268V52.7259V52.7236Z" fill="#010101"/>
<path d="M14.92 57.9847L14.6033 58.2508L14.1846 57.7518L12.7804 58.93L12.4707 58.5617L13.8749 57.3836L13.4584 56.8868L13.7762 56.6207L14.9211 57.9858L14.92 57.9847Z" fill="white"/>
<path d="M17.2799 60.4718C17.3303 60.6015 17.3418 60.7311 17.3143 60.8607C17.2867 60.9904 17.2225 61.1108 17.1204 61.2198C17.0229 61.3253 16.9116 61.3942 16.7866 61.4286C16.6615 61.463 16.5353 61.4607 16.408 61.4206L16.143 62.3567L15.7529 61.9942L15.9893 61.1831L15.6933 60.9078L15.1793 61.4607L14.8271 61.1326L16.3564 59.4864L17.0263 60.1093C17.1456 60.2206 17.2305 60.3399 17.2799 60.4707V60.4718ZM15.9652 60.6164L16.2543 60.8848C16.3369 60.9617 16.4252 61.0007 16.5158 61.0007C16.6076 61.0007 16.6891 60.9628 16.7602 60.886C16.8325 60.808 16.8657 60.7231 16.8588 60.6313C16.852 60.5395 16.8061 60.4558 16.7235 60.3789L16.4344 60.1105L15.9652 60.6164Z" fill="white"/>
<path d="M19.7854 62.3785L20.2557 62.7134L19.6144 65.0159L19.1934 64.7153L19.338 64.2151L18.6428 63.7195L18.216 64.019L17.811 63.7299L19.7854 62.3773V62.3785ZM19.4561 63.8239L19.7085 62.9555L18.972 63.4786L19.4561 63.8239Z" fill="white"/>
<path d="M23.0867 64.4698L21.9923 66.4327L21.5713 66.1986L22.6657 64.2358L23.0867 64.4698Z" fill="white"/>
<path d="M25.0579 65.4713L25.4606 65.6399L25.7932 67.3137L26.3405 66.0082L26.7787 66.1918L25.9103 68.2647L25.5041 68.095L25.1715 66.4212L24.6242 67.7267L24.1895 67.5443L25.0579 65.4713Z" fill="white"/>
<path d="M29.3389 67.0292L28.7079 69.1859L28.2456 69.0505L28.8766 66.8938L29.3389 67.0292Z" fill="white"/>
<path d="M31.4841 67.5683L31.9143 67.6429L32.6106 69.2008L32.8539 67.8058L33.3219 67.8873L32.9364 70.1014L32.5028 70.0256L31.8065 68.4678L31.5632 69.8627L31.0986 69.7813L31.4841 67.5672V67.5683Z" fill="white"/>
<path d="M35.8451 70.2609C35.6868 70.1611 35.5675 70.0223 35.4849 69.8456C35.4023 69.6689 35.3656 69.467 35.3736 69.241C35.3817 69.0127 35.4344 68.8131 35.5308 68.6445C35.6272 68.4758 35.7602 68.3473 35.9323 68.259C36.1033 68.1707 36.3029 68.1317 36.53 68.1397C36.7078 68.1466 36.8661 68.1867 37.0061 68.2602C37.1461 68.3336 37.2562 68.4345 37.3388 68.5619C37.4202 68.6892 37.4684 68.8338 37.4822 68.9944L37.0015 68.976C36.9763 68.8487 36.9201 68.7466 36.834 68.6697C36.748 68.5928 36.6379 68.5515 36.5025 68.547C36.3786 68.5424 36.2696 68.5699 36.1755 68.6284C36.0815 68.6869 36.0069 68.7707 35.9541 68.8808C35.9014 68.9909 35.8715 69.116 35.8658 69.2594C35.8578 69.4796 35.9048 69.6597 36.008 69.7974C36.1113 69.9362 36.2581 70.0085 36.4486 70.0165C36.5874 70.0211 36.7124 69.9878 36.8214 69.9167C36.9315 69.8444 36.9992 69.7355 37.0268 69.5886V69.5599L36.4692 69.5393L36.483 69.1573L37.4868 69.194L37.4409 70.4421L37.1036 70.4295L37.0658 70.1588C36.9981 70.2425 36.9086 70.3079 36.795 70.3572C36.6814 70.4066 36.5507 70.4284 36.4004 70.4226C36.1881 70.4146 36.0035 70.3607 35.8463 70.2609H35.8451Z" fill="white"/>
<path d="M43.6711 67.6854C43.8031 67.7233 43.912 67.7921 43.9992 67.8919C44.0864 67.9917 44.1426 68.1156 44.169 68.2624C44.1954 68.4104 44.1862 68.5446 44.1392 68.6674C44.0933 68.7902 44.0141 68.8923 43.904 68.9748C43.7939 69.0563 43.6597 69.1125 43.5013 69.1412L43.0746 69.2181L43.2088 69.9603L42.735 70.0463L42.3335 67.8357L43.234 67.6728C43.3924 67.6441 43.5369 67.6487 43.6688 67.6865L43.6711 67.6854ZM43.0046 68.8223L43.3866 68.7523C43.4979 68.7316 43.5805 68.6858 43.6356 68.6123C43.6895 68.5389 43.7078 68.4517 43.6883 68.3485C43.6688 68.2429 43.6218 68.1661 43.5449 68.1167C43.4681 68.0674 43.3752 68.0525 43.2627 68.0732L42.8807 68.142L43.0035 68.8211L43.0046 68.8223Z" fill="white"/>
<path d="M46.4334 66.8973L46.9852 66.7252L48.4307 68.6284L47.9374 68.7821L47.6265 68.3646L46.8108 68.6181L46.7913 69.1389L46.3164 69.2869L46.4334 66.8973ZM47.3856 68.033L46.8464 67.3069L46.8177 68.2097L47.3844 68.033H47.3856Z" fill="white"/>
<path d="M50.904 65.2602C51.0428 65.2625 51.1678 65.3015 51.278 65.3761C51.3881 65.4506 51.4741 65.555 51.5372 65.6915C51.5969 65.8223 51.6198 65.9508 51.6038 66.0804C51.5877 66.2089 51.5372 66.3248 51.4535 66.428L52.2187 67.0292L51.7346 67.2529L51.0749 66.7263L50.7078 66.8961L51.0244 67.581L50.5874 67.7829L49.6455 65.7432L50.4761 65.36C50.6241 65.2923 50.7675 65.259 50.9063 65.2625L50.904 65.2602ZM50.538 66.5313L50.896 66.3661C50.9992 66.3191 51.068 66.2525 51.1036 66.1676C51.1392 66.0827 51.1346 65.9933 51.0898 65.898C51.0451 65.8005 50.9786 65.7386 50.8914 65.7099C50.8042 65.6824 50.709 65.6915 50.6057 65.7386L50.2478 65.9038L50.5369 66.5301L50.538 66.5313Z" fill="white"/>
<path d="M54.4181 63.1677L54.6361 63.5199L54.082 63.8629L55.0479 65.4208L54.6384 65.6744L53.6724 64.1165L53.1218 64.4583L52.9038 64.1061L54.4181 63.1677Z" fill="white"/>
<path d="M56.1089 61.9666L56.4473 61.6913L58.0798 62.188L57.1873 61.089L57.5555 60.7896L58.9734 62.5333L58.6316 62.8109L56.9991 62.3142L57.8916 63.4132L57.5257 63.7103L56.1089 61.9666Z" fill="white"/>
<path d="M60.209 58.1935L60.5084 58.4791L59.7994 59.2225L60.1642 59.5701L60.7401 58.9667L61.0258 59.2397L60.4499 59.8432L60.8262 60.2022L61.5604 59.4336L61.8598 59.7193L60.794 60.8366L59.1685 59.2856L60.2101 58.1946L60.209 58.1935Z" fill="white"/>
<path d="M62.4715 55.5297C62.5954 55.4654 62.7227 55.4402 62.8547 55.4528C62.9866 55.4654 63.1128 55.517 63.2332 55.6054C63.348 55.6914 63.4294 55.7947 63.4776 55.9151C63.5258 56.0356 63.5361 56.1618 63.5109 56.2925L64.4711 56.4543L64.1533 56.8822L63.3216 56.7365L63.0807 57.0612L63.6864 57.5109L63.3996 57.8975L61.5962 56.5564L62.1423 55.8222C62.2398 55.6914 62.3499 55.5939 62.4738 55.5297H62.4715ZM62.7583 56.8203L62.9935 56.5036C63.0612 56.413 63.0898 56.3212 63.0807 56.2306C63.0715 56.14 63.0245 56.0631 62.9396 56C62.8535 55.9358 62.7652 55.9128 62.6757 55.93C62.5862 55.9472 62.5071 56.0012 62.4394 56.0918L62.2042 56.4084L62.7583 56.8203Z" fill="white"/>
<path d="M25.6953 45.6786H26.6452L27.9851 49.3703H27.1362L26.8517 48.5639H25.4487L25.1641 49.3703H24.3462L25.6964 45.6786H25.6953ZM26.6337 47.926L26.1427 46.523L25.6574 47.926H26.6337Z" fill="#010101"/>
<path d="M30.7156 49.3703H30.056L29.9871 49.0434C29.8919 49.1558 29.7818 49.2441 29.6545 49.3072C29.5283 49.3703 29.3734 49.4024 29.1898 49.4024C28.8732 49.4024 28.6151 49.3049 28.4143 49.1099C28.2136 48.9149 28.1138 48.5891 28.1138 48.1313V46.6595H28.8572V48.0419C28.8572 48.2885 28.8996 48.4732 28.9868 48.5983C29.0728 48.7233 29.2059 48.7852 29.3849 48.7852C29.5638 48.7852 29.7153 48.7153 29.8174 48.5765C29.9195 48.4376 29.9699 48.2438 29.9699 47.9937V46.6595H30.7133V49.3703H30.7156Z" fill="#010101"/>
<path d="M30.9795 47.287V46.6595H31.428V45.9H32.1714V46.6595H32.7886V47.287H32.1714V48.4732C32.1714 48.5684 32.1921 48.6372 32.2322 48.6785C32.2724 48.721 32.3401 48.7416 32.4353 48.7416H32.8207V49.3692H32.2036C31.6862 49.3692 31.428 49.111 31.428 48.5937V47.2858H30.9795V47.287Z" fill="#010101"/>
<path d="M35.7735 47.8984V49.3703H35.0301V47.9306C35.0301 47.7057 34.9842 47.5336 34.8925 47.4166C34.8007 47.2984 34.6642 47.2399 34.4806 47.2399C34.2971 47.2399 34.1422 47.3053 34.0344 47.435C33.9265 47.5646 33.8738 47.7459 33.8738 47.9787V49.3714H33.1304V45.6797H33.8738V46.9933C34.0745 46.7512 34.3418 46.6296 34.6757 46.6296C35.0095 46.6296 35.2584 46.7283 35.4638 46.9245C35.6691 47.1218 35.7724 47.4464 35.7724 47.9007L35.7735 47.8984Z" fill="#010101"/>
<path d="M36.3139 48.7428C36.1957 48.5318 36.1372 48.2897 36.1372 48.0155C36.1372 47.7413 36.1957 47.4981 36.3139 47.2882C36.432 47.0771 36.5984 46.9142 36.8152 46.8006C37.0309 46.6859 37.2821 46.6297 37.5666 46.6297C37.8511 46.6297 38.1024 46.6871 38.318 46.8006C38.5349 46.9154 38.7012 47.0771 38.8194 47.2882C38.9375 47.4993 38.996 47.7413 38.996 48.0155C38.996 48.2897 38.9375 48.5363 38.8194 48.7463C38.7012 48.9551 38.5349 49.1168 38.318 49.2315C38.1024 49.3463 37.8511 49.4025 37.5666 49.4025C37.2821 49.4025 37.0309 49.3451 36.8152 49.2315C36.5984 49.1168 36.432 48.9551 36.3139 48.744V48.7428ZM38.2412 48.0155C38.2412 47.7838 38.1804 47.5956 38.0588 47.4511C37.9372 47.3065 37.7731 47.2354 37.5655 47.2354C37.3578 47.2354 37.1984 47.3077 37.0779 47.4511C36.9563 47.5956 36.8955 47.7838 36.8955 48.0155C36.8955 48.2473 36.9563 48.4354 37.0779 48.5799C37.1995 48.7245 37.3624 48.7956 37.5655 48.7956C37.7685 48.7956 37.9372 48.7233 38.0588 48.5799C38.1804 48.4354 38.2412 48.2473 38.2412 48.0155Z" fill="#010101"/>
<path d="M41.0576 47.3352H40.7627C40.5516 47.3352 40.3968 47.3983 40.2981 47.5256C40.1995 47.6518 40.1501 47.8239 40.1501 48.043V49.3726H39.4067V46.6618H40.0824L40.1513 47.0679C40.2316 46.9348 40.3325 46.8327 40.4518 46.7651C40.5711 46.6962 40.7318 46.6618 40.9314 46.6618H41.0576V47.3375V47.3352Z" fill="#010101"/>
<path d="M42.191 45.9471C42.191 46.0664 42.1508 46.1673 42.0694 46.2476C41.9879 46.3291 41.887 46.3692 41.7631 46.3692C41.6392 46.3692 41.5371 46.3291 41.4545 46.2476C41.3719 46.1673 41.3306 46.0664 41.3306 45.9471C41.3306 45.8278 41.3719 45.728 41.4545 45.6488C41.5371 45.5696 41.6403 45.5306 41.7631 45.5306C41.8858 45.5306 41.9879 45.5708 42.0694 45.6488C42.1497 45.728 42.191 45.8278 42.191 45.9471ZM42.1325 46.6595V49.3703H41.3891V46.6595H42.1325Z" fill="#010101"/>
<path d="M44.8653 46.6595V47.1654L43.5093 48.7428H44.9284V49.3703H42.5078V48.8644L43.8638 47.287H42.5721V46.6595H44.8665H44.8653Z" fill="#010101"/>
<path d="M45.7484 46.7995C45.9538 46.6848 46.1924 46.6285 46.4631 46.6285C46.7339 46.6285 46.9794 46.6825 47.1882 46.7891C47.397 46.8958 47.561 47.0473 47.6792 47.2423C47.7973 47.4373 47.8581 47.6668 47.8616 47.9306C47.8616 48.0258 47.8547 48.1096 47.8409 48.1841H45.8735V48.2048C45.8907 48.4021 45.9538 48.5558 46.0639 48.6694C46.1729 48.7818 46.322 48.838 46.5125 48.838C46.6639 48.838 46.7889 48.8059 46.8899 48.7405C46.9897 48.6751 47.0562 48.5799 47.0872 48.4526H47.8203C47.7927 48.6316 47.7239 48.7933 47.6149 48.9379C47.5059 49.0824 47.3614 49.196 47.1824 49.2786C47.0035 49.3612 46.797 49.4025 46.5652 49.4025C46.2624 49.4025 46.002 49.3463 45.7817 49.2338C45.5614 49.1214 45.3928 48.9608 45.2758 48.7509C45.1576 48.5421 45.0991 48.2977 45.0991 48.0201C45.0991 47.7425 45.1565 47.4935 45.2701 47.2847C45.3848 47.0759 45.5442 46.9142 45.7496 46.7995H45.7484ZM46.914 47.3169C46.8027 47.2274 46.6639 47.1826 46.4953 47.1826C46.3266 47.1826 46.197 47.2297 46.0869 47.3226C45.9767 47.4155 45.9102 47.5417 45.8895 47.7H47.1182C47.0941 47.5348 47.0253 47.4075 46.9151 47.318L46.914 47.3169Z" fill="#010101"/>
<path d="M50.9772 49.3703H50.3279L50.2545 48.9963C50.0468 49.2671 49.7657 49.4024 49.4101 49.4024C49.1715 49.4024 48.957 49.3451 48.7665 49.2315C48.5761 49.1168 48.4281 48.955 48.3203 48.7439C48.2136 48.5328 48.1597 48.2885 48.1597 48.0109C48.1597 47.7332 48.2136 47.4946 48.3203 47.2858C48.427 47.077 48.5772 46.9153 48.7688 46.8006C48.9604 46.6859 49.1761 46.6296 49.4147 46.6296C49.7669 46.6296 50.0388 46.7524 50.2327 46.999V45.6809H50.976V49.3726L50.9772 49.3703ZM50.2441 48.02C50.2441 47.7849 50.1845 47.5944 50.0652 47.4499C49.9459 47.3053 49.7852 47.2342 49.5856 47.2342C49.386 47.2342 49.2243 47.3065 49.1027 47.4499C48.9811 47.5944 48.9203 47.7826 48.9203 48.0143C48.9203 48.246 48.9811 48.4342 49.1027 48.5787C49.2243 48.7233 49.3849 48.7944 49.5856 48.7944C49.7864 48.7944 49.9459 48.7233 50.0652 48.581C50.1845 48.4388 50.2441 48.2518 50.2441 48.0189V48.02Z" fill="#010101"/>
</svg>
