<?xml version="1.0" encoding="UTF-8"?>
<svg width="73px" height="73px" viewBox="0 0 73 73" version="1.1" xmlns="http://www.w3.org/2000/svg" xmlns:xlink="http://www.w3.org/1999/xlink">
    <title>Group 2</title>
    <g id="Page-2" stroke="none" stroke-width="1" fill="none" fill-rule="evenodd">
        <g id="home" transform="translate(-127.000000, -927.000000)">
            <g id="Group-2" transform="translate(127.000000, 927.000000)">
                <rect id="Rectangle" fill="#128BBA" x="0" y="0" width="73" height="73" rx="6"></rect>
                <path d="M43.9449133,48.337032 L42.7195875,58.426192 C42.4715624,60.467824 40.7852034,62 38.7860711,62 L35.2139551,62 C33.2146907,62 31.5283316,60.467824 31.2804387,58.426056 L30.0551129,48.336896 C29.5327671,44.037528 32.7899956,40.24 36.999947,40.24 L36.999947,40.24 C33.7211798,40.24 31.053688,37.494568 31.053688,34.12 C31.053688,30.745432 33.7211798,28 36.999947,28 C40.2787142,28 42.946206,30.745432 42.946206,34.12 C42.946206,37.494568 40.2787142,40.24 36.999947,40.24 L36.999947,40.24 C41.2098984,40.24 44.4671269,44.037528 43.9449133,48.337032 Z M36.5,24.1547836 C30.1828739,24.1547836 25.0434783,29.4356521 25.0434783,35.9266706 C25.0434783,38.2662293 25.713887,40.4466598 26.8637174,42.2811352 C26.0372304,43.7242301 25.5282913,45.3358707 25.3708652,47 C22.6669913,44.1316759 21,40.2257638 21,35.9266706 C21,27.1447044 27.9533,20 36.5,20 C45.0467,20 52,27.1447044 52,35.9266706 C52,40.2257638 50.3330087,44.1316759 47.6292696,47 C47.4718435,45.3358707 46.9627696,43.7243686 46.1364174,42.2812737 C47.286113,40.4466598 47.9565217,38.2662293 47.9565217,35.9266706 C47.9565217,29.4356521 42.8171261,24.1547836 36.5,24.1547836 Z M46.5496743,57 L47.1696714,52.0108954 C52.4667057,48.5071225 55.9714286,42.4763813 55.9714286,35.6367238 C55.9714286,24.8377125 47.2365457,16.0520098 36.5,16.0520098 C25.7634543,16.0520098 17.0285714,24.8377125 17.0285714,35.6367238 C17.0285714,42.4763813 20.5332943,48.5071225 25.8303286,52.0108954 L26.4503257,57 C18.5062514,53.2039422 13,45.0554855 13,35.6367238 C13,22.6034343 23.5421,12 36.5,12 C49.4579,12 60,22.6034343 60,35.6367238 C60,45.0554855 54.4937486,53.2039422 46.5496743,57 Z" id="Shape" fill="#FFFFFF" fill-rule="nonzero"></path>
            </g>
        </g>
    </g>
</svg>