<?xml version="1.0" encoding="UTF-8"?>
<svg width="30px" height="24px" viewBox="0 0 30 24" version="1.1" xmlns="http://www.w3.org/2000/svg" xmlns:xlink="http://www.w3.org/1999/xlink">
    <title>Shape</title>
    <g id="announcement" stroke="none" stroke-width="1" fill="none" fill-rule="evenodd">
        <g transform="translate(-152.000000, -462.000000)" fill="#E8B149" fill-rule="nonzero" id="Group-8">
            <g transform="translate(127.000000, 436.000000)">
                <path d="M49,36.5 L49,39.5 L55,39.5 L55,36.5 L49,36.5 Z M46,46.415 C47.44,47.48 49.315,48.89 50.8,50 C51.4,49.205 52,48.395 52.6,47.6 C51.115,46.49 49.24,45.08 47.8,44 C47.2,44.81 46.6,45.62 46,46.415 Z M52.6,28.4 C52,27.605 51.4,26.795 50.8,26 C49.315,27.11 47.44,28.52 46,29.6 C46.6,30.395 47.2,31.205 47.8,32 C49.24,30.92 51.115,29.525 52.6,28.4 Z M28,33.5 C26.35,33.5 25,34.85 25,36.5 L25,39.5 C25,41.15 26.35,42.5 28,42.5 L29.5,42.5 L29.5,48.5 L32.5,48.5 L32.5,42.5 L34,42.5 L41.5,47 L41.5,29 L34,33.5 L28,33.5 Z M45.25,38 C45.25,36.005 44.38,34.205 43,32.975 L43,43.01 C44.38,41.795 45.25,39.995 45.25,38 Z" id="Shape"></path>
            </g>
        </g>
    </g>
</svg>