<?xml version="1.0" encoding="UTF-8"?>
<svg width="100px" height="103px" viewBox="0 0 100 103" version="1.1" xmlns="http://www.w3.org/2000/svg" xmlns:xlink="http://www.w3.org/1999/xlink">
    <title>Group 10</title>
    <g id="announcement" stroke="none" stroke-width="1" fill="none" fill-rule="evenodd">
        <g transform="translate(-133.000000, -630.000000)" id="Group-6">
            <g transform="translate(127.000000, 630.000000)">
                <g id="Group-10" transform="translate(6.000000, 0.000000)">
                    <path d="M2.52632739,66.8118163 L43.9746169,101.625056 C46.7000663,103.579442 50.5409278,102.965624 52.5105852,100.260496 L98.6799213,36.8435828 C100.6484,34.1384545 100.03056,30.3256456 97.3051111,28.3712592 L52.2906863,1.14326269 C49.5652369,-0.811123723 45.7237859,-0.197305956 43.754718,2.50723715 L1.15210666,58.3394927 C-0.817550771,61.0452061 -0.198532423,64.8574299 2.52632739,66.8118163" id="Fill-97" fill="#2E394C"></path>
                    <polygon id="Fill-99" fill="#FEFEFE" points="13.4616108 54.9512069 51.7812047 87.5198276 91.4714821 33.001224 49.585753 8.01784613"></polygon>
                    <path d="M23.3675551,76.9930577 C22.2662919,78.5056591 22.6088154,80.6174497 24.1327797,81.7105018 C25.6567439,82.8035538 27.7838088,82.462999 28.8850719,80.9509827 C29.9863351,79.4383813 29.6438116,77.3260055 28.1198474,76.2335387 C26.5964727,75.1410718 24.4682286,75.4810414 23.3675551,76.9930577" id="Fill-101" fill="#FEFEFE"></path>
                    <path d="M46.9687792,22.0030608 L47.7953161,22.590547 C48.4449906,23.0510566 48.929004,23.326075 49.2491249,23.4138469 C49.5692458,23.5016187 49.878755,23.4910861 50.1776524,23.3810787 C50.4759603,23.2728268 50.7341794,23.0668555 50.9517201,22.7655055 C51.3290265,22.2418002 51.400361,21.7151691 51.1651341,21.1850272 C50.9971148,20.7953202 50.5113328,20.3149156 49.7071985,19.7438135 L48.9738091,19.2224487 L46.9687792,22.0030608 Z M48.1891297,14.8648692 L50.9446456,16.8221814 C52.4344165,17.8807098 53.4112864,18.7800786 53.8728972,19.5214582 C54.3339185,20.2622525 54.5355416,21.0732644 54.4748188,21.9539085 C54.4152752,22.835723 54.077468,23.7023237 53.4619869,24.5548809 C52.7798877,25.5010614 51.9651416,26.1096128 51.0153906,26.3822907 C50.0662291,26.6543834 49.0763893,26.6099123 48.0452816,26.2494626 C47.4427704,26.0352993 46.4800495,25.4571754 45.1565293,24.5174315 L41.0197181,30.2536142 L38.4227888,28.4074797 L48.1891297,14.8648692 Z" id="Fill-103" fill="#27A0C4"></path>
                    <polygon id="Fill-105" fill="#27A0C4" points="60.1620647 23.3699025 62.6929654 25.1674698 59.0442944 36.8616053 69.04881 29.6830387 71.5773525 31.4794358 64.0996109 46.6487511 61.5875755 44.8646421 66.2927045 35.2723497 57.2261491 41.7657108 54.9369603 40.1395911 58.2319065 29.5455294 50.5655116 37.0342232 48.0334318 35.2349004"></polygon>
                    <polygon id="Fill-107" fill="#27A0C4" points="74.5908518 33.6202496 82.1316743 38.977843 80.2999696 41.5185453 77.813874 39.7525758 69.8792378 50.7550691 67.2445778 48.8831882 75.179214 37.8806949 72.7585575 36.1609519"></polygon>
                    <polygon id="Fill-109" fill="#DEE3E9" points="61.7170977 64.9958168 30.9011852 40.7017405 35.7118421 33.6718009 68.1413291 56.7013775"></polygon>
                    <polygon id="Fill-111" fill="#DEE3E9" points="52.2999421 77.0918888 21.4840296 52.7978125 26.2946865 45.7678729 58.7241735 68.7968643"></polygon>
                </g>
            </g>
        </g>
    </g>
</svg>