<?xml version="1.0" encoding="UTF-8"?>
<svg width="29px" height="25px" viewBox="0 0 29 25" version="1.1" xmlns="http://www.w3.org/2000/svg" xmlns:xlink="http://www.w3.org/1999/xlink">
    <title>Group 8</title>
    <defs>
        <polygon id="path-1" points="0 0.150064 20.7730836 0.150064 20.7730836 8.96 0 8.96"></polygon>
    </defs>
    <g id="Page-1" stroke="none" stroke-width="1" fill="none" fill-rule="evenodd">
        <g id="Corporate-training-(3)" transform="translate(-500.000000, -4116.000000)">
            <g id="Group-8" transform="translate(500.000000, 4116.000000)">
                <g id="Group-3" transform="translate(0.000000, 15.335360)">
                    <mask id="mask-2" fill="white">
                        <use xlink:href="#path-1"></use>
                    </mask>
                    <g id="Clip-2"></g>
                    <path d="M-1.59999975e-05,6.899504 C1.259824,4.798224 2.519024,2.696624 3.780944,0.596624 C3.874224,0.441584 3.988304,0.298704 4.092944,0.150064 C4.141584,2.243184 5.519504,2.956464 7.263984,2.909584 C8.237264,2.883184 9.211664,2.896944 10.185744,2.892624 C13.040784,2.895504 15.895984,2.898224 18.750864,2.900944 C19.259824,3.702864 19.776464,4.500304 20.275984,5.308144 C21.169904,6.753424 20.853104,7.995024 19.366704,8.916784 C14.268944,8.926864 9.171024,8.936784 4.073264,8.946384 C3.359984,8.947824 2.644944,8.914864 1.933904,8.954864 C1.099024,9.001744 0.447824,8.735664 -1.59999975e-05,8.015504 L-1.59999975e-05,6.899504 Z" id="Fill-1" fill="#684299" mask="url(#mask-2)"></path>
                </g>
                <path d="M10.18568,18.227984 C9.21176,18.232304 8.23736,18.218544 7.26392,18.244784 C5.51944,18.291824 4.14168,17.578544 4.09288,15.485424 C5.19656,13.375184 6.54712,11.413584 7.77448,9.377904 C9.3852,6.706224 11.03976,4.060784 12.69736,1.417904 C13.18232,0.644624 13.77176,-0.048176 14.81592,0.002704 C15.35784,0.028944 15.76728,0.345744 16.0516,0.773104 C17.49944,2.949424 18.83624,5.193744 20.08088,7.491984 C18.45576,6.728784 17.40104,6.788144 16.52312,7.903504 C15.71448,8.930864 15.034,10.064944 14.47944,11.261904 C12.93352,13.512944 11.5484,15.863664 10.18568,18.227984" id="Fill-4" fill="#29ACE1"></path>
                <path d="M14.479424,11.261888 C15.033984,10.065088 15.714464,8.930848 16.523104,7.903488 C17.401024,6.788128 18.455904,6.728768 20.080864,7.491968 C21.304064,9.504448 22.507584,11.527808 23.753824,13.524768 C25.341184,16.068128 26.679744,18.760768 28.377344,21.237088 C28.703584,21.713088 28.837504,22.225248 28.820224,22.805888 C28.792064,23.755328 28.370784,24.273568 27.385344,24.280608 C24.712704,24.299648 22.039744,24.265408 19.366784,24.252288 C20.853024,23.330368 21.169984,22.088768 20.276064,20.643488 C19.776384,19.835648 19.259744,19.038368 18.750944,18.236288 C17.418144,15.855488 15.946944,13.559808 14.479424,11.261888" id="Fill-6" fill="#0F8242"></path>
            </g>
        </g>
    </g>
</svg>